<?xml version="1.0" encoding="UTF-8" standalone="no"?>
<!DOCTYPE svg PUBLIC "-//W3C//DTD SVG 1.1//EN"
 "http://www.w3.org/Graphics/SVG/1.1/DTD/svg11.dtd">
<!-- Generated by graphviz version 2.38.0 (20140413.2041)
 -->
<!-- Title: snakemake_dag Pages: 1 -->
<svg width="785pt" height="188pt"
 viewBox="0.00 0.00 785.00 188.00" xmlns="http://www.w3.org/2000/svg" xmlns:xlink="http://www.w3.org/1999/xlink">
<g id="graph0" class="graph" transform="scale(1 1) rotate(0) translate(4 184)">
<title>snakemake_dag</title>
<polygon fill="white" stroke="none" points="-4,4 -4,-184 781,-184 781,4 -4,4"/>
<!-- 0 -->
<g id="node1" class="node"><title>0</title>
<path fill="none" stroke="#afd856" stroke-width="2" d="M400,-36C400,-36 370,-36 370,-36 364,-36 358,-30 358,-24 358,-24 358,-12 358,-12 358,-6 364,-0 370,-0 370,-0 400,-0 400,-0 406,-0 412,-6 412,-12 412,-12 412,-24 412,-24 412,-30 406,-36 400,-36"/>
<text text-anchor="middle" x="385" y="-15.5" font-family="sans" font-size="10.00">all</text>
</g>
<!-- 1 -->
<g id="node2" class="node"><title>1</title>
<path fill="none" stroke="#56d8a9" stroke-width="2" d="M85,-108C85,-108 55,-108 55,-108 49,-108 43,-102 43,-96 43,-96 43,-84 43,-84 43,-78 49,-72 55,-72 55,-72 85,-72 85,-72 91,-72 97,-78 97,-84 97,-84 97,-96 97,-96 97,-102 91,-108 85,-108"/>
<text text-anchor="middle" x="70" y="-87.5" font-family="sans" font-size="10.00">plot</text>
</g>
<!-- 1&#45;&gt;0 -->
<g id="edge1" class="edge"><title>1&#45;&gt;0</title>
<path fill="none" stroke="grey" stroke-width="2" d="M97.0814,-82.9297C111.589,-79.681 129.768,-75.6153 146,-72 217.35,-56.1088 300.707,-37.6476 347.731,-27.2425"/>
<polygon fill="grey" stroke="grey" stroke-width="2" points="348.748,-30.6022 357.756,-25.0245 347.236,-23.7674 348.748,-30.6022"/>
</g>
<!-- 2 -->
<g id="node3" class="node"><title>2</title>
<path fill="none" stroke="#56d8a9" stroke-width="2" d="M197,-108C197,-108 167,-108 167,-108 161,-108 155,-102 155,-96 155,-96 155,-84 155,-84 155,-78 161,-72 167,-72 167,-72 197,-72 197,-72 203,-72 209,-78 209,-84 209,-84 209,-96 209,-96 209,-102 203,-108 197,-108"/>
<text text-anchor="middle" x="182" y="-87.5" font-family="sans" font-size="10.00">plot</text>
</g>
<!-- 2&#45;&gt;0 -->
<g id="edge2" class="edge"><title>2&#45;&gt;0</title>
<path fill="none" stroke="grey" stroke-width="2" d="M209.377,-79.5595C245.194,-67.2089 308.087,-45.5218 348.087,-31.7286"/>
<polygon fill="grey" stroke="grey" stroke-width="2" points="349.42,-34.9712 357.733,-28.4025 347.138,-28.3536 349.42,-34.9712"/>
</g>
<!-- 3 -->
<g id="node4" class="node"><title>3</title>
<path fill="none" stroke="#56d8a9" stroke-width="2" d="M308,-108C308,-108 278,-108 278,-108 272,-108 266,-102 266,-96 266,-96 266,-84 266,-84 266,-78 272,-72 278,-72 278,-72 308,-72 308,-72 314,-72 320,-78 320,-84 320,-84 320,-96 320,-96 320,-102 314,-108 308,-108"/>
<text text-anchor="middle" x="293" y="-87.5" font-family="sans" font-size="10.00">plot</text>
</g>
<!-- 3&#45;&gt;0 -->
<g id="edge3" class="edge"><title>3&#45;&gt;0</title>
<path fill="none" stroke="grey" stroke-width="2" d="M315.742,-71.6966C327.44,-62.796 341.861,-51.8232 354.51,-42.1989"/>
<polygon fill="grey" stroke="grey" stroke-width="2" points="356.681,-44.945 362.52,-36.1043 352.442,-39.3742 356.681,-44.945"/>
</g>
<!-- 4 -->
<g id="node5" class="node"><title>4</title>
<path fill="none" stroke="#56d8a9" stroke-width="2" d="M400,-108C400,-108 370,-108 370,-108 364,-108 358,-102 358,-96 358,-96 358,-84 358,-84 358,-78 364,-72 370,-72 370,-72 400,-72 400,-72 406,-72 412,-78 412,-84 412,-84 412,-96 412,-96 412,-102 406,-108 400,-108"/>
<text text-anchor="middle" x="385" y="-87.5" font-family="sans" font-size="10.00">plot</text>
</g>
<!-- 4&#45;&gt;0 -->
<g id="edge4" class="edge"><title>4&#45;&gt;0</title>
<path fill="none" stroke="grey" stroke-width="2" d="M385,-71.6966C385,-63.9827 385,-54.7125 385,-46.1124"/>
<polygon fill="grey" stroke="grey" stroke-width="2" points="388.5,-46.1043 385,-36.1043 381.5,-46.1044 388.5,-46.1043"/>
</g>
<!-- 5 -->
<g id="node6" class="node"><title>5</title>
<path fill="none" stroke="#56d8a9" stroke-width="2" d="M488,-108C488,-108 458,-108 458,-108 452,-108 446,-102 446,-96 446,-96 446,-84 446,-84 446,-78 452,-72 458,-72 458,-72 488,-72 488,-72 494,-72 500,-78 500,-84 500,-84 500,-96 500,-96 500,-102 494,-108 488,-108"/>
<text text-anchor="middle" x="473" y="-87.5" font-family="sans" font-size="10.00">plot</text>
</g>
<!-- 5&#45;&gt;0 -->
<g id="edge5" class="edge"><title>5&#45;&gt;0</title>
<path fill="none" stroke="grey" stroke-width="2" d="M451.247,-71.6966C440.164,-62.8807 426.526,-52.0321 414.51,-42.4742"/>
<polygon fill="grey" stroke="grey" stroke-width="2" points="416.507,-39.5905 406.503,-36.1043 412.15,-45.0687 416.507,-39.5905"/>
</g>
<!-- 6 -->
<g id="node7" class="node"><title>6</title>
<path fill="none" stroke="#56d8a9" stroke-width="2" d="M591,-108C591,-108 561,-108 561,-108 555,-108 549,-102 549,-96 549,-96 549,-84 549,-84 549,-78 555,-72 561,-72 561,-72 591,-72 591,-72 597,-72 603,-78 603,-84 603,-84 603,-96 603,-96 603,-102 597,-108 591,-108"/>
<text text-anchor="middle" x="576" y="-87.5" font-family="sans" font-size="10.00">plot</text>
</g>
<!-- 6&#45;&gt;0 -->
<g id="edge6" class="edge"><title>6&#45;&gt;0</title>
<path fill="none" stroke="grey" stroke-width="2" d="M548.634,-78.9707C515.209,-66.7206 458.548,-45.9549 421.452,-32.3594"/>
<polygon fill="grey" stroke="grey" stroke-width="2" points="422.6,-29.0525 412.006,-28.8976 420.191,-35.625 422.6,-29.0525"/>
</g>
<!-- 7 -->
<g id="node8" class="node"><title>7</title>
<path fill="none" stroke="#56d8a9" stroke-width="2" d="M726,-108C726,-108 696,-108 696,-108 690,-108 684,-102 684,-96 684,-96 684,-84 684,-84 684,-78 690,-72 696,-72 696,-72 726,-72 726,-72 732,-72 738,-78 738,-84 738,-84 738,-96 738,-96 738,-102 732,-108 726,-108"/>
<text text-anchor="middle" x="711" y="-87.5" font-family="sans" font-size="10.00">plot</text>
</g>
<!-- 7&#45;&gt;0 -->
<g id="edge7" class="edge"><title>7&#45;&gt;0</title>
<path fill="none" stroke="grey" stroke-width="2" d="M683.766,-83.1522C625.518,-70.6449 488.752,-41.278 422.406,-27.032"/>
<polygon fill="grey" stroke="grey" stroke-width="2" points="422.898,-23.5578 412.386,-24.8803 421.428,-30.4018 422.898,-23.5578"/>
</g>
<!-- 8 -->
<g id="node9" class="node"><title>8</title>
<path fill="none" stroke="#d85656" stroke-width="2" d="M86,-180C86,-180 12,-180 12,-180 6,-180 0,-174 0,-168 0,-168 0,-156 0,-156 0,-150 6,-144 12,-144 12,-144 86,-144 86,-144 92,-144 98,-150 98,-156 98,-156 98,-168 98,-168 98,-174 92,-180 86,-180"/>
<text text-anchor="middle" x="49" y="-165" font-family="sans" font-size="10.00">infercnv</text>
<text text-anchor="middle" x="49" y="-154" font-family="sans" font-size="10.00">sample: CID44991</text>
</g>
<!-- 8&#45;&gt;1 -->
<g id="edge8" class="edge"><title>8&#45;&gt;1</title>
<path fill="none" stroke="grey" stroke-width="2" d="M54.191,-143.697C56.5306,-135.898 59.3474,-126.509 61.9513,-117.829"/>
<polygon fill="grey" stroke="grey" stroke-width="2" points="65.3475,-118.688 64.8687,-108.104 58.6428,-116.677 65.3475,-118.688"/>
</g>
<!-- 9 -->
<g id="node10" class="node"><title>9</title>
<path fill="none" stroke="#d85656" stroke-width="2" d="M197.5,-180C197.5,-180 128.5,-180 128.5,-180 122.5,-180 116.5,-174 116.5,-168 116.5,-168 116.5,-156 116.5,-156 116.5,-150 122.5,-144 128.5,-144 128.5,-144 197.5,-144 197.5,-144 203.5,-144 209.5,-150 209.5,-156 209.5,-156 209.5,-168 209.5,-168 209.5,-174 203.5,-180 197.5,-180"/>
<text text-anchor="middle" x="163" y="-165" font-family="sans" font-size="10.00">infercnv</text>
<text text-anchor="middle" x="163" y="-154" font-family="sans" font-size="10.00">sample: CID3586</text>
</g>
<!-- 9&#45;&gt;2 -->
<g id="edge9" class="edge"><title>9&#45;&gt;2</title>
<path fill="none" stroke="grey" stroke-width="2" d="M167.697,-143.697C169.813,-135.898 172.362,-126.509 174.718,-117.829"/>
<polygon fill="grey" stroke="grey" stroke-width="2" points="178.116,-118.672 177.357,-108.104 171.36,-116.838 178.116,-118.672"/>
</g>
<!-- 10 -->
<g id="node11" class="node"><title>10</title>
<path fill="none" stroke="#d85656" stroke-width="2" d="M308.5,-180C308.5,-180 239.5,-180 239.5,-180 233.5,-180 227.5,-174 227.5,-168 227.5,-168 227.5,-156 227.5,-156 227.5,-150 233.5,-144 239.5,-144 239.5,-144 308.5,-144 308.5,-144 314.5,-144 320.5,-150 320.5,-156 320.5,-156 320.5,-168 320.5,-168 320.5,-174 314.5,-180 308.5,-180"/>
<text text-anchor="middle" x="274" y="-165" font-family="sans" font-size="10.00">infercnv</text>
<text text-anchor="middle" x="274" y="-154" font-family="sans" font-size="10.00">sample: CID4513</text>
</g>
<!-- 10&#45;&gt;3 -->
<g id="edge10" class="edge"><title>10&#45;&gt;3</title>
<path fill="none" stroke="grey" stroke-width="2" d="M278.697,-143.697C280.813,-135.898 283.362,-126.509 285.718,-117.829"/>
<polygon fill="grey" stroke="grey" stroke-width="2" points="289.116,-118.672 288.357,-108.104 282.36,-116.838 289.116,-118.672"/>
</g>
<!-- 11 -->
<g id="node12" class="node"><title>11</title>
<path fill="none" stroke="#d85656" stroke-width="2" d="M419.5,-180C419.5,-180 350.5,-180 350.5,-180 344.5,-180 338.5,-174 338.5,-168 338.5,-168 338.5,-156 338.5,-156 338.5,-150 344.5,-144 350.5,-144 350.5,-144 419.5,-144 419.5,-144 425.5,-144 431.5,-150 431.5,-156 431.5,-156 431.5,-168 431.5,-168 431.5,-174 425.5,-180 419.5,-180"/>
<text text-anchor="middle" x="385" y="-165" font-family="sans" font-size="10.00">infercnv</text>
<text text-anchor="middle" x="385" y="-154" font-family="sans" font-size="10.00">sample: CID4495</text>
</g>
<!-- 11&#45;&gt;4 -->
<g id="edge11" class="edge"><title>11&#45;&gt;4</title>
<path fill="none" stroke="grey" stroke-width="2" d="M385,-143.697C385,-135.983 385,-126.712 385,-118.112"/>
<polygon fill="grey" stroke="grey" stroke-width="2" points="388.5,-118.104 385,-108.104 381.5,-118.104 388.5,-118.104"/>
</g>
<!-- 12 -->
<g id="node13" class="node"><title>12</title>
<path fill="none" stroke="#d85656" stroke-width="2" d="M530.5,-180C530.5,-180 461.5,-180 461.5,-180 455.5,-180 449.5,-174 449.5,-168 449.5,-168 449.5,-156 449.5,-156 449.5,-150 455.5,-144 461.5,-144 461.5,-144 530.5,-144 530.5,-144 536.5,-144 542.5,-150 542.5,-156 542.5,-156 542.5,-168 542.5,-168 542.5,-174 536.5,-180 530.5,-180"/>
<text text-anchor="middle" x="496" y="-165" font-family="sans" font-size="10.00">infercnv</text>
<text text-anchor="middle" x="496" y="-154" font-family="sans" font-size="10.00">sample: CID4471</text>
</g>
<!-- 12&#45;&gt;5 -->
<g id="edge12" class="edge"><title>12&#45;&gt;5</title>
<path fill="none" stroke="grey" stroke-width="2" d="M490.315,-143.697C487.752,-135.898 484.667,-126.509 481.815,-117.829"/>
<polygon fill="grey" stroke="grey" stroke-width="2" points="485.067,-116.512 478.62,-108.104 478.416,-118.697 485.067,-116.512"/>
</g>
<!-- 13 -->
<g id="node14" class="node"><title>13</title>
<path fill="none" stroke="#d85656" stroke-width="2" d="M647,-180C647,-180 573,-180 573,-180 567,-180 561,-174 561,-168 561,-168 561,-156 561,-156 561,-150 567,-144 573,-144 573,-144 647,-144 647,-144 653,-144 659,-150 659,-156 659,-156 659,-168 659,-168 659,-174 653,-180 647,-180"/>
<text text-anchor="middle" x="610" y="-165" font-family="sans" font-size="10.00">infercnv</text>
<text text-anchor="middle" x="610" y="-154" font-family="sans" font-size="10.00">sample: CID44971</text>
</g>
<!-- 13&#45;&gt;6 -->
<g id="edge13" class="edge"><title>13&#45;&gt;6</title>
<path fill="none" stroke="grey" stroke-width="2" d="M601.596,-143.697C597.725,-135.728 593.048,-126.1 588.757,-117.264"/>
<polygon fill="grey" stroke="grey" stroke-width="2" points="591.825,-115.57 584.308,-108.104 585.529,-118.629 591.825,-115.57"/>
</g>
<!-- 14 -->
<g id="node15" class="node"><title>14</title>
<path fill="none" stroke="#d85656" stroke-width="2" d="M765,-180C765,-180 689,-180 689,-180 683,-180 677,-174 677,-168 677,-168 677,-156 677,-156 677,-150 683,-144 689,-144 689,-144 765,-144 765,-144 771,-144 777,-150 777,-156 777,-156 777,-168 777,-168 777,-174 771,-180 765,-180"/>
<text text-anchor="middle" x="727" y="-165" font-family="sans" font-size="10.00">infercnv</text>
<text text-anchor="middle" x="727" y="-154" font-family="sans" font-size="10.00">sample: CID4290A</text>
</g>
<!-- 14&#45;&gt;7 -->
<g id="edge14" class="edge"><title>14&#45;&gt;7</title>
<path fill="none" stroke="grey" stroke-width="2" d="M723.045,-143.697C721.282,-135.983 719.163,-126.712 717.197,-118.112"/>
<polygon fill="grey" stroke="grey" stroke-width="2" points="720.55,-117.073 714.91,-108.104 713.726,-118.633 720.55,-117.073"/>
</g>
</g>
</svg>
