<?xml version="1.0" encoding="UTF-8" standalone="no"?>
<!DOCTYPE svg PUBLIC "-//W3C//DTD SVG 1.1//EN"
 "http://www.w3.org/Graphics/SVG/1.1/DTD/svg11.dtd">
<!-- Generated by graphviz version 2.38.0 (20140413.2041)
 -->
<!-- Title: snakemake_dag Pages: 1 -->
<svg width="94pt" height="332pt"
 viewBox="0.00 0.00 94.00 332.00" xmlns="http://www.w3.org/2000/svg" xmlns:xlink="http://www.w3.org/1999/xlink">
<g id="graph0" class="graph" transform="scale(1 1) rotate(0) translate(4 328)">
<title>snakemake_dag</title>
<polygon fill="white" stroke="none" points="-4,4 -4,-328 90,-328 90,4 -4,4"/>
<!-- 0 -->
<g id="node1" class="node"><title>0</title>
<path fill="none" stroke="#c6d856" stroke-width="2" d="M58,-36C58,-36 28,-36 28,-36 22,-36 16,-30 16,-24 16,-24 16,-12 16,-12 16,-6 22,-0 28,-0 28,-0 58,-0 58,-0 64,-0 70,-6 70,-12 70,-12 70,-24 70,-24 70,-30 64,-36 58,-36"/>
<text text-anchor="middle" x="43" y="-15.5" font-family="sans" font-size="10.00">all</text>
</g>
<!-- 1 -->
<g id="node2" class="node"><title>1</title>
<path fill="none" stroke="#56d87b" stroke-width="2" d="M60.5,-108C60.5,-108 25.5,-108 25.5,-108 19.5,-108 13.5,-102 13.5,-96 13.5,-96 13.5,-84 13.5,-84 13.5,-78 19.5,-72 25.5,-72 25.5,-72 60.5,-72 60.5,-72 66.5,-72 72.5,-78 72.5,-84 72.5,-84 72.5,-96 72.5,-96 72.5,-102 66.5,-108 60.5,-108"/>
<text text-anchor="middle" x="43" y="-87.5" font-family="sans" font-size="10.00">CNV_plot</text>
</g>
<!-- 1&#45;&gt;0 -->
<g id="edge1" class="edge"><title>1&#45;&gt;0</title>
<path fill="none" stroke="grey" stroke-width="2" d="M43,-71.6966C43,-63.9827 43,-54.7125 43,-46.1124"/>
<polygon fill="grey" stroke="grey" stroke-width="2" points="46.5001,-46.1043 43,-36.1043 39.5001,-46.1044 46.5001,-46.1043"/>
</g>
<!-- 2 -->
<g id="node3" class="node"><title>2</title>
<path fill="none" stroke="#56d8c9" stroke-width="2" stroke-dasharray="5,2" d="M70,-180C70,-180 16,-180 16,-180 10,-180 4,-174 4,-168 4,-168 4,-156 4,-156 4,-150 10,-144 16,-144 16,-144 70,-144 70,-144 76,-144 82,-150 82,-156 82,-156 82,-168 82,-168 82,-174 76,-180 70,-180"/>
<text text-anchor="middle" x="43" y="-159.5" font-family="sans" font-size="10.00">CNV_infercnv</text>
</g>
<!-- 2&#45;&gt;1 -->
<g id="edge2" class="edge"><title>2&#45;&gt;1</title>
<path fill="none" stroke="grey" stroke-width="2" d="M43,-143.697C43,-135.983 43,-126.712 43,-118.112"/>
<polygon fill="grey" stroke="grey" stroke-width="2" points="46.5001,-118.104 43,-108.104 39.5001,-118.104 46.5001,-118.104"/>
</g>
<!-- 3 -->
<g id="node4" class="node"><title>3</title>
<path fill="none" stroke="#d8a456" stroke-width="2" stroke-dasharray="5,2" d="M74,-252C74,-252 12,-252 12,-252 6,-252 0,-246 0,-240 0,-240 0,-228 0,-228 0,-222 6,-216 12,-216 12,-216 74,-216 74,-216 80,-216 86,-222 86,-228 86,-228 86,-240 86,-240 86,-246 80,-252 74,-252"/>
<text text-anchor="middle" x="43" y="-237" font-family="sans" font-size="10.00">simulate_CNVs</text>
<text text-anchor="middle" x="43" y="-226" font-family="sans" font-size="10.00">sample: 1</text>
</g>
<!-- 3&#45;&gt;2 -->
<g id="edge3" class="edge"><title>3&#45;&gt;2</title>
<path fill="none" stroke="grey" stroke-width="2" d="M43,-215.697C43,-207.983 43,-198.712 43,-190.112"/>
<polygon fill="grey" stroke="grey" stroke-width="2" points="46.5001,-190.104 43,-180.104 39.5001,-190.104 46.5001,-190.104"/>
</g>
<!-- 4 -->
<g id="node5" class="node"><title>4</title>
<path fill="none" stroke="#78d856" stroke-width="2" stroke-dasharray="5,2" d="M74,-324C74,-324 12,-324 12,-324 6,-324 0,-318 0,-312 0,-312 0,-300 0,-300 0,-294 6,-288 12,-288 12,-288 74,-288 74,-288 80,-288 86,-294 86,-300 86,-300 86,-312 86,-312 86,-318 80,-324 74,-324"/>
<text text-anchor="middle" x="43" y="-303.5" font-family="sans" font-size="10.00">normal_infercnv</text>
</g>
<!-- 4&#45;&gt;3 -->
<g id="edge4" class="edge"><title>4&#45;&gt;3</title>
<path fill="none" stroke="grey" stroke-width="2" d="M43,-287.697C43,-279.983 43,-270.712 43,-262.112"/>
<polygon fill="grey" stroke="grey" stroke-width="2" points="46.5001,-262.104 43,-252.104 39.5001,-262.104 46.5001,-262.104"/>
</g>
</g>
</svg>
