<?xml version="1.0" encoding="UTF-8" standalone="no"?>
<!DOCTYPE svg PUBLIC "-//W3C//DTD SVG 1.1//EN"
 "http://www.w3.org/Graphics/SVG/1.1/DTD/svg11.dtd">
<!-- Generated by graphviz version 2.38.0 (20140413.2041)
 -->
<!-- Title: snakemake_dag Pages: 1 -->
<svg width="337pt" height="404pt"
 viewBox="0.00 0.00 336.50 404.00" xmlns="http://www.w3.org/2000/svg" xmlns:xlink="http://www.w3.org/1999/xlink">
<g id="graph0" class="graph" transform="scale(1 1) rotate(0) translate(4 400)">
<title>snakemake_dag</title>
<polygon fill="white" stroke="none" points="-4,4 -4,-400 332.5,-400 332.5,4 -4,4"/>
<!-- 0 -->
<g id="node1" class="node"><title>0</title>
<path fill="none" stroke="#56a9d8" stroke-width="2" d="M187.5,-36C187.5,-36 157.5,-36 157.5,-36 151.5,-36 145.5,-30 145.5,-24 145.5,-24 145.5,-12 145.5,-12 145.5,-6 151.5,-0 157.5,-0 157.5,-0 187.5,-0 187.5,-0 193.5,-0 199.5,-6 199.5,-12 199.5,-12 199.5,-24 199.5,-24 199.5,-30 193.5,-36 187.5,-36"/>
<text text-anchor="middle" x="172.5" y="-15.5" font-family="sans" font-size="10.00">all</text>
</g>
<!-- 1 -->
<g id="node2" class="node"><title>1</title>
<path fill="none" stroke="#80d856" stroke-width="2" d="M191,-108C191,-108 154,-108 154,-108 148,-108 142,-102 142,-96 142,-96 142,-84 142,-84 142,-78 148,-72 154,-72 154,-72 191,-72 191,-72 197,-72 203,-78 203,-84 203,-84 203,-96 203,-96 203,-102 197,-108 191,-108"/>
<text text-anchor="middle" x="172.5" y="-87.5" font-family="sans" font-size="10.00">final_plots</text>
</g>
<!-- 1&#45;&gt;0 -->
<g id="edge1" class="edge"><title>1&#45;&gt;0</title>
<path fill="none" stroke="grey" stroke-width="2" d="M172.5,-71.6966C172.5,-63.9827 172.5,-54.7125 172.5,-46.1124"/>
<polygon fill="grey" stroke="grey" stroke-width="2" points="176,-46.1043 172.5,-36.1043 169,-46.1044 176,-46.1043"/>
</g>
<!-- 2 -->
<g id="node3" class="node"><title>2</title>
<path fill="none" stroke="#59d856" stroke-width="2" d="M95,-180C95,-180 42,-180 42,-180 36,-180 30,-174 30,-168 30,-168 30,-156 30,-156 30,-150 36,-144 42,-144 42,-144 95,-144 95,-144 101,-144 107,-150 107,-156 107,-156 107,-168 107,-168 107,-174 101,-180 95,-180"/>
<text text-anchor="middle" x="68.5" y="-159.5" font-family="sans" font-size="10.00">loss_gap_plot</text>
</g>
<!-- 2&#45;&gt;1 -->
<g id="edge2" class="edge"><title>2&#45;&gt;1</title>
<path fill="none" stroke="grey" stroke-width="2" d="M93.9413,-143.876C107.287,-134.893 123.824,-123.763 138.278,-114.034"/>
<polygon fill="grey" stroke="grey" stroke-width="2" points="140.619,-116.677 146.961,-108.19 136.711,-110.87 140.619,-116.677"/>
</g>
<!-- 3 -->
<g id="node4" class="node"><title>3</title>
<path fill="none" stroke="#56d8a9" stroke-width="2" stroke-dasharray="5,2" d="M199,-180C199,-180 146,-180 146,-180 140,-180 134,-174 134,-168 134,-168 134,-156 134,-156 134,-150 140,-144 146,-144 146,-144 199,-144 199,-144 205,-144 211,-150 211,-156 211,-156 211,-168 211,-168 211,-174 205,-180 199,-180"/>
<text text-anchor="middle" x="172.5" y="-159.5" font-family="sans" font-size="10.00">gain_gap_plot</text>
</g>
<!-- 3&#45;&gt;1 -->
<g id="edge3" class="edge"><title>3&#45;&gt;1</title>
<path fill="none" stroke="grey" stroke-width="2" d="M172.5,-143.697C172.5,-135.983 172.5,-126.712 172.5,-118.112"/>
<polygon fill="grey" stroke="grey" stroke-width="2" points="176,-118.104 172.5,-108.104 169,-118.104 176,-118.104"/>
</g>
<!-- 4 -->
<g id="node5" class="node"><title>4</title>
<path fill="none" stroke="#d85656" stroke-width="2" stroke-dasharray="5,2" d="M285,-180C285,-180 250,-180 250,-180 244,-180 238,-174 238,-168 238,-168 238,-156 238,-156 238,-150 244,-144 250,-144 250,-144 285,-144 285,-144 291,-144 297,-150 297,-156 297,-156 297,-168 297,-168 297,-174 291,-180 285,-180"/>
<text text-anchor="middle" x="267.5" y="-159.5" font-family="sans" font-size="10.00">CNV_plot</text>
</g>
<!-- 4&#45;&gt;1 -->
<g id="edge4" class="edge"><title>4&#45;&gt;1</title>
<path fill="none" stroke="grey" stroke-width="2" d="M244.017,-143.697C231.937,-134.796 217.046,-123.823 203.984,-114.199"/>
<polygon fill="grey" stroke="grey" stroke-width="2" points="205.84,-111.219 195.713,-108.104 201.687,-116.854 205.84,-111.219"/>
</g>
<!-- 5 -->
<g id="node6" class="node"><title>5</title>
<path fill="none" stroke="#5682d8" stroke-width="2" stroke-dasharray="5,2" d="M91,-252C91,-252 20,-252 20,-252 14,-252 8,-246 8,-240 8,-240 8,-228 8,-228 8,-222 14,-216 20,-216 20,-216 91,-216 91,-216 97,-216 103,-222 103,-228 103,-228 103,-240 103,-240 103,-246 97,-252 91,-252"/>
<text text-anchor="middle" x="55.5" y="-231.5" font-family="sans" font-size="10.00">loss_gap_infercnv</text>
</g>
<!-- 5&#45;&gt;2 -->
<g id="edge5" class="edge"><title>5&#45;&gt;2</title>
<path fill="none" stroke="grey" stroke-width="2" d="M58.7135,-215.697C60.1461,-207.983 61.8677,-198.712 63.4648,-190.112"/>
<polygon fill="grey" stroke="grey" stroke-width="2" points="66.9386,-190.575 65.3235,-180.104 60.0563,-189.297 66.9386,-190.575"/>
</g>
<!-- 6 -->
<g id="node7" class="node"><title>6</title>
<path fill="none" stroke="#d6d856" stroke-width="2" stroke-dasharray="5,2" d="M208,-252C208,-252 137,-252 137,-252 131,-252 125,-246 125,-240 125,-240 125,-228 125,-228 125,-222 131,-216 137,-216 137,-216 208,-216 208,-216 214,-216 220,-222 220,-228 220,-228 220,-240 220,-240 220,-246 214,-252 208,-252"/>
<text text-anchor="middle" x="172.5" y="-231.5" font-family="sans" font-size="10.00">gain_gap_infercnv</text>
</g>
<!-- 6&#45;&gt;3 -->
<g id="edge6" class="edge"><title>6&#45;&gt;3</title>
<path fill="none" stroke="grey" stroke-width="2" d="M172.5,-215.697C172.5,-207.983 172.5,-198.712 172.5,-190.112"/>
<polygon fill="grey" stroke="grey" stroke-width="2" points="176,-190.104 172.5,-180.104 169,-190.104 176,-190.104"/>
</g>
<!-- 7 -->
<g id="node8" class="node"><title>7</title>
<path fill="none" stroke="#56d8d8" stroke-width="2" stroke-dasharray="5,2" d="M308.5,-252C308.5,-252 254.5,-252 254.5,-252 248.5,-252 242.5,-246 242.5,-240 242.5,-240 242.5,-228 242.5,-228 242.5,-222 248.5,-216 254.5,-216 254.5,-216 308.5,-216 308.5,-216 314.5,-216 320.5,-222 320.5,-228 320.5,-228 320.5,-240 320.5,-240 320.5,-246 314.5,-252 308.5,-252"/>
<text text-anchor="middle" x="281.5" y="-231.5" font-family="sans" font-size="10.00">CNV_infercnv</text>
</g>
<!-- 7&#45;&gt;4 -->
<g id="edge7" class="edge"><title>7&#45;&gt;4</title>
<path fill="none" stroke="grey" stroke-width="2" d="M278.039,-215.697C276.497,-207.983 274.642,-198.712 272.922,-190.112"/>
<polygon fill="grey" stroke="grey" stroke-width="2" points="276.314,-189.224 270.921,-180.104 269.45,-190.597 276.314,-189.224"/>
</g>
<!-- 8 -->
<g id="node9" class="node"><title>8</title>
<path fill="none" stroke="#56d882" stroke-width="2" stroke-dasharray="5,2" d="M91,-324C91,-324 12,-324 12,-324 6,-324 0,-318 0,-312 0,-312 0,-300 0,-300 0,-294 6,-288 12,-288 12,-288 91,-288 91,-288 97,-288 103,-294 103,-300 103,-300 103,-312 103,-312 103,-318 97,-324 91,-324"/>
<text text-anchor="middle" x="51.5" y="-309" font-family="sans" font-size="10.00">simulate_loss_gaps</text>
<text text-anchor="middle" x="51.5" y="-298" font-family="sans" font-size="10.00">sample: 4</text>
</g>
<!-- 8&#45;&gt;5 -->
<g id="edge8" class="edge"><title>8&#45;&gt;5</title>
<path fill="none" stroke="grey" stroke-width="2" d="M52.4888,-287.697C52.9296,-279.983 53.4593,-270.712 53.9507,-262.112"/>
<polygon fill="grey" stroke="grey" stroke-width="2" points="57.4463,-262.288 54.5226,-252.104 50.4577,-261.888 57.4463,-262.288"/>
</g>
<!-- 9 -->
<g id="node10" class="node"><title>9</title>
<path fill="none" stroke="#d8ac56" stroke-width="2" stroke-dasharray="5,2" d="M212,-324C212,-324 133,-324 133,-324 127,-324 121,-318 121,-312 121,-312 121,-300 121,-300 121,-294 127,-288 133,-288 133,-288 212,-288 212,-288 218,-288 224,-294 224,-300 224,-300 224,-312 224,-312 224,-318 218,-324 212,-324"/>
<text text-anchor="middle" x="172.5" y="-309" font-family="sans" font-size="10.00">simulate_gain_gaps</text>
<text text-anchor="middle" x="172.5" y="-298" font-family="sans" font-size="10.00">sample: 4</text>
</g>
<!-- 9&#45;&gt;6 -->
<g id="edge9" class="edge"><title>9&#45;&gt;6</title>
<path fill="none" stroke="grey" stroke-width="2" d="M172.5,-287.697C172.5,-279.983 172.5,-270.712 172.5,-262.112"/>
<polygon fill="grey" stroke="grey" stroke-width="2" points="176,-262.104 172.5,-252.104 169,-262.104 176,-262.104"/>
</g>
<!-- 10 -->
<g id="node11" class="node"><title>10</title>
<path fill="none" stroke="#d88556" stroke-width="2" stroke-dasharray="5,2" d="M316.5,-324C316.5,-324 254.5,-324 254.5,-324 248.5,-324 242.5,-318 242.5,-312 242.5,-312 242.5,-300 242.5,-300 242.5,-294 248.5,-288 254.5,-288 254.5,-288 316.5,-288 316.5,-288 322.5,-288 328.5,-294 328.5,-300 328.5,-300 328.5,-312 328.5,-312 328.5,-318 322.5,-324 316.5,-324"/>
<text text-anchor="middle" x="285.5" y="-309" font-family="sans" font-size="10.00">simulate_CNVs</text>
<text text-anchor="middle" x="285.5" y="-298" font-family="sans" font-size="10.00">sample: 4</text>
</g>
<!-- 10&#45;&gt;7 -->
<g id="edge10" class="edge"><title>10&#45;&gt;7</title>
<path fill="none" stroke="grey" stroke-width="2" d="M284.511,-287.697C284.07,-279.983 283.541,-270.712 283.049,-262.112"/>
<polygon fill="grey" stroke="grey" stroke-width="2" points="286.542,-261.888 282.477,-252.104 279.554,-262.288 286.542,-261.888"/>
</g>
<!-- 11 -->
<g id="node12" class="node"><title>11</title>
<path fill="none" stroke="#afd856" stroke-width="2" stroke-dasharray="5,2" d="M203.5,-396C203.5,-396 141.5,-396 141.5,-396 135.5,-396 129.5,-390 129.5,-384 129.5,-384 129.5,-372 129.5,-372 129.5,-366 135.5,-360 141.5,-360 141.5,-360 203.5,-360 203.5,-360 209.5,-360 215.5,-366 215.5,-372 215.5,-372 215.5,-384 215.5,-384 215.5,-390 209.5,-396 203.5,-396"/>
<text text-anchor="middle" x="172.5" y="-375.5" font-family="sans" font-size="10.00">normal_infercnv</text>
</g>
<!-- 11&#45;&gt;8 -->
<g id="edge11" class="edge"><title>11&#45;&gt;8</title>
<path fill="none" stroke="grey" stroke-width="2" d="M142.9,-359.876C126.933,-350.639 107.04,-339.131 89.8943,-329.212"/>
<polygon fill="grey" stroke="grey" stroke-width="2" points="91.6223,-326.168 81.2137,-324.19 88.117,-332.227 91.6223,-326.168"/>
</g>
<!-- 11&#45;&gt;9 -->
<g id="edge12" class="edge"><title>11&#45;&gt;9</title>
<path fill="none" stroke="grey" stroke-width="2" d="M172.5,-359.697C172.5,-351.983 172.5,-342.712 172.5,-334.112"/>
<polygon fill="grey" stroke="grey" stroke-width="2" points="176,-334.104 172.5,-324.104 169,-334.104 176,-334.104"/>
</g>
<!-- 11&#45;&gt;10 -->
<g id="edge13" class="edge"><title>11&#45;&gt;10</title>
<path fill="none" stroke="grey" stroke-width="2" d="M200.143,-359.876C214.918,-350.724 233.291,-339.342 249.203,-329.485"/>
<polygon fill="grey" stroke="grey" stroke-width="2" points="251.093,-332.431 257.751,-324.19 247.407,-326.481 251.093,-332.431"/>
</g>
</g>
</svg>
