<?xml version="1.0" encoding="UTF-8" standalone="no"?>
<!DOCTYPE svg PUBLIC "-//W3C//DTD SVG 1.1//EN"
 "http://www.w3.org/Graphics/SVG/1.1/DTD/svg11.dtd">
<!-- Generated by graphviz version 2.38.0 (20140413.2041)
 -->
<!-- Title: snakemake_dag Pages: 1 -->
<svg width="3110pt" height="404pt"
 viewBox="0.00 0.00 3110.00 404.00" xmlns="http://www.w3.org/2000/svg" xmlns:xlink="http://www.w3.org/1999/xlink">
<g id="graph0" class="graph" transform="scale(1 1) rotate(0) translate(4 400)">
<title>snakemake_dag</title>
<polygon fill="white" stroke="none" points="-4,4 -4,-400 3106,-400 3106,4 -4,4"/>
<!-- 0 -->
<g id="node1" class="node"><title>0</title>
<path fill="none" stroke="#bed856" stroke-width="2" d="M1564,-36C1564,-36 1534,-36 1534,-36 1528,-36 1522,-30 1522,-24 1522,-24 1522,-12 1522,-12 1522,-6 1528,-0 1534,-0 1534,-0 1564,-0 1564,-0 1570,-0 1576,-6 1576,-12 1576,-12 1576,-24 1576,-24 1576,-30 1570,-36 1564,-36"/>
<text text-anchor="middle" x="1549" y="-15.5" font-family="sans" font-size="10.00">all</text>
</g>
<!-- 1 -->
<g id="node2" class="node"><title>1</title>
<path fill="none" stroke="#56d8c1" stroke-width="2" d="M1567.5,-108C1567.5,-108 1530.5,-108 1530.5,-108 1524.5,-108 1518.5,-102 1518.5,-96 1518.5,-96 1518.5,-84 1518.5,-84 1518.5,-78 1524.5,-72 1530.5,-72 1530.5,-72 1567.5,-72 1567.5,-72 1573.5,-72 1579.5,-78 1579.5,-84 1579.5,-84 1579.5,-96 1579.5,-96 1579.5,-102 1573.5,-108 1567.5,-108"/>
<text text-anchor="middle" x="1549" y="-87.5" font-family="sans" font-size="10.00">final_plots</text>
</g>
<!-- 1&#45;&gt;0 -->
<g id="edge1" class="edge"><title>1&#45;&gt;0</title>
<path fill="none" stroke="grey" stroke-width="2" d="M1549,-71.6966C1549,-63.9827 1549,-54.7125 1549,-46.1124"/>
<polygon fill="grey" stroke="grey" stroke-width="2" points="1552.5,-46.1043 1549,-36.1043 1545.5,-46.1044 1552.5,-46.1043"/>
</g>
<!-- 2 -->
<g id="node3" class="node"><title>2</title>
<path fill="none" stroke="#d85656" stroke-width="2" d="M82.5,-180C82.5,-180 47.5,-180 47.5,-180 41.5,-180 35.5,-174 35.5,-168 35.5,-168 35.5,-156 35.5,-156 35.5,-150 41.5,-144 47.5,-144 47.5,-144 82.5,-144 82.5,-144 88.5,-144 94.5,-150 94.5,-156 94.5,-156 94.5,-168 94.5,-168 94.5,-174 88.5,-180 82.5,-180"/>
<text text-anchor="middle" x="65" y="-159.5" font-family="sans" font-size="10.00">CNV_plot</text>
</g>
<!-- 2&#45;&gt;1 -->
<g id="edge2" class="edge"><title>2&#45;&gt;1</title>
<path fill="none" stroke="grey" stroke-width="2" d="M94.5623,-149.569C101.497,-147.331 108.929,-145.282 116,-144 393.806,-93.6315 1304.24,-90.9112 1508.21,-90.9456"/>
<polygon fill="grey" stroke="grey" stroke-width="2" points="1508.47,-94.4456 1518.47,-90.9498 1508.47,-87.4456 1508.47,-94.4456"/>
</g>
<!-- 3 -->
<g id="node4" class="node"><title>3</title>
<path fill="none" stroke="#d85656" stroke-width="2" d="M172.5,-180C172.5,-180 137.5,-180 137.5,-180 131.5,-180 125.5,-174 125.5,-168 125.5,-168 125.5,-156 125.5,-156 125.5,-150 131.5,-144 137.5,-144 137.5,-144 172.5,-144 172.5,-144 178.5,-144 184.5,-150 184.5,-156 184.5,-156 184.5,-168 184.5,-168 184.5,-174 178.5,-180 172.5,-180"/>
<text text-anchor="middle" x="155" y="-159.5" font-family="sans" font-size="10.00">CNV_plot</text>
</g>
<!-- 3&#45;&gt;1 -->
<g id="edge3" class="edge"><title>3&#45;&gt;1</title>
<path fill="none" stroke="grey" stroke-width="2" d="M184.611,-158.309C225.73,-154.648 302.466,-148.084 368,-144 814.595,-116.166 1357.07,-97.3009 1508.21,-92.3157"/>
<polygon fill="grey" stroke="grey" stroke-width="2" points="1508.53,-95.8072 1518.41,-91.9809 1508.3,-88.811 1508.53,-95.8072"/>
</g>
<!-- 4 -->
<g id="node5" class="node"><title>4</title>
<path fill="none" stroke="#d85656" stroke-width="2" d="M424.5,-180C424.5,-180 389.5,-180 389.5,-180 383.5,-180 377.5,-174 377.5,-168 377.5,-168 377.5,-156 377.5,-156 377.5,-150 383.5,-144 389.5,-144 389.5,-144 424.5,-144 424.5,-144 430.5,-144 436.5,-150 436.5,-156 436.5,-156 436.5,-168 436.5,-168 436.5,-174 430.5,-180 424.5,-180"/>
<text text-anchor="middle" x="407" y="-159.5" font-family="sans" font-size="10.00">CNV_plot</text>
</g>
<!-- 4&#45;&gt;1 -->
<g id="edge4" class="edge"><title>4&#45;&gt;1</title>
<path fill="none" stroke="grey" stroke-width="2" d="M436.707,-156.292C462.19,-152.421 499.924,-147.089 533,-144 910.933,-108.707 1370.31,-95.3194 1508.07,-91.9305"/>
<polygon fill="grey" stroke="grey" stroke-width="2" points="1508.26,-95.427 1518.18,-91.6858 1508.09,-88.429 1508.26,-95.427"/>
</g>
<!-- 5 -->
<g id="node6" class="node"><title>5</title>
<path fill="none" stroke="#d85656" stroke-width="2" d="M589.5,-180C589.5,-180 554.5,-180 554.5,-180 548.5,-180 542.5,-174 542.5,-168 542.5,-168 542.5,-156 542.5,-156 542.5,-150 548.5,-144 554.5,-144 554.5,-144 589.5,-144 589.5,-144 595.5,-144 601.5,-150 601.5,-156 601.5,-156 601.5,-168 601.5,-168 601.5,-174 595.5,-180 589.5,-180"/>
<text text-anchor="middle" x="572" y="-159.5" font-family="sans" font-size="10.00">CNV_plot</text>
</g>
<!-- 5&#45;&gt;1 -->
<g id="edge5" class="edge"><title>5&#45;&gt;1</title>
<path fill="none" stroke="grey" stroke-width="2" d="M601.811,-153.732C617.288,-150.236 636.561,-146.312 654,-144 981.561,-100.581 1381.3,-92.7266 1508.27,-91.3103"/>
<polygon fill="grey" stroke="grey" stroke-width="2" points="1508.36,-94.8096 1518.32,-91.2055 1508.29,-87.81 1508.36,-94.8096"/>
</g>
<!-- 6 -->
<g id="node7" class="node"><title>6</title>
<path fill="none" stroke="#d85656" stroke-width="2" d="M710.5,-180C710.5,-180 675.5,-180 675.5,-180 669.5,-180 663.5,-174 663.5,-168 663.5,-168 663.5,-156 663.5,-156 663.5,-150 669.5,-144 675.5,-144 675.5,-144 710.5,-144 710.5,-144 716.5,-144 722.5,-150 722.5,-156 722.5,-156 722.5,-168 722.5,-168 722.5,-174 716.5,-180 710.5,-180"/>
<text text-anchor="middle" x="693" y="-159.5" font-family="sans" font-size="10.00">CNV_plot</text>
</g>
<!-- 6&#45;&gt;1 -->
<g id="edge6" class="edge"><title>6&#45;&gt;1</title>
<path fill="none" stroke="grey" stroke-width="2" d="M722.625,-151.277C732.218,-148.488 742.972,-145.735 753,-144 1039.15,-94.5006 1390.53,-90.5313 1508.34,-90.7157"/>
<polygon fill="grey" stroke="grey" stroke-width="2" points="1508.35,-94.2156 1518.36,-90.7426 1508.37,-87.2157 1508.35,-94.2156"/>
</g>
<!-- 7 -->
<g id="node8" class="node"><title>7</title>
<path fill="none" stroke="#d85656" stroke-width="2" stroke-dasharray="5,2" d="M809.5,-180C809.5,-180 774.5,-180 774.5,-180 768.5,-180 762.5,-174 762.5,-168 762.5,-168 762.5,-156 762.5,-156 762.5,-150 768.5,-144 774.5,-144 774.5,-144 809.5,-144 809.5,-144 815.5,-144 821.5,-150 821.5,-156 821.5,-156 821.5,-168 821.5,-168 821.5,-174 815.5,-180 809.5,-180"/>
<text text-anchor="middle" x="792" y="-159.5" font-family="sans" font-size="10.00">CNV_plot</text>
</g>
<!-- 7&#45;&gt;1 -->
<g id="edge7" class="edge"><title>7&#45;&gt;1</title>
<path fill="none" stroke="grey" stroke-width="2" d="M821.714,-149.317C827.998,-147.236 834.652,-145.316 841,-144 1090.38,-92.3219 1398.42,-89.538 1507.97,-90.3868"/>
<polygon fill="grey" stroke="grey" stroke-width="2" points="1508.21,-93.8891 1518.25,-90.482 1508.28,-86.8894 1508.21,-93.8891"/>
</g>
<!-- 8 -->
<g id="node9" class="node"><title>8</title>
<path fill="none" stroke="#d85656" stroke-width="2" d="M897.5,-180C897.5,-180 862.5,-180 862.5,-180 856.5,-180 850.5,-174 850.5,-168 850.5,-168 850.5,-156 850.5,-156 850.5,-150 856.5,-144 862.5,-144 862.5,-144 897.5,-144 897.5,-144 903.5,-144 909.5,-150 909.5,-156 909.5,-156 909.5,-168 909.5,-168 909.5,-174 903.5,-180 897.5,-180"/>
<text text-anchor="middle" x="880" y="-159.5" font-family="sans" font-size="10.00">CNV_plot</text>
</g>
<!-- 8&#45;&gt;1 -->
<g id="edge8" class="edge"><title>8&#45;&gt;1</title>
<path fill="none" stroke="grey" stroke-width="2" d="M909.714,-147.965C914.104,-146.418 918.623,-145.027 923,-144 1139.14,-93.2843 1407.32,-89.711 1508.15,-90.3759"/>
<polygon fill="grey" stroke="grey" stroke-width="2" points="1508.19,-93.8762 1518.21,-90.4605 1508.24,-86.8765 1508.19,-93.8762"/>
</g>
<!-- 9 -->
<g id="node10" class="node"><title>9</title>
<path fill="none" stroke="#d85656" stroke-width="2" d="M979.5,-180C979.5,-180 944.5,-180 944.5,-180 938.5,-180 932.5,-174 932.5,-168 932.5,-168 932.5,-156 932.5,-156 932.5,-150 938.5,-144 944.5,-144 944.5,-144 979.5,-144 979.5,-144 985.5,-144 991.5,-150 991.5,-156 991.5,-156 991.5,-168 991.5,-168 991.5,-174 985.5,-180 979.5,-180"/>
<text text-anchor="middle" x="962" y="-159.5" font-family="sans" font-size="10.00">CNV_plot</text>
</g>
<!-- 9&#45;&gt;1 -->
<g id="edge9" class="edge"><title>9&#45;&gt;1</title>
<path fill="none" stroke="grey" stroke-width="2" d="M991.658,-147.507C995.42,-146.152 999.262,-144.934 1003,-144 1187.42,-97.9085 1416.17,-91.4714 1508.02,-90.8724"/>
<polygon fill="grey" stroke="grey" stroke-width="2" points="1508.29,-94.3713 1518.28,-90.8266 1508.26,-87.3714 1508.29,-94.3713"/>
</g>
<!-- 10 -->
<g id="node11" class="node"><title>10</title>
<path fill="none" stroke="#d85656" stroke-width="2" d="M1059.5,-180C1059.5,-180 1024.5,-180 1024.5,-180 1018.5,-180 1012.5,-174 1012.5,-168 1012.5,-168 1012.5,-156 1012.5,-156 1012.5,-150 1018.5,-144 1024.5,-144 1024.5,-144 1059.5,-144 1059.5,-144 1065.5,-144 1071.5,-150 1071.5,-156 1071.5,-156 1071.5,-168 1071.5,-168 1071.5,-174 1065.5,-180 1059.5,-180"/>
<text text-anchor="middle" x="1042" y="-159.5" font-family="sans" font-size="10.00">CNV_plot</text>
</g>
<!-- 10&#45;&gt;1 -->
<g id="edge10" class="edge"><title>10&#45;&gt;1</title>
<path fill="none" stroke="grey" stroke-width="2" d="M1071.91,-146.907C1074.94,-145.801 1078,-144.803 1081,-144 1234.98,-102.723 1425.85,-93.5771 1508.12,-91.5625"/>
<polygon fill="grey" stroke="grey" stroke-width="2" points="1508.38,-95.0577 1518.3,-91.3366 1508.23,-88.0594 1508.38,-95.0577"/>
</g>
<!-- 11 -->
<g id="node12" class="node"><title>11</title>
<path fill="none" stroke="#d85656" stroke-width="2" d="M1137.5,-180C1137.5,-180 1102.5,-180 1102.5,-180 1096.5,-180 1090.5,-174 1090.5,-168 1090.5,-168 1090.5,-156 1090.5,-156 1090.5,-150 1096.5,-144 1102.5,-144 1102.5,-144 1137.5,-144 1137.5,-144 1143.5,-144 1149.5,-150 1149.5,-156 1149.5,-156 1149.5,-168 1149.5,-168 1149.5,-174 1143.5,-180 1137.5,-180"/>
<text text-anchor="middle" x="1120" y="-159.5" font-family="sans" font-size="10.00">CNV_plot</text>
</g>
<!-- 11&#45;&gt;1 -->
<g id="edge11" class="edge"><title>11&#45;&gt;1</title>
<path fill="none" stroke="grey" stroke-width="2" d="M1149.5,-147.137C1152.66,-145.954 1155.87,-144.876 1159,-144 1283.08,-109.251 1435.97,-96.9373 1507.91,-92.8616"/>
<polygon fill="grey" stroke="grey" stroke-width="2" points="1508.53,-96.3328 1518.33,-92.2971 1508.15,-89.343 1508.53,-96.3328"/>
</g>
<!-- 12 -->
<g id="node13" class="node"><title>12</title>
<path fill="none" stroke="#d85656" stroke-width="2" d="M1215.5,-180C1215.5,-180 1180.5,-180 1180.5,-180 1174.5,-180 1168.5,-174 1168.5,-168 1168.5,-168 1168.5,-156 1168.5,-156 1168.5,-150 1174.5,-144 1180.5,-144 1180.5,-144 1215.5,-144 1215.5,-144 1221.5,-144 1227.5,-150 1227.5,-156 1227.5,-156 1227.5,-168 1227.5,-168 1227.5,-174 1221.5,-180 1215.5,-180"/>
<text text-anchor="middle" x="1198" y="-159.5" font-family="sans" font-size="10.00">CNV_plot</text>
</g>
<!-- 12&#45;&gt;1 -->
<g id="edge12" class="edge"><title>12&#45;&gt;1</title>
<path fill="none" stroke="grey" stroke-width="2" d="M1227.6,-146.906C1230.4,-145.83 1233.23,-144.838 1236,-144 1331.04,-115.204 1447.35,-100.688 1507.91,-94.6154"/>
<polygon fill="grey" stroke="grey" stroke-width="2" points="1508.58,-98.0663 1518.2,-93.6117 1507.9,-91.0993 1508.58,-98.0663"/>
</g>
<!-- 13 -->
<g id="node14" class="node"><title>13</title>
<path fill="none" stroke="#d85656" stroke-width="2" d="M1292.5,-180C1292.5,-180 1257.5,-180 1257.5,-180 1251.5,-180 1245.5,-174 1245.5,-168 1245.5,-168 1245.5,-156 1245.5,-156 1245.5,-150 1251.5,-144 1257.5,-144 1257.5,-144 1292.5,-144 1292.5,-144 1298.5,-144 1304.5,-150 1304.5,-156 1304.5,-156 1304.5,-168 1304.5,-168 1304.5,-174 1298.5,-180 1292.5,-180"/>
<text text-anchor="middle" x="1275" y="-159.5" font-family="sans" font-size="10.00">CNV_plot</text>
</g>
<!-- 13&#45;&gt;1 -->
<g id="edge13" class="edge"><title>13&#45;&gt;1</title>
<path fill="none" stroke="grey" stroke-width="2" d="M1304.65,-147.062C1307.44,-145.953 1310.26,-144.912 1313,-144 1380.01,-121.734 1460.82,-105.851 1508.38,-97.5731"/>
<polygon fill="grey" stroke="grey" stroke-width="2" points="1509.03,-101.013 1518.3,-95.8742 1507.85,-94.1135 1509.03,-101.013"/>
</g>
<!-- 14 -->
<g id="node15" class="node"><title>14</title>
<path fill="none" stroke="#d85656" stroke-width="2" d="M1369.5,-180C1369.5,-180 1334.5,-180 1334.5,-180 1328.5,-180 1322.5,-174 1322.5,-168 1322.5,-168 1322.5,-156 1322.5,-156 1322.5,-150 1328.5,-144 1334.5,-144 1334.5,-144 1369.5,-144 1369.5,-144 1375.5,-144 1381.5,-150 1381.5,-156 1381.5,-156 1381.5,-168 1381.5,-168 1381.5,-174 1375.5,-180 1369.5,-180"/>
<text text-anchor="middle" x="1352" y="-159.5" font-family="sans" font-size="10.00">CNV_plot</text>
</g>
<!-- 14&#45;&gt;1 -->
<g id="edge14" class="edge"><title>14&#45;&gt;1</title>
<path fill="none" stroke="grey" stroke-width="2" d="M1381.75,-147.355C1384.53,-146.185 1387.31,-145.049 1390,-144 1429.93,-128.456 1476.54,-113.257 1508.93,-103.15"/>
<polygon fill="grey" stroke="grey" stroke-width="2" points="1509.98,-106.487 1518.5,-100.182 1507.91,-99.8006 1509.98,-106.487"/>
</g>
<!-- 15 -->
<g id="node16" class="node"><title>15</title>
<path fill="none" stroke="#d85656" stroke-width="2" d="M1446.5,-180C1446.5,-180 1411.5,-180 1411.5,-180 1405.5,-180 1399.5,-174 1399.5,-168 1399.5,-168 1399.5,-156 1399.5,-156 1399.5,-150 1405.5,-144 1411.5,-144 1411.5,-144 1446.5,-144 1446.5,-144 1452.5,-144 1458.5,-150 1458.5,-156 1458.5,-156 1458.5,-168 1458.5,-168 1458.5,-174 1452.5,-180 1446.5,-180"/>
<text text-anchor="middle" x="1429" y="-159.5" font-family="sans" font-size="10.00">CNV_plot</text>
</g>
<!-- 15&#45;&gt;1 -->
<g id="edge15" class="edge"><title>15&#45;&gt;1</title>
<path fill="none" stroke="grey" stroke-width="2" d="M1458.36,-143.876C1474.05,-134.724 1493.56,-123.342 1510.45,-113.485"/>
<polygon fill="grey" stroke="grey" stroke-width="2" points="1512.66,-116.252 1519.53,-108.19 1509.13,-110.205 1512.66,-116.252"/>
</g>
<!-- 16 -->
<g id="node17" class="node"><title>16</title>
<path fill="none" stroke="#d85656" stroke-width="2" d="M1523.5,-180C1523.5,-180 1488.5,-180 1488.5,-180 1482.5,-180 1476.5,-174 1476.5,-168 1476.5,-168 1476.5,-156 1476.5,-156 1476.5,-150 1482.5,-144 1488.5,-144 1488.5,-144 1523.5,-144 1523.5,-144 1529.5,-144 1535.5,-150 1535.5,-156 1535.5,-156 1535.5,-168 1535.5,-168 1535.5,-174 1529.5,-180 1523.5,-180"/>
<text text-anchor="middle" x="1506" y="-159.5" font-family="sans" font-size="10.00">CNV_plot</text>
</g>
<!-- 16&#45;&gt;1 -->
<g id="edge16" class="edge"><title>16&#45;&gt;1</title>
<path fill="none" stroke="grey" stroke-width="2" d="M1516.63,-143.697C1521.63,-135.559 1527.69,-125.689 1533.21,-116.701"/>
<polygon fill="grey" stroke="grey" stroke-width="2" points="1536.24,-118.457 1538.49,-108.104 1530.28,-114.793 1536.24,-118.457"/>
</g>
<!-- 17 -->
<g id="node18" class="node"><title>17</title>
<path fill="none" stroke="#d85656" stroke-width="2" d="M1609.5,-180C1609.5,-180 1574.5,-180 1574.5,-180 1568.5,-180 1562.5,-174 1562.5,-168 1562.5,-168 1562.5,-156 1562.5,-156 1562.5,-150 1568.5,-144 1574.5,-144 1574.5,-144 1609.5,-144 1609.5,-144 1615.5,-144 1621.5,-150 1621.5,-156 1621.5,-156 1621.5,-168 1621.5,-168 1621.5,-174 1615.5,-180 1609.5,-180"/>
<text text-anchor="middle" x="1592" y="-159.5" font-family="sans" font-size="10.00">CNV_plot</text>
</g>
<!-- 17&#45;&gt;1 -->
<g id="edge17" class="edge"><title>17&#45;&gt;1</title>
<path fill="none" stroke="grey" stroke-width="2" d="M1581.37,-143.697C1576.37,-135.559 1570.31,-125.689 1564.79,-116.701"/>
<polygon fill="grey" stroke="grey" stroke-width="2" points="1567.72,-114.793 1559.51,-108.104 1561.76,-118.457 1567.72,-114.793"/>
</g>
<!-- 18 -->
<g id="node19" class="node"><title>18</title>
<path fill="none" stroke="#d85656" stroke-width="2" d="M1700.5,-180C1700.5,-180 1665.5,-180 1665.5,-180 1659.5,-180 1653.5,-174 1653.5,-168 1653.5,-168 1653.5,-156 1653.5,-156 1653.5,-150 1659.5,-144 1665.5,-144 1665.5,-144 1700.5,-144 1700.5,-144 1706.5,-144 1712.5,-150 1712.5,-156 1712.5,-156 1712.5,-168 1712.5,-168 1712.5,-174 1706.5,-180 1700.5,-180"/>
<text text-anchor="middle" x="1683" y="-159.5" font-family="sans" font-size="10.00">CNV_plot</text>
</g>
<!-- 18&#45;&gt;1 -->
<g id="edge18" class="edge"><title>18&#45;&gt;1</title>
<path fill="none" stroke="grey" stroke-width="2" d="M1653.26,-145.465C1634.19,-135.5 1609.2,-122.449 1588.47,-111.621"/>
<polygon fill="grey" stroke="grey" stroke-width="2" points="1590.07,-108.505 1579.58,-106.977 1586.83,-114.71 1590.07,-108.505"/>
</g>
<!-- 19 -->
<g id="node20" class="node"><title>19</title>
<path fill="none" stroke="#d85656" stroke-width="2" d="M1794.5,-180C1794.5,-180 1759.5,-180 1759.5,-180 1753.5,-180 1747.5,-174 1747.5,-168 1747.5,-168 1747.5,-156 1747.5,-156 1747.5,-150 1753.5,-144 1759.5,-144 1759.5,-144 1794.5,-144 1794.5,-144 1800.5,-144 1806.5,-150 1806.5,-156 1806.5,-156 1806.5,-168 1806.5,-168 1806.5,-174 1800.5,-180 1794.5,-180"/>
<text text-anchor="middle" x="1777" y="-159.5" font-family="sans" font-size="10.00">CNV_plot</text>
</g>
<!-- 19&#45;&gt;1 -->
<g id="edge19" class="edge"><title>19&#45;&gt;1</title>
<path fill="none" stroke="grey" stroke-width="2" d="M1747.32,-151.811C1739.12,-149.276 1730.21,-146.528 1722,-144 1676.64,-130.041 1624.56,-114.098 1589.5,-103.375"/>
<polygon fill="grey" stroke="grey" stroke-width="2" points="1590.22,-99.9362 1579.63,-100.359 1588.17,-106.63 1590.22,-99.9362"/>
</g>
<!-- 20 -->
<g id="node21" class="node"><title>20</title>
<path fill="none" stroke="#d85656" stroke-width="2" d="M1889.5,-180C1889.5,-180 1854.5,-180 1854.5,-180 1848.5,-180 1842.5,-174 1842.5,-168 1842.5,-168 1842.5,-156 1842.5,-156 1842.5,-150 1848.5,-144 1854.5,-144 1854.5,-144 1889.5,-144 1889.5,-144 1895.5,-144 1901.5,-150 1901.5,-156 1901.5,-156 1901.5,-168 1901.5,-168 1901.5,-174 1895.5,-180 1889.5,-180"/>
<text text-anchor="middle" x="1872" y="-159.5" font-family="sans" font-size="10.00">CNV_plot</text>
</g>
<!-- 20&#45;&gt;1 -->
<g id="edge20" class="edge"><title>20&#45;&gt;1</title>
<path fill="none" stroke="grey" stroke-width="2" d="M1842.22,-151.363C1833.79,-148.798 1824.57,-146.147 1816,-144 1736.49,-124.092 1642.16,-106.832 1589.59,-97.7701"/>
<polygon fill="grey" stroke="grey" stroke-width="2" points="1590.1,-94.3059 1579.65,-96.0687 1588.92,-101.206 1590.1,-94.3059"/>
</g>
<!-- 21 -->
<g id="node22" class="node"><title>21</title>
<path fill="none" stroke="#d85656" stroke-width="2" d="M1984.5,-180C1984.5,-180 1949.5,-180 1949.5,-180 1943.5,-180 1937.5,-174 1937.5,-168 1937.5,-168 1937.5,-156 1937.5,-156 1937.5,-150 1943.5,-144 1949.5,-144 1949.5,-144 1984.5,-144 1984.5,-144 1990.5,-144 1996.5,-150 1996.5,-156 1996.5,-156 1996.5,-168 1996.5,-168 1996.5,-174 1990.5,-180 1984.5,-180"/>
<text text-anchor="middle" x="1967" y="-159.5" font-family="sans" font-size="10.00">CNV_plot</text>
</g>
<!-- 21&#45;&gt;1 -->
<g id="edge21" class="edge"><title>21&#45;&gt;1</title>
<path fill="none" stroke="grey" stroke-width="2" d="M1937.29,-151.078C1928.86,-148.511 1919.63,-145.929 1911,-144 1795.97,-118.271 1657.49,-101.994 1590,-94.9849"/>
<polygon fill="grey" stroke="grey" stroke-width="2" points="1590.1,-91.4766 1579.79,-93.9396 1589.38,-98.4402 1590.1,-91.4766"/>
</g>
<!-- 22 -->
<g id="node23" class="node"><title>22</title>
<path fill="none" stroke="#d85656" stroke-width="2" d="M2080.5,-180C2080.5,-180 2045.5,-180 2045.5,-180 2039.5,-180 2033.5,-174 2033.5,-168 2033.5,-168 2033.5,-156 2033.5,-156 2033.5,-150 2039.5,-144 2045.5,-144 2045.5,-144 2080.5,-144 2080.5,-144 2086.5,-144 2092.5,-150 2092.5,-156 2092.5,-156 2092.5,-168 2092.5,-168 2092.5,-174 2086.5,-180 2080.5,-180"/>
<text text-anchor="middle" x="2063" y="-159.5" font-family="sans" font-size="10.00">CNV_plot</text>
</g>
<!-- 22&#45;&gt;1 -->
<g id="edge22" class="edge"><title>22&#45;&gt;1</title>
<path fill="none" stroke="grey" stroke-width="2" d="M2033.37,-151.097C2024.63,-148.468 2015,-145.85 2006,-144 1854.19,-112.807 1669.96,-98.4514 1589.68,-93.3295"/>
<polygon fill="grey" stroke="grey" stroke-width="2" points="1589.7,-89.8244 1579.5,-92.6948 1589.27,-96.8108 1589.7,-89.8244"/>
</g>
<!-- 23 -->
<g id="node24" class="node"><title>23</title>
<path fill="none" stroke="#d85656" stroke-width="2" d="M2176.5,-180C2176.5,-180 2141.5,-180 2141.5,-180 2135.5,-180 2129.5,-174 2129.5,-168 2129.5,-168 2129.5,-156 2129.5,-156 2129.5,-150 2135.5,-144 2141.5,-144 2141.5,-144 2176.5,-144 2176.5,-144 2182.5,-144 2188.5,-150 2188.5,-156 2188.5,-156 2188.5,-168 2188.5,-168 2188.5,-174 2182.5,-180 2176.5,-180"/>
<text text-anchor="middle" x="2159" y="-159.5" font-family="sans" font-size="10.00">CNV_plot</text>
</g>
<!-- 23&#45;&gt;1 -->
<g id="edge23" class="edge"><title>23&#45;&gt;1</title>
<path fill="none" stroke="grey" stroke-width="2" d="M2129.39,-150.982C2120.66,-148.351 2111.02,-145.76 2102,-144 1912.64,-107.052 1681.55,-95.4852 1589.57,-92.1938"/>
<polygon fill="grey" stroke="grey" stroke-width="2" points="1589.68,-88.6957 1579.57,-91.8492 1589.44,-95.6915 1589.68,-88.6957"/>
</g>
<!-- 24 -->
<g id="node25" class="node"><title>24</title>
<path fill="none" stroke="#d85656" stroke-width="2" d="M2272.5,-180C2272.5,-180 2237.5,-180 2237.5,-180 2231.5,-180 2225.5,-174 2225.5,-168 2225.5,-168 2225.5,-156 2225.5,-156 2225.5,-150 2231.5,-144 2237.5,-144 2237.5,-144 2272.5,-144 2272.5,-144 2278.5,-144 2284.5,-150 2284.5,-156 2284.5,-156 2284.5,-168 2284.5,-168 2284.5,-174 2278.5,-180 2272.5,-180"/>
<text text-anchor="middle" x="2255" y="-159.5" font-family="sans" font-size="10.00">CNV_plot</text>
</g>
<!-- 24&#45;&gt;1 -->
<g id="edge24" class="edge"><title>24&#45;&gt;1</title>
<path fill="none" stroke="grey" stroke-width="2" d="M2225.41,-150.901C2216.67,-148.268 2207.03,-145.697 2198,-144 1971.04,-101.371 1693.06,-93.0273 1589.99,-91.3958"/>
<polygon fill="grey" stroke="grey" stroke-width="2" points="1589.76,-87.8923 1579.71,-91.2466 1589.66,-94.8915 1589.76,-87.8923"/>
</g>
<!-- 25 -->
<g id="node26" class="node"><title>25</title>
<path fill="none" stroke="#d85656" stroke-width="2" d="M2368.5,-180C2368.5,-180 2333.5,-180 2333.5,-180 2327.5,-180 2321.5,-174 2321.5,-168 2321.5,-168 2321.5,-156 2321.5,-156 2321.5,-150 2327.5,-144 2333.5,-144 2333.5,-144 2368.5,-144 2368.5,-144 2374.5,-144 2380.5,-150 2380.5,-156 2380.5,-156 2380.5,-168 2380.5,-168 2380.5,-174 2374.5,-180 2368.5,-180"/>
<text text-anchor="middle" x="2351" y="-159.5" font-family="sans" font-size="10.00">CNV_plot</text>
</g>
<!-- 25&#45;&gt;1 -->
<g id="edge25" class="edge"><title>25&#45;&gt;1</title>
<path fill="none" stroke="grey" stroke-width="2" d="M2321.42,-150.841C2312.69,-148.207 2303.04,-145.649 2294,-144 2028.93,-95.6465 1703.32,-90.8707 1590.1,-90.7866"/>
<polygon fill="grey" stroke="grey" stroke-width="2" points="1589.81,-87.2866 1579.82,-90.7918 1589.82,-94.2866 1589.81,-87.2866"/>
</g>
<!-- 26 -->
<g id="node27" class="node"><title>26</title>
<path fill="none" stroke="#d85656" stroke-width="2" d="M2464.5,-180C2464.5,-180 2429.5,-180 2429.5,-180 2423.5,-180 2417.5,-174 2417.5,-168 2417.5,-168 2417.5,-156 2417.5,-156 2417.5,-150 2423.5,-144 2429.5,-144 2429.5,-144 2464.5,-144 2464.5,-144 2470.5,-144 2476.5,-150 2476.5,-156 2476.5,-156 2476.5,-168 2476.5,-168 2476.5,-174 2470.5,-180 2464.5,-180"/>
<text text-anchor="middle" x="2447" y="-159.5" font-family="sans" font-size="10.00">CNV_plot</text>
</g>
<!-- 26&#45;&gt;1 -->
<g id="edge26" class="edge"><title>26&#45;&gt;1</title>
<path fill="none" stroke="grey" stroke-width="2" d="M2417.43,-150.794C2408.69,-148.159 2399.05,-145.613 2390,-144 2086.31,-89.8696 1712.36,-88.9531 1589.91,-90.3132"/>
<polygon fill="grey" stroke="grey" stroke-width="2" points="1589.8,-86.8141 1579.85,-90.4367 1589.89,-93.8136 1589.8,-86.8141"/>
</g>
<!-- 27 -->
<g id="node28" class="node"><title>27</title>
<path fill="none" stroke="#d85656" stroke-width="2" d="M2560.5,-180C2560.5,-180 2525.5,-180 2525.5,-180 2519.5,-180 2513.5,-174 2513.5,-168 2513.5,-168 2513.5,-156 2513.5,-156 2513.5,-150 2519.5,-144 2525.5,-144 2525.5,-144 2560.5,-144 2560.5,-144 2566.5,-144 2572.5,-150 2572.5,-156 2572.5,-156 2572.5,-168 2572.5,-168 2572.5,-174 2566.5,-180 2560.5,-180"/>
<text text-anchor="middle" x="2543" y="-159.5" font-family="sans" font-size="10.00">CNV_plot</text>
</g>
<!-- 27&#45;&gt;1 -->
<g id="edge27" class="edge"><title>27&#45;&gt;1</title>
<path fill="none" stroke="grey" stroke-width="2" d="M2513.44,-150.757C2504.7,-148.121 2495.05,-145.584 2486,-144 2309.89,-113.193 1747.13,-96.256 1590.06,-92.0483"/>
<polygon fill="grey" stroke="grey" stroke-width="2" points="1589.98,-88.5449 1579.89,-91.7784 1589.79,-95.5425 1589.98,-88.5449"/>
</g>
<!-- 28 -->
<g id="node29" class="node"><title>28</title>
<path fill="none" stroke="#d85656" stroke-width="2" d="M2656.5,-180C2656.5,-180 2621.5,-180 2621.5,-180 2615.5,-180 2609.5,-174 2609.5,-168 2609.5,-168 2609.5,-156 2609.5,-156 2609.5,-150 2615.5,-144 2621.5,-144 2621.5,-144 2656.5,-144 2656.5,-144 2662.5,-144 2668.5,-150 2668.5,-156 2668.5,-156 2668.5,-168 2668.5,-168 2668.5,-174 2662.5,-180 2656.5,-180"/>
<text text-anchor="middle" x="2639" y="-159.5" font-family="sans" font-size="10.00">CNV_plot</text>
</g>
<!-- 28&#45;&gt;1 -->
<g id="edge28" class="edge"><title>28&#45;&gt;1</title>
<path fill="none" stroke="grey" stroke-width="2" d="M2609.44,-150.727C2600.71,-148.09 2591.06,-145.56 2582,-144 2386.22,-110.282 1757.23,-95.2576 1590.1,-91.8005"/>
<polygon fill="grey" stroke="grey" stroke-width="2" points="1590.06,-88.2991 1579.99,-91.594 1589.92,-95.2977 1590.06,-88.2991"/>
</g>
<!-- 29 -->
<g id="node30" class="node"><title>29</title>
<path fill="none" stroke="#d85656" stroke-width="2" d="M2752.5,-180C2752.5,-180 2717.5,-180 2717.5,-180 2711.5,-180 2705.5,-174 2705.5,-168 2705.5,-168 2705.5,-156 2705.5,-156 2705.5,-150 2711.5,-144 2717.5,-144 2717.5,-144 2752.5,-144 2752.5,-144 2758.5,-144 2764.5,-150 2764.5,-156 2764.5,-156 2764.5,-168 2764.5,-168 2764.5,-174 2758.5,-180 2752.5,-180"/>
<text text-anchor="middle" x="2735" y="-159.5" font-family="sans" font-size="10.00">CNV_plot</text>
</g>
<!-- 29&#45;&gt;1 -->
<g id="edge29" class="edge"><title>29&#45;&gt;1</title>
<path fill="none" stroke="grey" stroke-width="2" d="M2705.45,-150.702C2696.71,-148.064 2687.06,-145.54 2678,-144 2462.36,-107.344 1766.04,-94.3369 1589.82,-91.5892"/>
<polygon fill="grey" stroke="grey" stroke-width="2" points="1589.73,-88.0876 1579.68,-91.4336 1589.63,-95.0868 1589.73,-88.0876"/>
</g>
<!-- 30 -->
<g id="node31" class="node"><title>30</title>
<path fill="none" stroke="#d85656" stroke-width="2" d="M2848.5,-180C2848.5,-180 2813.5,-180 2813.5,-180 2807.5,-180 2801.5,-174 2801.5,-168 2801.5,-168 2801.5,-156 2801.5,-156 2801.5,-150 2807.5,-144 2813.5,-144 2813.5,-144 2848.5,-144 2848.5,-144 2854.5,-144 2860.5,-150 2860.5,-156 2860.5,-156 2860.5,-168 2860.5,-168 2860.5,-174 2854.5,-180 2848.5,-180"/>
<text text-anchor="middle" x="2831" y="-159.5" font-family="sans" font-size="10.00">CNV_plot</text>
</g>
<!-- 30&#45;&gt;1 -->
<g id="edge30" class="edge"><title>30&#45;&gt;1</title>
<path fill="none" stroke="grey" stroke-width="2" d="M2801.45,-150.681C2792.71,-148.042 2783.06,-145.524 2774,-144 2538.47,-104.407 1774.65,-93.5027 1589.64,-91.4136"/>
<polygon fill="grey" stroke="grey" stroke-width="2" points="1589.56,-87.9127 1579.52,-91.3018 1589.48,-94.9122 1589.56,-87.9127"/>
</g>
<!-- 31 -->
<g id="node32" class="node"><title>31</title>
<path fill="none" stroke="#d85656" stroke-width="2" d="M2944.5,-180C2944.5,-180 2909.5,-180 2909.5,-180 2903.5,-180 2897.5,-174 2897.5,-168 2897.5,-168 2897.5,-156 2897.5,-156 2897.5,-150 2903.5,-144 2909.5,-144 2909.5,-144 2944.5,-144 2944.5,-144 2950.5,-144 2956.5,-150 2956.5,-156 2956.5,-156 2956.5,-168 2956.5,-168 2956.5,-174 2950.5,-180 2944.5,-180"/>
<text text-anchor="middle" x="2927" y="-159.5" font-family="sans" font-size="10.00">CNV_plot</text>
</g>
<!-- 31&#45;&gt;1 -->
<g id="edge31" class="edge"><title>31&#45;&gt;1</title>
<path fill="none" stroke="grey" stroke-width="2" d="M2897.45,-150.662C2888.72,-148.024 2879.07,-145.509 2870,-144 2614.61,-101.481 1783.46,-92.742 1589.66,-91.2659"/>
<polygon fill="grey" stroke="grey" stroke-width="2" points="1589.64,-87.7658 1579.62,-91.1917 1589.59,-94.7656 1589.64,-87.7658"/>
</g>
<!-- 32 -->
<g id="node33" class="node"><title>32</title>
<path fill="none" stroke="#88d856" stroke-width="2" stroke-dasharray="5,2" d="M76,-252C76,-252 22,-252 22,-252 16,-252 10,-246 10,-240 10,-240 10,-228 10,-228 10,-222 16,-216 22,-216 22,-216 76,-216 76,-216 82,-216 88,-222 88,-228 88,-228 88,-240 88,-240 88,-246 82,-252 76,-252"/>
<text text-anchor="middle" x="49" y="-231.5" font-family="sans" font-size="10.00">CNV_infercnv</text>
</g>
<!-- 32&#45;&gt;2 -->
<g id="edge32" class="edge"><title>32&#45;&gt;2</title>
<path fill="none" stroke="grey" stroke-width="2" d="M52.9551,-215.697C54.7182,-207.983 56.8372,-198.712 58.8029,-190.112"/>
<polygon fill="grey" stroke="grey" stroke-width="2" points="62.2741,-190.633 61.0904,-180.104 55.4501,-189.073 62.2741,-190.633"/>
</g>
<!-- 33 -->
<g id="node34" class="node"><title>33</title>
<path fill="none" stroke="#88d856" stroke-width="2" stroke-dasharray="5,2" d="M178,-252C178,-252 124,-252 124,-252 118,-252 112,-246 112,-240 112,-240 112,-228 112,-228 112,-222 118,-216 124,-216 124,-216 178,-216 178,-216 184,-216 190,-222 190,-228 190,-228 190,-240 190,-240 190,-246 184,-252 178,-252"/>
<text text-anchor="middle" x="151" y="-231.5" font-family="sans" font-size="10.00">CNV_infercnv</text>
</g>
<!-- 33&#45;&gt;3 -->
<g id="edge33" class="edge"><title>33&#45;&gt;3</title>
<path fill="none" stroke="grey" stroke-width="2" d="M151.989,-215.697C152.43,-207.983 152.959,-198.712 153.451,-190.112"/>
<polygon fill="grey" stroke="grey" stroke-width="2" points="156.946,-190.288 154.023,-180.104 149.958,-189.888 156.946,-190.288"/>
</g>
<!-- 34 -->
<g id="node35" class="node"><title>34</title>
<path fill="none" stroke="#88d856" stroke-width="2" stroke-dasharray="5,2" d="M285,-252C285,-252 231,-252 231,-252 225,-252 219,-246 219,-240 219,-240 219,-228 219,-228 219,-222 225,-216 231,-216 231,-216 285,-216 285,-216 291,-216 297,-222 297,-228 297,-228 297,-240 297,-240 297,-246 291,-252 285,-252"/>
<text text-anchor="middle" x="258" y="-231.5" font-family="sans" font-size="10.00">CNV_infercnv</text>
</g>
<!-- 34&#45;&gt;4 -->
<g id="edge34" class="edge"><title>34&#45;&gt;4</title>
<path fill="none" stroke="grey" stroke-width="2" d="M294.45,-215.876C316.863,-205.346 345.558,-191.865 368.364,-181.151"/>
<polygon fill="grey" stroke="grey" stroke-width="2" points="369.861,-184.315 377.423,-176.895 366.884,-177.979 369.861,-184.315"/>
</g>
<!-- 35 -->
<g id="node36" class="node"><title>35</title>
<path fill="none" stroke="#88d856" stroke-width="2" stroke-dasharray="5,2" d="M389,-252C389,-252 335,-252 335,-252 329,-252 323,-246 323,-240 323,-240 323,-228 323,-228 323,-222 329,-216 335,-216 335,-216 389,-216 389,-216 395,-216 401,-222 401,-228 401,-228 401,-240 401,-240 401,-246 395,-252 389,-252"/>
<text text-anchor="middle" x="362" y="-231.5" font-family="sans" font-size="10.00">CNV_infercnv</text>
</g>
<!-- 35&#45;&gt;5 -->
<g id="edge35" class="edge"><title>35&#45;&gt;5</title>
<path fill="none" stroke="grey" stroke-width="2" d="M401.007,-219.998C438.572,-207.476 495.089,-188.637 532.739,-176.087"/>
<polygon fill="grey" stroke="grey" stroke-width="2" points="533.973,-179.365 542.353,-172.882 531.76,-172.724 533.973,-179.365"/>
</g>
<!-- 36 -->
<g id="node37" class="node"><title>36</title>
<path fill="none" stroke="#88d856" stroke-width="2" stroke-dasharray="5,2" d="M493,-252C493,-252 439,-252 439,-252 433,-252 427,-246 427,-240 427,-240 427,-228 427,-228 427,-222 433,-216 439,-216 439,-216 493,-216 493,-216 499,-216 505,-222 505,-228 505,-228 505,-240 505,-240 505,-246 499,-252 493,-252"/>
<text text-anchor="middle" x="466" y="-231.5" font-family="sans" font-size="10.00">CNV_infercnv</text>
</g>
<!-- 36&#45;&gt;6 -->
<g id="edge36" class="edge"><title>36&#45;&gt;6</title>
<path fill="none" stroke="grey" stroke-width="2" d="M505.023,-220.967C546.479,-208.183 611.668,-188.08 653.358,-175.224"/>
<polygon fill="grey" stroke="grey" stroke-width="2" points="654.641,-178.492 663.165,-172.2 652.578,-171.802 654.641,-178.492"/>
</g>
<!-- 37 -->
<g id="node38" class="node"><title>37</title>
<path fill="none" stroke="#88d856" stroke-width="2" stroke-dasharray="5,2" d="M597,-252C597,-252 543,-252 543,-252 537,-252 531,-246 531,-240 531,-240 531,-228 531,-228 531,-222 537,-216 543,-216 543,-216 597,-216 597,-216 603,-216 609,-222 609,-228 609,-228 609,-240 609,-240 609,-246 603,-252 597,-252"/>
<text text-anchor="middle" x="570" y="-231.5" font-family="sans" font-size="10.00">CNV_infercnv</text>
</g>
<!-- 37&#45;&gt;7 -->
<g id="edge37" class="edge"><title>37&#45;&gt;7</title>
<path fill="none" stroke="grey" stroke-width="2" d="M609.178,-220.647C649.571,-207.91 712.2,-188.162 752.654,-175.406"/>
<polygon fill="grey" stroke="grey" stroke-width="2" points="753.949,-178.668 762.434,-172.323 751.844,-171.992 753.949,-178.668"/>
</g>
<!-- 38 -->
<g id="node39" class="node"><title>38</title>
<path fill="none" stroke="#88d856" stroke-width="2" stroke-dasharray="5,2" d="M701,-252C701,-252 647,-252 647,-252 641,-252 635,-246 635,-240 635,-240 635,-228 635,-228 635,-222 641,-216 647,-216 647,-216 701,-216 701,-216 707,-216 713,-222 713,-228 713,-228 713,-240 713,-240 713,-246 707,-252 701,-252"/>
<text text-anchor="middle" x="674" y="-231.5" font-family="sans" font-size="10.00">CNV_infercnv</text>
</g>
<!-- 38&#45;&gt;8 -->
<g id="edge38" class="edge"><title>38&#45;&gt;8</title>
<path fill="none" stroke="grey" stroke-width="2" d="M713.232,-219.669C749.725,-207.268 803.825,-188.885 840.427,-176.447"/>
<polygon fill="grey" stroke="grey" stroke-width="2" points="841.915,-179.638 850.257,-173.107 839.663,-173.01 841.915,-179.638"/>
</g>
<!-- 39 -->
<g id="node40" class="node"><title>39</title>
<path fill="none" stroke="#88d856" stroke-width="2" stroke-dasharray="5,2" d="M805,-252C805,-252 751,-252 751,-252 745,-252 739,-246 739,-240 739,-240 739,-228 739,-228 739,-222 745,-216 751,-216 751,-216 805,-216 805,-216 811,-216 817,-222 817,-228 817,-228 817,-240 817,-240 817,-246 811,-252 805,-252"/>
<text text-anchor="middle" x="778" y="-231.5" font-family="sans" font-size="10.00">CNV_infercnv</text>
</g>
<!-- 39&#45;&gt;9 -->
<g id="edge39" class="edge"><title>39&#45;&gt;9</title>
<path fill="none" stroke="grey" stroke-width="2" d="M817.252,-218.222C845.332,-207.63 884.016,-192.998 918,-180 919.578,-179.397 921.187,-178.78 922.812,-178.157"/>
<polygon fill="grey" stroke="grey" stroke-width="2" points="924.112,-181.407 932.189,-174.55 921.599,-174.873 924.112,-181.407"/>
</g>
<!-- 40 -->
<g id="node41" class="node"><title>40</title>
<path fill="none" stroke="#88d856" stroke-width="2" stroke-dasharray="5,2" d="M909,-252C909,-252 855,-252 855,-252 849,-252 843,-246 843,-240 843,-240 843,-228 843,-228 843,-222 849,-216 855,-216 855,-216 909,-216 909,-216 915,-216 921,-222 921,-228 921,-228 921,-240 921,-240 921,-246 915,-252 909,-252"/>
<text text-anchor="middle" x="882" y="-231.5" font-family="sans" font-size="10.00">CNV_infercnv</text>
</g>
<!-- 40&#45;&gt;10 -->
<g id="edge40" class="edge"><title>40&#45;&gt;10</title>
<path fill="none" stroke="grey" stroke-width="2" d="M921.14,-215.876C945.969,-205.013 977.976,-191.011 1002.81,-180.144"/>
<polygon fill="grey" stroke="grey" stroke-width="2" points="1004.53,-183.212 1012.29,-175.997 1001.73,-176.799 1004.53,-183.212"/>
</g>
<!-- 41 -->
<g id="node42" class="node"><title>41</title>
<path fill="none" stroke="#88d856" stroke-width="2" stroke-dasharray="5,2" d="M1013,-252C1013,-252 959,-252 959,-252 953,-252 947,-246 947,-240 947,-240 947,-228 947,-228 947,-222 953,-216 959,-216 959,-216 1013,-216 1013,-216 1019,-216 1025,-222 1025,-228 1025,-228 1025,-240 1025,-240 1025,-246 1019,-252 1013,-252"/>
<text text-anchor="middle" x="986" y="-231.5" font-family="sans" font-size="10.00">CNV_infercnv</text>
</g>
<!-- 41&#45;&gt;11 -->
<g id="edge41" class="edge"><title>41&#45;&gt;11</title>
<path fill="none" stroke="grey" stroke-width="2" d="M1018.78,-215.876C1037.64,-206.023 1061.45,-193.585 1081.24,-183.249"/>
<polygon fill="grey" stroke="grey" stroke-width="2" points="1083.06,-186.247 1090.3,-178.514 1079.82,-180.042 1083.06,-186.247"/>
</g>
<!-- 42 -->
<g id="node43" class="node"><title>42</title>
<path fill="none" stroke="#88d856" stroke-width="2" stroke-dasharray="5,2" d="M1117,-252C1117,-252 1063,-252 1063,-252 1057,-252 1051,-246 1051,-240 1051,-240 1051,-228 1051,-228 1051,-222 1057,-216 1063,-216 1063,-216 1117,-216 1117,-216 1123,-216 1129,-222 1129,-228 1129,-228 1129,-240 1129,-240 1129,-246 1123,-252 1117,-252"/>
<text text-anchor="middle" x="1090" y="-231.5" font-family="sans" font-size="10.00">CNV_infercnv</text>
</g>
<!-- 42&#45;&gt;12 -->
<g id="edge42" class="edge"><title>42&#45;&gt;12</title>
<path fill="none" stroke="grey" stroke-width="2" d="M1116.42,-215.876C1130.41,-206.808 1147.78,-195.552 1162.89,-185.759"/>
<polygon fill="grey" stroke="grey" stroke-width="2" points="1164.99,-188.566 1171.48,-180.19 1161.18,-182.692 1164.99,-188.566"/>
</g>
<!-- 43 -->
<g id="node44" class="node"><title>43</title>
<path fill="none" stroke="#88d856" stroke-width="2" stroke-dasharray="5,2" d="M1221,-252C1221,-252 1167,-252 1167,-252 1161,-252 1155,-246 1155,-240 1155,-240 1155,-228 1155,-228 1155,-222 1161,-216 1167,-216 1167,-216 1221,-216 1221,-216 1227,-216 1233,-222 1233,-228 1233,-228 1233,-240 1233,-240 1233,-246 1227,-252 1221,-252"/>
<text text-anchor="middle" x="1194" y="-231.5" font-family="sans" font-size="10.00">CNV_infercnv</text>
</g>
<!-- 43&#45;&gt;13 -->
<g id="edge43" class="edge"><title>43&#45;&gt;13</title>
<path fill="none" stroke="grey" stroke-width="2" d="M1214.02,-215.697C1224.13,-206.965 1236.54,-196.24 1247.52,-186.75"/>
<polygon fill="grey" stroke="grey" stroke-width="2" points="1249.93,-189.291 1255.21,-180.104 1245.35,-183.995 1249.93,-189.291"/>
</g>
<!-- 44 -->
<g id="node45" class="node"><title>44</title>
<path fill="none" stroke="#88d856" stroke-width="2" stroke-dasharray="5,2" d="M1324,-252C1324,-252 1270,-252 1270,-252 1264,-252 1258,-246 1258,-240 1258,-240 1258,-228 1258,-228 1258,-222 1264,-216 1270,-216 1270,-216 1324,-216 1324,-216 1330,-216 1336,-222 1336,-228 1336,-228 1336,-240 1336,-240 1336,-246 1330,-252 1324,-252"/>
<text text-anchor="middle" x="1297" y="-231.5" font-family="sans" font-size="10.00">CNV_infercnv</text>
</g>
<!-- 44&#45;&gt;14 -->
<g id="edge44" class="edge"><title>44&#45;&gt;14</title>
<path fill="none" stroke="grey" stroke-width="2" d="M1310.6,-215.697C1317.12,-207.389 1325.07,-197.277 1332.25,-188.141"/>
<polygon fill="grey" stroke="grey" stroke-width="2" points="1335.13,-190.13 1338.56,-180.104 1329.63,-185.805 1335.13,-190.13"/>
</g>
<!-- 45 -->
<g id="node46" class="node"><title>45</title>
<path fill="none" stroke="#88d856" stroke-width="2" stroke-dasharray="5,2" d="M1427,-252C1427,-252 1373,-252 1373,-252 1367,-252 1361,-246 1361,-240 1361,-240 1361,-228 1361,-228 1361,-222 1367,-216 1373,-216 1373,-216 1427,-216 1427,-216 1433,-216 1439,-222 1439,-228 1439,-228 1439,-240 1439,-240 1439,-246 1433,-252 1427,-252"/>
<text text-anchor="middle" x="1400" y="-231.5" font-family="sans" font-size="10.00">CNV_infercnv</text>
</g>
<!-- 45&#45;&gt;15 -->
<g id="edge45" class="edge"><title>45&#45;&gt;15</title>
<path fill="none" stroke="grey" stroke-width="2" d="M1407.17,-215.697C1410.43,-207.813 1414.37,-198.304 1418,-189.546"/>
<polygon fill="grey" stroke="grey" stroke-width="2" points="1421.32,-190.683 1421.91,-180.104 1414.85,-188.003 1421.32,-190.683"/>
</g>
<!-- 46 -->
<g id="node47" class="node"><title>46</title>
<path fill="none" stroke="#88d856" stroke-width="2" stroke-dasharray="5,2" d="M1528,-252C1528,-252 1474,-252 1474,-252 1468,-252 1462,-246 1462,-240 1462,-240 1462,-228 1462,-228 1462,-222 1468,-216 1474,-216 1474,-216 1528,-216 1528,-216 1534,-216 1540,-222 1540,-228 1540,-228 1540,-240 1540,-240 1540,-246 1534,-252 1528,-252"/>
<text text-anchor="middle" x="1501" y="-231.5" font-family="sans" font-size="10.00">CNV_infercnv</text>
</g>
<!-- 46&#45;&gt;16 -->
<g id="edge46" class="edge"><title>46&#45;&gt;16</title>
<path fill="none" stroke="grey" stroke-width="2" d="M1502.24,-215.697C1502.79,-207.983 1503.45,-198.712 1504.06,-190.112"/>
<polygon fill="grey" stroke="grey" stroke-width="2" points="1507.56,-190.328 1504.78,-180.104 1500.57,-189.83 1507.56,-190.328"/>
</g>
<!-- 47 -->
<g id="node48" class="node"><title>47</title>
<path fill="none" stroke="#88d856" stroke-width="2" stroke-dasharray="5,2" d="M1628,-252C1628,-252 1574,-252 1574,-252 1568,-252 1562,-246 1562,-240 1562,-240 1562,-228 1562,-228 1562,-222 1568,-216 1574,-216 1574,-216 1628,-216 1628,-216 1634,-216 1640,-222 1640,-228 1640,-228 1640,-240 1640,-240 1640,-246 1634,-252 1628,-252"/>
<text text-anchor="middle" x="1601" y="-231.5" font-family="sans" font-size="10.00">CNV_infercnv</text>
</g>
<!-- 47&#45;&gt;17 -->
<g id="edge47" class="edge"><title>47&#45;&gt;17</title>
<path fill="none" stroke="grey" stroke-width="2" d="M1598.78,-215.697C1597.78,-207.983 1596.59,-198.712 1595.49,-190.112"/>
<polygon fill="grey" stroke="grey" stroke-width="2" points="1598.95,-189.576 1594.2,-180.104 1592,-190.469 1598.95,-189.576"/>
</g>
<!-- 48 -->
<g id="node49" class="node"><title>48</title>
<path fill="none" stroke="#88d856" stroke-width="2" stroke-dasharray="5,2" d="M1730,-252C1730,-252 1676,-252 1676,-252 1670,-252 1664,-246 1664,-240 1664,-240 1664,-228 1664,-228 1664,-222 1670,-216 1676,-216 1676,-216 1730,-216 1730,-216 1736,-216 1742,-222 1742,-228 1742,-228 1742,-240 1742,-240 1742,-246 1736,-252 1730,-252"/>
<text text-anchor="middle" x="1703" y="-231.5" font-family="sans" font-size="10.00">CNV_infercnv</text>
</g>
<!-- 48&#45;&gt;18 -->
<g id="edge48" class="edge"><title>48&#45;&gt;18</title>
<path fill="none" stroke="grey" stroke-width="2" d="M1698.06,-215.697C1695.83,-207.898 1693.15,-198.509 1690.67,-189.829"/>
<polygon fill="grey" stroke="grey" stroke-width="2" points="1694,-188.758 1687.89,-180.104 1687.27,-190.681 1694,-188.758"/>
</g>
<!-- 49 -->
<g id="node50" class="node"><title>49</title>
<path fill="none" stroke="#88d856" stroke-width="2" stroke-dasharray="5,2" d="M1833,-252C1833,-252 1779,-252 1779,-252 1773,-252 1767,-246 1767,-240 1767,-240 1767,-228 1767,-228 1767,-222 1773,-216 1779,-216 1779,-216 1833,-216 1833,-216 1839,-216 1845,-222 1845,-228 1845,-228 1845,-240 1845,-240 1845,-246 1839,-252 1833,-252"/>
<text text-anchor="middle" x="1806" y="-231.5" font-family="sans" font-size="10.00">CNV_infercnv</text>
</g>
<!-- 49&#45;&gt;19 -->
<g id="edge49" class="edge"><title>49&#45;&gt;19</title>
<path fill="none" stroke="grey" stroke-width="2" d="M1798.83,-215.697C1795.57,-207.813 1791.63,-198.304 1788,-189.546"/>
<polygon fill="grey" stroke="grey" stroke-width="2" points="1791.15,-188.003 1784.09,-180.104 1784.68,-190.683 1791.15,-188.003"/>
</g>
<!-- 50 -->
<g id="node51" class="node"><title>50</title>
<path fill="none" stroke="#88d856" stroke-width="2" stroke-dasharray="5,2" d="M1936,-252C1936,-252 1882,-252 1882,-252 1876,-252 1870,-246 1870,-240 1870,-240 1870,-228 1870,-228 1870,-222 1876,-216 1882,-216 1882,-216 1936,-216 1936,-216 1942,-216 1948,-222 1948,-228 1948,-228 1948,-240 1948,-240 1948,-246 1942,-252 1936,-252"/>
<text text-anchor="middle" x="1909" y="-231.5" font-family="sans" font-size="10.00">CNV_infercnv</text>
</g>
<!-- 50&#45;&gt;20 -->
<g id="edge50" class="edge"><title>50&#45;&gt;20</title>
<path fill="none" stroke="grey" stroke-width="2" d="M1899.85,-215.697C1895.6,-207.644 1890.44,-197.894 1885.73,-188.982"/>
<polygon fill="grey" stroke="grey" stroke-width="2" points="1888.81,-187.31 1881.04,-180.104 1882.62,-190.581 1888.81,-187.31"/>
</g>
<!-- 51 -->
<g id="node52" class="node"><title>51</title>
<path fill="none" stroke="#88d856" stroke-width="2" stroke-dasharray="5,2" d="M2040,-252C2040,-252 1986,-252 1986,-252 1980,-252 1974,-246 1974,-240 1974,-240 1974,-228 1974,-228 1974,-222 1980,-216 1986,-216 1986,-216 2040,-216 2040,-216 2046,-216 2052,-222 2052,-228 2052,-228 2052,-240 2052,-240 2052,-246 2046,-252 2040,-252"/>
<text text-anchor="middle" x="2013" y="-231.5" font-family="sans" font-size="10.00">CNV_infercnv</text>
</g>
<!-- 51&#45;&gt;21 -->
<g id="edge51" class="edge"><title>51&#45;&gt;21</title>
<path fill="none" stroke="grey" stroke-width="2" d="M2001.63,-215.697C1996.28,-207.559 1989.8,-197.689 1983.89,-188.701"/>
<polygon fill="grey" stroke="grey" stroke-width="2" points="1986.66,-186.539 1978.24,-180.104 1980.81,-190.384 1986.66,-186.539"/>
</g>
<!-- 52 -->
<g id="node53" class="node"><title>52</title>
<path fill="none" stroke="#88d856" stroke-width="2" stroke-dasharray="5,2" d="M2144,-252C2144,-252 2090,-252 2090,-252 2084,-252 2078,-246 2078,-240 2078,-240 2078,-228 2078,-228 2078,-222 2084,-216 2090,-216 2090,-216 2144,-216 2144,-216 2150,-216 2156,-222 2156,-228 2156,-228 2156,-240 2156,-240 2156,-246 2150,-252 2144,-252"/>
<text text-anchor="middle" x="2117" y="-231.5" font-family="sans" font-size="10.00">CNV_infercnv</text>
</g>
<!-- 52&#45;&gt;22 -->
<g id="edge52" class="edge"><title>52&#45;&gt;22</title>
<path fill="none" stroke="grey" stroke-width="2" d="M2103.65,-215.697C2097.24,-207.389 2089.44,-197.277 2082.39,-188.141"/>
<polygon fill="grey" stroke="grey" stroke-width="2" points="2085.07,-185.884 2076.19,-180.104 2079.53,-190.16 2085.07,-185.884"/>
</g>
<!-- 53 -->
<g id="node54" class="node"><title>53</title>
<path fill="none" stroke="#88d856" stroke-width="2" stroke-dasharray="5,2" d="M2248,-252C2248,-252 2194,-252 2194,-252 2188,-252 2182,-246 2182,-240 2182,-240 2182,-228 2182,-228 2182,-222 2188,-216 2194,-216 2194,-216 2248,-216 2248,-216 2254,-216 2260,-222 2260,-228 2260,-228 2260,-240 2260,-240 2260,-246 2254,-252 2248,-252"/>
<text text-anchor="middle" x="2221" y="-231.5" font-family="sans" font-size="10.00">CNV_infercnv</text>
</g>
<!-- 53&#45;&gt;23 -->
<g id="edge53" class="edge"><title>53&#45;&gt;23</title>
<path fill="none" stroke="grey" stroke-width="2" d="M2205.67,-215.697C2198.24,-207.305 2189.18,-197.07 2181.02,-187.861"/>
<polygon fill="grey" stroke="grey" stroke-width="2" points="2183.4,-185.27 2174.15,-180.104 2178.16,-189.911 2183.4,-185.27"/>
</g>
<!-- 54 -->
<g id="node55" class="node"><title>54</title>
<path fill="none" stroke="#88d856" stroke-width="2" stroke-dasharray="5,2" d="M2352,-252C2352,-252 2298,-252 2298,-252 2292,-252 2286,-246 2286,-240 2286,-240 2286,-228 2286,-228 2286,-222 2292,-216 2298,-216 2298,-216 2352,-216 2352,-216 2358,-216 2364,-222 2364,-228 2364,-228 2364,-240 2364,-240 2364,-246 2358,-252 2352,-252"/>
<text text-anchor="middle" x="2325" y="-231.5" font-family="sans" font-size="10.00">CNV_infercnv</text>
</g>
<!-- 54&#45;&gt;24 -->
<g id="edge54" class="edge"><title>54&#45;&gt;24</title>
<path fill="none" stroke="grey" stroke-width="2" d="M2307.7,-215.697C2299.14,-207.135 2288.66,-196.656 2279.3,-187.304"/>
<polygon fill="grey" stroke="grey" stroke-width="2" points="2281.65,-184.701 2272.1,-180.104 2276.7,-189.65 2281.65,-184.701"/>
</g>
<!-- 55 -->
<g id="node56" class="node"><title>55</title>
<path fill="none" stroke="#88d856" stroke-width="2" stroke-dasharray="5,2" d="M2456,-252C2456,-252 2402,-252 2402,-252 2396,-252 2390,-246 2390,-240 2390,-240 2390,-228 2390,-228 2390,-222 2396,-216 2402,-216 2402,-216 2456,-216 2456,-216 2462,-216 2468,-222 2468,-228 2468,-228 2468,-240 2468,-240 2468,-246 2462,-252 2456,-252"/>
<text text-anchor="middle" x="2429" y="-231.5" font-family="sans" font-size="10.00">CNV_infercnv</text>
</g>
<!-- 55&#45;&gt;25 -->
<g id="edge55" class="edge"><title>55&#45;&gt;25</title>
<path fill="none" stroke="grey" stroke-width="2" d="M2409.72,-215.697C2400.08,-207.05 2388.27,-196.449 2377.77,-187.027"/>
<polygon fill="grey" stroke="grey" stroke-width="2" points="2379.84,-184.179 2370.06,-180.104 2375.16,-189.388 2379.84,-184.179"/>
</g>
<!-- 56 -->
<g id="node57" class="node"><title>56</title>
<path fill="none" stroke="#88d856" stroke-width="2" stroke-dasharray="5,2" d="M2560,-252C2560,-252 2506,-252 2506,-252 2500,-252 2494,-246 2494,-240 2494,-240 2494,-228 2494,-228 2494,-222 2500,-216 2506,-216 2506,-216 2560,-216 2560,-216 2566,-216 2572,-222 2572,-228 2572,-228 2572,-240 2572,-240 2572,-246 2566,-252 2560,-252"/>
<text text-anchor="middle" x="2533" y="-231.5" font-family="sans" font-size="10.00">CNV_infercnv</text>
</g>
<!-- 56&#45;&gt;26 -->
<g id="edge56" class="edge"><title>56&#45;&gt;26</title>
<path fill="none" stroke="grey" stroke-width="2" d="M2511.74,-215.697C2500.91,-206.881 2487.58,-196.032 2475.84,-186.474"/>
<polygon fill="grey" stroke="grey" stroke-width="2" points="2477.98,-183.703 2468.01,-180.104 2473.56,-189.132 2477.98,-183.703"/>
</g>
<!-- 57 -->
<g id="node58" class="node"><title>57</title>
<path fill="none" stroke="#88d856" stroke-width="2" stroke-dasharray="5,2" d="M2664,-252C2664,-252 2610,-252 2610,-252 2604,-252 2598,-246 2598,-240 2598,-240 2598,-228 2598,-228 2598,-222 2604,-216 2610,-216 2610,-216 2664,-216 2664,-216 2670,-216 2676,-222 2676,-228 2676,-228 2676,-240 2676,-240 2676,-246 2670,-252 2664,-252"/>
<text text-anchor="middle" x="2637" y="-231.5" font-family="sans" font-size="10.00">CNV_infercnv</text>
</g>
<!-- 57&#45;&gt;27 -->
<g id="edge57" class="edge"><title>57&#45;&gt;27</title>
<path fill="none" stroke="grey" stroke-width="2" d="M2613.76,-215.697C2601.81,-206.796 2587.08,-195.823 2574.15,-186.199"/>
<polygon fill="grey" stroke="grey" stroke-width="2" points="2576.08,-183.27 2565.97,-180.104 2571.9,-188.884 2576.08,-183.27"/>
</g>
<!-- 58 -->
<g id="node59" class="node"><title>58</title>
<path fill="none" stroke="#88d856" stroke-width="2" stroke-dasharray="5,2" d="M2768,-252C2768,-252 2714,-252 2714,-252 2708,-252 2702,-246 2702,-240 2702,-240 2702,-228 2702,-228 2702,-222 2708,-216 2714,-216 2714,-216 2768,-216 2768,-216 2774,-216 2780,-222 2780,-228 2780,-228 2780,-240 2780,-240 2780,-246 2774,-252 2768,-252"/>
<text text-anchor="middle" x="2741" y="-231.5" font-family="sans" font-size="10.00">CNV_infercnv</text>
</g>
<!-- 58&#45;&gt;28 -->
<g id="edge58" class="edge"><title>58&#45;&gt;28</title>
<path fill="none" stroke="grey" stroke-width="2" d="M2716.05,-215.876C2702.96,-206.893 2686.74,-195.763 2672.56,-186.034"/>
<polygon fill="grey" stroke="grey" stroke-width="2" points="2674.27,-182.962 2664.05,-180.19 2670.31,-188.734 2674.27,-182.962"/>
</g>
<!-- 59 -->
<g id="node60" class="node"><title>59</title>
<path fill="none" stroke="#88d856" stroke-width="2" stroke-dasharray="5,2" d="M2872,-252C2872,-252 2818,-252 2818,-252 2812,-252 2806,-246 2806,-240 2806,-240 2806,-228 2806,-228 2806,-222 2812,-216 2818,-216 2818,-216 2872,-216 2872,-216 2878,-216 2884,-222 2884,-228 2884,-228 2884,-240 2884,-240 2884,-246 2878,-252 2872,-252"/>
<text text-anchor="middle" x="2845" y="-231.5" font-family="sans" font-size="10.00">CNV_infercnv</text>
</g>
<!-- 59&#45;&gt;29 -->
<g id="edge59" class="edge"><title>59&#45;&gt;29</title>
<path fill="none" stroke="grey" stroke-width="2" d="M2818.09,-215.876C2803.84,-206.808 2786.15,-195.552 2770.76,-185.759"/>
<polygon fill="grey" stroke="grey" stroke-width="2" points="2772.33,-182.606 2762.01,-180.19 2768.57,-188.511 2772.33,-182.606"/>
</g>
<!-- 60 -->
<g id="node61" class="node"><title>60</title>
<path fill="none" stroke="#88d856" stroke-width="2" stroke-dasharray="5,2" d="M2976,-252C2976,-252 2922,-252 2922,-252 2916,-252 2910,-246 2910,-240 2910,-240 2910,-228 2910,-228 2910,-222 2916,-216 2922,-216 2922,-216 2976,-216 2976,-216 2982,-216 2988,-222 2988,-228 2988,-228 2988,-240 2988,-240 2988,-246 2982,-252 2976,-252"/>
<text text-anchor="middle" x="2949" y="-231.5" font-family="sans" font-size="10.00">CNV_infercnv</text>
</g>
<!-- 60&#45;&gt;30 -->
<g id="edge60" class="edge"><title>60&#45;&gt;30</title>
<path fill="none" stroke="grey" stroke-width="2" d="M2920.13,-215.876C2904.71,-206.724 2885.52,-195.342 2868.9,-185.485"/>
<polygon fill="grey" stroke="grey" stroke-width="2" points="2870.36,-182.282 2859.98,-180.19 2866.79,-188.302 2870.36,-182.282"/>
</g>
<!-- 61 -->
<g id="node62" class="node"><title>61</title>
<path fill="none" stroke="#88d856" stroke-width="2" stroke-dasharray="5,2" d="M3080,-252C3080,-252 3026,-252 3026,-252 3020,-252 3014,-246 3014,-240 3014,-240 3014,-228 3014,-228 3014,-222 3020,-216 3026,-216 3026,-216 3080,-216 3080,-216 3086,-216 3092,-222 3092,-228 3092,-228 3092,-240 3092,-240 3092,-246 3086,-252 3080,-252"/>
<text text-anchor="middle" x="3053" y="-231.5" font-family="sans" font-size="10.00">CNV_infercnv</text>
</g>
<!-- 61&#45;&gt;31 -->
<g id="edge61" class="edge"><title>61&#45;&gt;31</title>
<path fill="none" stroke="grey" stroke-width="2" d="M3022.18,-215.876C3005.18,-206.432 2983.91,-194.614 2965.79,-184.548"/>
<polygon fill="grey" stroke="grey" stroke-width="2" points="2967.08,-181.262 2956.64,-179.465 2963.68,-187.381 2967.08,-181.262"/>
</g>
<!-- 62 -->
<g id="node63" class="node"><title>62</title>
<path fill="none" stroke="#56c1d8" stroke-width="2" stroke-dasharray="5,2" d="M74,-324C74,-324 12,-324 12,-324 6,-324 0,-318 0,-312 0,-312 0,-300 0,-300 0,-294 6,-288 12,-288 12,-288 74,-288 74,-288 80,-288 86,-294 86,-300 86,-300 86,-312 86,-312 86,-318 80,-324 74,-324"/>
<text text-anchor="middle" x="43" y="-309" font-family="sans" font-size="10.00">simulate_CNVs</text>
<text text-anchor="middle" x="43" y="-298" font-family="sans" font-size="10.00">sample: 4</text>
</g>
<!-- 62&#45;&gt;32 -->
<g id="edge62" class="edge"><title>62&#45;&gt;32</title>
<path fill="none" stroke="grey" stroke-width="2" d="M44.4831,-287.697C45.1443,-279.983 45.9389,-270.712 46.6761,-262.112"/>
<polygon fill="grey" stroke="grey" stroke-width="2" points="50.167,-262.367 47.5339,-252.104 43.1926,-261.769 50.167,-262.367"/>
</g>
<!-- 63 -->
<g id="node64" class="node"><title>63</title>
<path fill="none" stroke="#56c1d8" stroke-width="2" stroke-dasharray="5,2" d="M178,-324C178,-324 116,-324 116,-324 110,-324 104,-318 104,-312 104,-312 104,-300 104,-300 104,-294 110,-288 116,-288 116,-288 178,-288 178,-288 184,-288 190,-294 190,-300 190,-300 190,-312 190,-312 190,-318 184,-324 178,-324"/>
<text text-anchor="middle" x="147" y="-309" font-family="sans" font-size="10.00">simulate_CNVs</text>
<text text-anchor="middle" x="147" y="-298" font-family="sans" font-size="10.00">sample: 9</text>
</g>
<!-- 63&#45;&gt;33 -->
<g id="edge63" class="edge"><title>63&#45;&gt;33</title>
<path fill="none" stroke="grey" stroke-width="2" d="M147.989,-287.697C148.43,-279.983 148.959,-270.712 149.451,-262.112"/>
<polygon fill="grey" stroke="grey" stroke-width="2" points="152.946,-262.288 150.023,-252.104 145.958,-261.888 152.946,-262.288"/>
</g>
<!-- 64 -->
<g id="node65" class="node"><title>64</title>
<path fill="none" stroke="#56c1d8" stroke-width="2" stroke-dasharray="5,2" d="M282,-324C282,-324 220,-324 220,-324 214,-324 208,-318 208,-312 208,-312 208,-300 208,-300 208,-294 214,-288 220,-288 220,-288 282,-288 282,-288 288,-288 294,-294 294,-300 294,-300 294,-312 294,-312 294,-318 288,-324 282,-324"/>
<text text-anchor="middle" x="251" y="-309" font-family="sans" font-size="10.00">simulate_CNVs</text>
<text text-anchor="middle" x="251" y="-298" font-family="sans" font-size="10.00">sample: 12</text>
</g>
<!-- 64&#45;&gt;34 -->
<g id="edge64" class="edge"><title>64&#45;&gt;34</title>
<path fill="none" stroke="grey" stroke-width="2" d="M252.73,-287.697C253.502,-279.983 254.429,-270.712 255.289,-262.112"/>
<polygon fill="grey" stroke="grey" stroke-width="2" points="258.777,-262.403 256.29,-252.104 251.812,-261.706 258.777,-262.403"/>
</g>
<!-- 65 -->
<g id="node66" class="node"><title>65</title>
<path fill="none" stroke="#56c1d8" stroke-width="2" stroke-dasharray="5,2" d="M386,-324C386,-324 324,-324 324,-324 318,-324 312,-318 312,-312 312,-312 312,-300 312,-300 312,-294 318,-288 324,-288 324,-288 386,-288 386,-288 392,-288 398,-294 398,-300 398,-300 398,-312 398,-312 398,-318 392,-324 386,-324"/>
<text text-anchor="middle" x="355" y="-309" font-family="sans" font-size="10.00">simulate_CNVs</text>
<text text-anchor="middle" x="355" y="-298" font-family="sans" font-size="10.00">sample: 18</text>
</g>
<!-- 65&#45;&gt;35 -->
<g id="edge65" class="edge"><title>65&#45;&gt;35</title>
<path fill="none" stroke="grey" stroke-width="2" d="M356.73,-287.697C357.502,-279.983 358.429,-270.712 359.289,-262.112"/>
<polygon fill="grey" stroke="grey" stroke-width="2" points="362.777,-262.403 360.29,-252.104 355.812,-261.706 362.777,-262.403"/>
</g>
<!-- 66 -->
<g id="node67" class="node"><title>66</title>
<path fill="none" stroke="#56c1d8" stroke-width="2" stroke-dasharray="5,2" d="M490,-324C490,-324 428,-324 428,-324 422,-324 416,-318 416,-312 416,-312 416,-300 416,-300 416,-294 422,-288 428,-288 428,-288 490,-288 490,-288 496,-288 502,-294 502,-300 502,-300 502,-312 502,-312 502,-318 496,-324 490,-324"/>
<text text-anchor="middle" x="459" y="-309" font-family="sans" font-size="10.00">simulate_CNVs</text>
<text text-anchor="middle" x="459" y="-298" font-family="sans" font-size="10.00">sample: 30</text>
</g>
<!-- 66&#45;&gt;36 -->
<g id="edge66" class="edge"><title>66&#45;&gt;36</title>
<path fill="none" stroke="grey" stroke-width="2" d="M460.73,-287.697C461.502,-279.983 462.429,-270.712 463.289,-262.112"/>
<polygon fill="grey" stroke="grey" stroke-width="2" points="466.777,-262.403 464.29,-252.104 459.812,-261.706 466.777,-262.403"/>
</g>
<!-- 67 -->
<g id="node68" class="node"><title>67</title>
<path fill="none" stroke="#56c1d8" stroke-width="2" stroke-dasharray="5,2" d="M594,-324C594,-324 532,-324 532,-324 526,-324 520,-318 520,-312 520,-312 520,-300 520,-300 520,-294 526,-288 532,-288 532,-288 594,-288 594,-288 600,-288 606,-294 606,-300 606,-300 606,-312 606,-312 606,-318 600,-324 594,-324"/>
<text text-anchor="middle" x="563" y="-309" font-family="sans" font-size="10.00">simulate_CNVs</text>
<text text-anchor="middle" x="563" y="-298" font-family="sans" font-size="10.00">sample: 1</text>
</g>
<!-- 67&#45;&gt;37 -->
<g id="edge67" class="edge"><title>67&#45;&gt;37</title>
<path fill="none" stroke="grey" stroke-width="2" d="M564.73,-287.697C565.502,-279.983 566.429,-270.712 567.289,-262.112"/>
<polygon fill="grey" stroke="grey" stroke-width="2" points="570.777,-262.403 568.29,-252.104 563.812,-261.706 570.777,-262.403"/>
</g>
<!-- 68 -->
<g id="node69" class="node"><title>68</title>
<path fill="none" stroke="#56c1d8" stroke-width="2" stroke-dasharray="5,2" d="M698,-324C698,-324 636,-324 636,-324 630,-324 624,-318 624,-312 624,-312 624,-300 624,-300 624,-294 630,-288 636,-288 636,-288 698,-288 698,-288 704,-288 710,-294 710,-300 710,-300 710,-312 710,-312 710,-318 704,-324 698,-324"/>
<text text-anchor="middle" x="667" y="-309" font-family="sans" font-size="10.00">simulate_CNVs</text>
<text text-anchor="middle" x="667" y="-298" font-family="sans" font-size="10.00">sample: 6</text>
</g>
<!-- 68&#45;&gt;38 -->
<g id="edge68" class="edge"><title>68&#45;&gt;38</title>
<path fill="none" stroke="grey" stroke-width="2" d="M668.73,-287.697C669.502,-279.983 670.429,-270.712 671.289,-262.112"/>
<polygon fill="grey" stroke="grey" stroke-width="2" points="674.777,-262.403 672.29,-252.104 667.812,-261.706 674.777,-262.403"/>
</g>
<!-- 69 -->
<g id="node70" class="node"><title>69</title>
<path fill="none" stroke="#56c1d8" stroke-width="2" stroke-dasharray="5,2" d="M802,-324C802,-324 740,-324 740,-324 734,-324 728,-318 728,-312 728,-312 728,-300 728,-300 728,-294 734,-288 740,-288 740,-288 802,-288 802,-288 808,-288 814,-294 814,-300 814,-300 814,-312 814,-312 814,-318 808,-324 802,-324"/>
<text text-anchor="middle" x="771" y="-309" font-family="sans" font-size="10.00">simulate_CNVs</text>
<text text-anchor="middle" x="771" y="-298" font-family="sans" font-size="10.00">sample: 13</text>
</g>
<!-- 69&#45;&gt;39 -->
<g id="edge69" class="edge"><title>69&#45;&gt;39</title>
<path fill="none" stroke="grey" stroke-width="2" d="M772.73,-287.697C773.502,-279.983 774.429,-270.712 775.289,-262.112"/>
<polygon fill="grey" stroke="grey" stroke-width="2" points="778.777,-262.403 776.29,-252.104 771.812,-261.706 778.777,-262.403"/>
</g>
<!-- 70 -->
<g id="node71" class="node"><title>70</title>
<path fill="none" stroke="#56c1d8" stroke-width="2" stroke-dasharray="5,2" d="M906,-324C906,-324 844,-324 844,-324 838,-324 832,-318 832,-312 832,-312 832,-300 832,-300 832,-294 838,-288 844,-288 844,-288 906,-288 906,-288 912,-288 918,-294 918,-300 918,-300 918,-312 918,-312 918,-318 912,-324 906,-324"/>
<text text-anchor="middle" x="875" y="-309" font-family="sans" font-size="10.00">simulate_CNVs</text>
<text text-anchor="middle" x="875" y="-298" font-family="sans" font-size="10.00">sample: 15</text>
</g>
<!-- 70&#45;&gt;40 -->
<g id="edge70" class="edge"><title>70&#45;&gt;40</title>
<path fill="none" stroke="grey" stroke-width="2" d="M876.73,-287.697C877.502,-279.983 878.429,-270.712 879.289,-262.112"/>
<polygon fill="grey" stroke="grey" stroke-width="2" points="882.777,-262.403 880.29,-252.104 875.812,-261.706 882.777,-262.403"/>
</g>
<!-- 71 -->
<g id="node72" class="node"><title>71</title>
<path fill="none" stroke="#56c1d8" stroke-width="2" stroke-dasharray="5,2" d="M1010,-324C1010,-324 948,-324 948,-324 942,-324 936,-318 936,-312 936,-312 936,-300 936,-300 936,-294 942,-288 948,-288 948,-288 1010,-288 1010,-288 1016,-288 1022,-294 1022,-300 1022,-300 1022,-312 1022,-312 1022,-318 1016,-324 1010,-324"/>
<text text-anchor="middle" x="979" y="-309" font-family="sans" font-size="10.00">simulate_CNVs</text>
<text text-anchor="middle" x="979" y="-298" font-family="sans" font-size="10.00">sample: 20</text>
</g>
<!-- 71&#45;&gt;41 -->
<g id="edge71" class="edge"><title>71&#45;&gt;41</title>
<path fill="none" stroke="grey" stroke-width="2" d="M980.73,-287.697C981.502,-279.983 982.429,-270.712 983.289,-262.112"/>
<polygon fill="grey" stroke="grey" stroke-width="2" points="986.777,-262.403 984.29,-252.104 979.812,-261.706 986.777,-262.403"/>
</g>
<!-- 72 -->
<g id="node73" class="node"><title>72</title>
<path fill="none" stroke="#56c1d8" stroke-width="2" stroke-dasharray="5,2" d="M1114,-324C1114,-324 1052,-324 1052,-324 1046,-324 1040,-318 1040,-312 1040,-312 1040,-300 1040,-300 1040,-294 1046,-288 1052,-288 1052,-288 1114,-288 1114,-288 1120,-288 1126,-294 1126,-300 1126,-300 1126,-312 1126,-312 1126,-318 1120,-324 1114,-324"/>
<text text-anchor="middle" x="1083" y="-309" font-family="sans" font-size="10.00">simulate_CNVs</text>
<text text-anchor="middle" x="1083" y="-298" font-family="sans" font-size="10.00">sample: 11</text>
</g>
<!-- 72&#45;&gt;42 -->
<g id="edge72" class="edge"><title>72&#45;&gt;42</title>
<path fill="none" stroke="grey" stroke-width="2" d="M1084.73,-287.697C1085.5,-279.983 1086.43,-270.712 1087.29,-262.112"/>
<polygon fill="grey" stroke="grey" stroke-width="2" points="1090.78,-262.403 1088.29,-252.104 1083.81,-261.706 1090.78,-262.403"/>
</g>
<!-- 73 -->
<g id="node74" class="node"><title>73</title>
<path fill="none" stroke="#56c1d8" stroke-width="2" stroke-dasharray="5,2" d="M1218,-324C1218,-324 1156,-324 1156,-324 1150,-324 1144,-318 1144,-312 1144,-312 1144,-300 1144,-300 1144,-294 1150,-288 1156,-288 1156,-288 1218,-288 1218,-288 1224,-288 1230,-294 1230,-300 1230,-300 1230,-312 1230,-312 1230,-318 1224,-324 1218,-324"/>
<text text-anchor="middle" x="1187" y="-309" font-family="sans" font-size="10.00">simulate_CNVs</text>
<text text-anchor="middle" x="1187" y="-298" font-family="sans" font-size="10.00">sample: 22</text>
</g>
<!-- 73&#45;&gt;43 -->
<g id="edge73" class="edge"><title>73&#45;&gt;43</title>
<path fill="none" stroke="grey" stroke-width="2" d="M1188.73,-287.697C1189.5,-279.983 1190.43,-270.712 1191.29,-262.112"/>
<polygon fill="grey" stroke="grey" stroke-width="2" points="1194.78,-262.403 1192.29,-252.104 1187.81,-261.706 1194.78,-262.403"/>
</g>
<!-- 74 -->
<g id="node75" class="node"><title>74</title>
<path fill="none" stroke="#56c1d8" stroke-width="2" stroke-dasharray="5,2" d="M1322,-324C1322,-324 1260,-324 1260,-324 1254,-324 1248,-318 1248,-312 1248,-312 1248,-300 1248,-300 1248,-294 1254,-288 1260,-288 1260,-288 1322,-288 1322,-288 1328,-288 1334,-294 1334,-300 1334,-300 1334,-312 1334,-312 1334,-318 1328,-324 1322,-324"/>
<text text-anchor="middle" x="1291" y="-309" font-family="sans" font-size="10.00">simulate_CNVs</text>
<text text-anchor="middle" x="1291" y="-298" font-family="sans" font-size="10.00">sample: 17</text>
</g>
<!-- 74&#45;&gt;44 -->
<g id="edge74" class="edge"><title>74&#45;&gt;44</title>
<path fill="none" stroke="grey" stroke-width="2" d="M1292.48,-287.697C1293.14,-279.983 1293.94,-270.712 1294.68,-262.112"/>
<polygon fill="grey" stroke="grey" stroke-width="2" points="1298.17,-262.367 1295.53,-252.104 1291.19,-261.769 1298.17,-262.367"/>
</g>
<!-- 75 -->
<g id="node76" class="node"><title>75</title>
<path fill="none" stroke="#56c1d8" stroke-width="2" stroke-dasharray="5,2" d="M1426,-324C1426,-324 1364,-324 1364,-324 1358,-324 1352,-318 1352,-312 1352,-312 1352,-300 1352,-300 1352,-294 1358,-288 1364,-288 1364,-288 1426,-288 1426,-288 1432,-288 1438,-294 1438,-300 1438,-300 1438,-312 1438,-312 1438,-318 1432,-324 1426,-324"/>
<text text-anchor="middle" x="1395" y="-309" font-family="sans" font-size="10.00">simulate_CNVs</text>
<text text-anchor="middle" x="1395" y="-298" font-family="sans" font-size="10.00">sample: 14</text>
</g>
<!-- 75&#45;&gt;45 -->
<g id="edge75" class="edge"><title>75&#45;&gt;45</title>
<path fill="none" stroke="grey" stroke-width="2" d="M1396.24,-287.697C1396.79,-279.983 1397.45,-270.712 1398.06,-262.112"/>
<polygon fill="grey" stroke="grey" stroke-width="2" points="1401.56,-262.328 1398.78,-252.104 1394.57,-261.83 1401.56,-262.328"/>
</g>
<!-- 76 -->
<g id="node77" class="node"><title>76</title>
<path fill="none" stroke="#56c1d8" stroke-width="2" stroke-dasharray="5,2" d="M1530,-324C1530,-324 1468,-324 1468,-324 1462,-324 1456,-318 1456,-312 1456,-312 1456,-300 1456,-300 1456,-294 1462,-288 1468,-288 1468,-288 1530,-288 1530,-288 1536,-288 1542,-294 1542,-300 1542,-300 1542,-312 1542,-312 1542,-318 1536,-324 1530,-324"/>
<text text-anchor="middle" x="1499" y="-309" font-family="sans" font-size="10.00">simulate_CNVs</text>
<text text-anchor="middle" x="1499" y="-298" font-family="sans" font-size="10.00">sample: 19</text>
</g>
<!-- 76&#45;&gt;46 -->
<g id="edge76" class="edge"><title>76&#45;&gt;46</title>
<path fill="none" stroke="grey" stroke-width="2" d="M1499.49,-287.697C1499.71,-279.983 1499.98,-270.712 1500.23,-262.112"/>
<polygon fill="grey" stroke="grey" stroke-width="2" points="1503.72,-262.2 1500.51,-252.104 1496.73,-262 1503.72,-262.2"/>
</g>
<!-- 77 -->
<g id="node78" class="node"><title>77</title>
<path fill="none" stroke="#56c1d8" stroke-width="2" stroke-dasharray="5,2" d="M1634,-324C1634,-324 1572,-324 1572,-324 1566,-324 1560,-318 1560,-312 1560,-312 1560,-300 1560,-300 1560,-294 1566,-288 1572,-288 1572,-288 1634,-288 1634,-288 1640,-288 1646,-294 1646,-300 1646,-300 1646,-312 1646,-312 1646,-318 1640,-324 1634,-324"/>
<text text-anchor="middle" x="1603" y="-309" font-family="sans" font-size="10.00">simulate_CNVs</text>
<text text-anchor="middle" x="1603" y="-298" font-family="sans" font-size="10.00">sample: 2</text>
</g>
<!-- 77&#45;&gt;47 -->
<g id="edge77" class="edge"><title>77&#45;&gt;47</title>
<path fill="none" stroke="grey" stroke-width="2" d="M1602.51,-287.697C1602.29,-279.983 1602.02,-270.712 1601.77,-262.112"/>
<polygon fill="grey" stroke="grey" stroke-width="2" points="1605.27,-262 1601.49,-252.104 1598.28,-262.2 1605.27,-262"/>
</g>
<!-- 78 -->
<g id="node79" class="node"><title>78</title>
<path fill="none" stroke="#56c1d8" stroke-width="2" stroke-dasharray="5,2" d="M1738,-324C1738,-324 1676,-324 1676,-324 1670,-324 1664,-318 1664,-312 1664,-312 1664,-300 1664,-300 1664,-294 1670,-288 1676,-288 1676,-288 1738,-288 1738,-288 1744,-288 1750,-294 1750,-300 1750,-300 1750,-312 1750,-312 1750,-318 1744,-324 1738,-324"/>
<text text-anchor="middle" x="1707" y="-309" font-family="sans" font-size="10.00">simulate_CNVs</text>
<text text-anchor="middle" x="1707" y="-298" font-family="sans" font-size="10.00">sample: 29</text>
</g>
<!-- 78&#45;&gt;48 -->
<g id="edge78" class="edge"><title>78&#45;&gt;48</title>
<path fill="none" stroke="grey" stroke-width="2" d="M1706.01,-287.697C1705.57,-279.983 1705.04,-270.712 1704.55,-262.112"/>
<polygon fill="grey" stroke="grey" stroke-width="2" points="1708.04,-261.888 1703.98,-252.104 1701.05,-262.288 1708.04,-261.888"/>
</g>
<!-- 79 -->
<g id="node80" class="node"><title>79</title>
<path fill="none" stroke="#56c1d8" stroke-width="2" stroke-dasharray="5,2" d="M1842,-324C1842,-324 1780,-324 1780,-324 1774,-324 1768,-318 1768,-312 1768,-312 1768,-300 1768,-300 1768,-294 1774,-288 1780,-288 1780,-288 1842,-288 1842,-288 1848,-288 1854,-294 1854,-300 1854,-300 1854,-312 1854,-312 1854,-318 1848,-324 1842,-324"/>
<text text-anchor="middle" x="1811" y="-309" font-family="sans" font-size="10.00">simulate_CNVs</text>
<text text-anchor="middle" x="1811" y="-298" font-family="sans" font-size="10.00">sample: 16</text>
</g>
<!-- 79&#45;&gt;49 -->
<g id="edge79" class="edge"><title>79&#45;&gt;49</title>
<path fill="none" stroke="grey" stroke-width="2" d="M1809.76,-287.697C1809.21,-279.983 1808.55,-270.712 1807.94,-262.112"/>
<polygon fill="grey" stroke="grey" stroke-width="2" points="1811.43,-261.83 1807.22,-252.104 1804.44,-262.328 1811.43,-261.83"/>
</g>
<!-- 80 -->
<g id="node81" class="node"><title>80</title>
<path fill="none" stroke="#56c1d8" stroke-width="2" stroke-dasharray="5,2" d="M1946,-324C1946,-324 1884,-324 1884,-324 1878,-324 1872,-318 1872,-312 1872,-312 1872,-300 1872,-300 1872,-294 1878,-288 1884,-288 1884,-288 1946,-288 1946,-288 1952,-288 1958,-294 1958,-300 1958,-300 1958,-312 1958,-312 1958,-318 1952,-324 1946,-324"/>
<text text-anchor="middle" x="1915" y="-309" font-family="sans" font-size="10.00">simulate_CNVs</text>
<text text-anchor="middle" x="1915" y="-298" font-family="sans" font-size="10.00">sample: 25</text>
</g>
<!-- 80&#45;&gt;50 -->
<g id="edge80" class="edge"><title>80&#45;&gt;50</title>
<path fill="none" stroke="grey" stroke-width="2" d="M1913.52,-287.697C1912.86,-279.983 1912.06,-270.712 1911.32,-262.112"/>
<polygon fill="grey" stroke="grey" stroke-width="2" points="1914.81,-261.769 1910.47,-252.104 1907.83,-262.367 1914.81,-261.769"/>
</g>
<!-- 81 -->
<g id="node82" class="node"><title>81</title>
<path fill="none" stroke="#56c1d8" stroke-width="2" stroke-dasharray="5,2" d="M2050,-324C2050,-324 1988,-324 1988,-324 1982,-324 1976,-318 1976,-312 1976,-312 1976,-300 1976,-300 1976,-294 1982,-288 1988,-288 1988,-288 2050,-288 2050,-288 2056,-288 2062,-294 2062,-300 2062,-300 2062,-312 2062,-312 2062,-318 2056,-324 2050,-324"/>
<text text-anchor="middle" x="2019" y="-309" font-family="sans" font-size="10.00">simulate_CNVs</text>
<text text-anchor="middle" x="2019" y="-298" font-family="sans" font-size="10.00">sample: 28</text>
</g>
<!-- 81&#45;&gt;51 -->
<g id="edge81" class="edge"><title>81&#45;&gt;51</title>
<path fill="none" stroke="grey" stroke-width="2" d="M2017.52,-287.697C2016.86,-279.983 2016.06,-270.712 2015.32,-262.112"/>
<polygon fill="grey" stroke="grey" stroke-width="2" points="2018.81,-261.769 2014.47,-252.104 2011.83,-262.367 2018.81,-261.769"/>
</g>
<!-- 82 -->
<g id="node83" class="node"><title>82</title>
<path fill="none" stroke="#56c1d8" stroke-width="2" stroke-dasharray="5,2" d="M2154,-324C2154,-324 2092,-324 2092,-324 2086,-324 2080,-318 2080,-312 2080,-312 2080,-300 2080,-300 2080,-294 2086,-288 2092,-288 2092,-288 2154,-288 2154,-288 2160,-288 2166,-294 2166,-300 2166,-300 2166,-312 2166,-312 2166,-318 2160,-324 2154,-324"/>
<text text-anchor="middle" x="2123" y="-309" font-family="sans" font-size="10.00">simulate_CNVs</text>
<text text-anchor="middle" x="2123" y="-298" font-family="sans" font-size="10.00">sample: 7</text>
</g>
<!-- 82&#45;&gt;52 -->
<g id="edge82" class="edge"><title>82&#45;&gt;52</title>
<path fill="none" stroke="grey" stroke-width="2" d="M2121.52,-287.697C2120.86,-279.983 2120.06,-270.712 2119.32,-262.112"/>
<polygon fill="grey" stroke="grey" stroke-width="2" points="2122.81,-261.769 2118.47,-252.104 2115.83,-262.367 2122.81,-261.769"/>
</g>
<!-- 83 -->
<g id="node84" class="node"><title>83</title>
<path fill="none" stroke="#56c1d8" stroke-width="2" stroke-dasharray="5,2" d="M2258,-324C2258,-324 2196,-324 2196,-324 2190,-324 2184,-318 2184,-312 2184,-312 2184,-300 2184,-300 2184,-294 2190,-288 2196,-288 2196,-288 2258,-288 2258,-288 2264,-288 2270,-294 2270,-300 2270,-300 2270,-312 2270,-312 2270,-318 2264,-324 2258,-324"/>
<text text-anchor="middle" x="2227" y="-309" font-family="sans" font-size="10.00">simulate_CNVs</text>
<text text-anchor="middle" x="2227" y="-298" font-family="sans" font-size="10.00">sample: 8</text>
</g>
<!-- 83&#45;&gt;53 -->
<g id="edge83" class="edge"><title>83&#45;&gt;53</title>
<path fill="none" stroke="grey" stroke-width="2" d="M2225.52,-287.697C2224.86,-279.983 2224.06,-270.712 2223.32,-262.112"/>
<polygon fill="grey" stroke="grey" stroke-width="2" points="2226.81,-261.769 2222.47,-252.104 2219.83,-262.367 2226.81,-261.769"/>
</g>
<!-- 84 -->
<g id="node85" class="node"><title>84</title>
<path fill="none" stroke="#56c1d8" stroke-width="2" stroke-dasharray="5,2" d="M2362,-324C2362,-324 2300,-324 2300,-324 2294,-324 2288,-318 2288,-312 2288,-312 2288,-300 2288,-300 2288,-294 2294,-288 2300,-288 2300,-288 2362,-288 2362,-288 2368,-288 2374,-294 2374,-300 2374,-300 2374,-312 2374,-312 2374,-318 2368,-324 2362,-324"/>
<text text-anchor="middle" x="2331" y="-309" font-family="sans" font-size="10.00">simulate_CNVs</text>
<text text-anchor="middle" x="2331" y="-298" font-family="sans" font-size="10.00">sample: 27</text>
</g>
<!-- 84&#45;&gt;54 -->
<g id="edge84" class="edge"><title>84&#45;&gt;54</title>
<path fill="none" stroke="grey" stroke-width="2" d="M2329.52,-287.697C2328.86,-279.983 2328.06,-270.712 2327.32,-262.112"/>
<polygon fill="grey" stroke="grey" stroke-width="2" points="2330.81,-261.769 2326.47,-252.104 2323.83,-262.367 2330.81,-261.769"/>
</g>
<!-- 85 -->
<g id="node86" class="node"><title>85</title>
<path fill="none" stroke="#56c1d8" stroke-width="2" stroke-dasharray="5,2" d="M2466,-324C2466,-324 2404,-324 2404,-324 2398,-324 2392,-318 2392,-312 2392,-312 2392,-300 2392,-300 2392,-294 2398,-288 2404,-288 2404,-288 2466,-288 2466,-288 2472,-288 2478,-294 2478,-300 2478,-300 2478,-312 2478,-312 2478,-318 2472,-324 2466,-324"/>
<text text-anchor="middle" x="2435" y="-309" font-family="sans" font-size="10.00">simulate_CNVs</text>
<text text-anchor="middle" x="2435" y="-298" font-family="sans" font-size="10.00">sample: 24</text>
</g>
<!-- 85&#45;&gt;55 -->
<g id="edge85" class="edge"><title>85&#45;&gt;55</title>
<path fill="none" stroke="grey" stroke-width="2" d="M2433.52,-287.697C2432.86,-279.983 2432.06,-270.712 2431.32,-262.112"/>
<polygon fill="grey" stroke="grey" stroke-width="2" points="2434.81,-261.769 2430.47,-252.104 2427.83,-262.367 2434.81,-261.769"/>
</g>
<!-- 86 -->
<g id="node87" class="node"><title>86</title>
<path fill="none" stroke="#56c1d8" stroke-width="2" stroke-dasharray="5,2" d="M2570,-324C2570,-324 2508,-324 2508,-324 2502,-324 2496,-318 2496,-312 2496,-312 2496,-300 2496,-300 2496,-294 2502,-288 2508,-288 2508,-288 2570,-288 2570,-288 2576,-288 2582,-294 2582,-300 2582,-300 2582,-312 2582,-312 2582,-318 2576,-324 2570,-324"/>
<text text-anchor="middle" x="2539" y="-309" font-family="sans" font-size="10.00">simulate_CNVs</text>
<text text-anchor="middle" x="2539" y="-298" font-family="sans" font-size="10.00">sample: 5</text>
</g>
<!-- 86&#45;&gt;56 -->
<g id="edge86" class="edge"><title>86&#45;&gt;56</title>
<path fill="none" stroke="grey" stroke-width="2" d="M2537.52,-287.697C2536.86,-279.983 2536.06,-270.712 2535.32,-262.112"/>
<polygon fill="grey" stroke="grey" stroke-width="2" points="2538.81,-261.769 2534.47,-252.104 2531.83,-262.367 2538.81,-261.769"/>
</g>
<!-- 87 -->
<g id="node88" class="node"><title>87</title>
<path fill="none" stroke="#56c1d8" stroke-width="2" stroke-dasharray="5,2" d="M2674,-324C2674,-324 2612,-324 2612,-324 2606,-324 2600,-318 2600,-312 2600,-312 2600,-300 2600,-300 2600,-294 2606,-288 2612,-288 2612,-288 2674,-288 2674,-288 2680,-288 2686,-294 2686,-300 2686,-300 2686,-312 2686,-312 2686,-318 2680,-324 2674,-324"/>
<text text-anchor="middle" x="2643" y="-309" font-family="sans" font-size="10.00">simulate_CNVs</text>
<text text-anchor="middle" x="2643" y="-298" font-family="sans" font-size="10.00">sample: 10</text>
</g>
<!-- 87&#45;&gt;57 -->
<g id="edge87" class="edge"><title>87&#45;&gt;57</title>
<path fill="none" stroke="grey" stroke-width="2" d="M2641.52,-287.697C2640.86,-279.983 2640.06,-270.712 2639.32,-262.112"/>
<polygon fill="grey" stroke="grey" stroke-width="2" points="2642.81,-261.769 2638.47,-252.104 2635.83,-262.367 2642.81,-261.769"/>
</g>
<!-- 88 -->
<g id="node89" class="node"><title>88</title>
<path fill="none" stroke="#56c1d8" stroke-width="2" stroke-dasharray="5,2" d="M2778,-324C2778,-324 2716,-324 2716,-324 2710,-324 2704,-318 2704,-312 2704,-312 2704,-300 2704,-300 2704,-294 2710,-288 2716,-288 2716,-288 2778,-288 2778,-288 2784,-288 2790,-294 2790,-300 2790,-300 2790,-312 2790,-312 2790,-318 2784,-324 2778,-324"/>
<text text-anchor="middle" x="2747" y="-309" font-family="sans" font-size="10.00">simulate_CNVs</text>
<text text-anchor="middle" x="2747" y="-298" font-family="sans" font-size="10.00">sample: 23</text>
</g>
<!-- 88&#45;&gt;58 -->
<g id="edge88" class="edge"><title>88&#45;&gt;58</title>
<path fill="none" stroke="grey" stroke-width="2" d="M2745.52,-287.697C2744.86,-279.983 2744.06,-270.712 2743.32,-262.112"/>
<polygon fill="grey" stroke="grey" stroke-width="2" points="2746.81,-261.769 2742.47,-252.104 2739.83,-262.367 2746.81,-261.769"/>
</g>
<!-- 89 -->
<g id="node90" class="node"><title>89</title>
<path fill="none" stroke="#56c1d8" stroke-width="2" stroke-dasharray="5,2" d="M2882,-324C2882,-324 2820,-324 2820,-324 2814,-324 2808,-318 2808,-312 2808,-312 2808,-300 2808,-300 2808,-294 2814,-288 2820,-288 2820,-288 2882,-288 2882,-288 2888,-288 2894,-294 2894,-300 2894,-300 2894,-312 2894,-312 2894,-318 2888,-324 2882,-324"/>
<text text-anchor="middle" x="2851" y="-309" font-family="sans" font-size="10.00">simulate_CNVs</text>
<text text-anchor="middle" x="2851" y="-298" font-family="sans" font-size="10.00">sample: 21</text>
</g>
<!-- 89&#45;&gt;59 -->
<g id="edge89" class="edge"><title>89&#45;&gt;59</title>
<path fill="none" stroke="grey" stroke-width="2" d="M2849.52,-287.697C2848.86,-279.983 2848.06,-270.712 2847.32,-262.112"/>
<polygon fill="grey" stroke="grey" stroke-width="2" points="2850.81,-261.769 2846.47,-252.104 2843.83,-262.367 2850.81,-261.769"/>
</g>
<!-- 90 -->
<g id="node91" class="node"><title>90</title>
<path fill="none" stroke="#56c1d8" stroke-width="2" stroke-dasharray="5,2" d="M2986,-324C2986,-324 2924,-324 2924,-324 2918,-324 2912,-318 2912,-312 2912,-312 2912,-300 2912,-300 2912,-294 2918,-288 2924,-288 2924,-288 2986,-288 2986,-288 2992,-288 2998,-294 2998,-300 2998,-300 2998,-312 2998,-312 2998,-318 2992,-324 2986,-324"/>
<text text-anchor="middle" x="2955" y="-309" font-family="sans" font-size="10.00">simulate_CNVs</text>
<text text-anchor="middle" x="2955" y="-298" font-family="sans" font-size="10.00">sample: 3</text>
</g>
<!-- 90&#45;&gt;60 -->
<g id="edge90" class="edge"><title>90&#45;&gt;60</title>
<path fill="none" stroke="grey" stroke-width="2" d="M2953.52,-287.697C2952.86,-279.983 2952.06,-270.712 2951.32,-262.112"/>
<polygon fill="grey" stroke="grey" stroke-width="2" points="2954.81,-261.769 2950.47,-252.104 2947.83,-262.367 2954.81,-261.769"/>
</g>
<!-- 91 -->
<g id="node92" class="node"><title>91</title>
<path fill="none" stroke="#56c1d8" stroke-width="2" stroke-dasharray="5,2" d="M3090,-324C3090,-324 3028,-324 3028,-324 3022,-324 3016,-318 3016,-312 3016,-312 3016,-300 3016,-300 3016,-294 3022,-288 3028,-288 3028,-288 3090,-288 3090,-288 3096,-288 3102,-294 3102,-300 3102,-300 3102,-312 3102,-312 3102,-318 3096,-324 3090,-324"/>
<text text-anchor="middle" x="3059" y="-309" font-family="sans" font-size="10.00">simulate_CNVs</text>
<text text-anchor="middle" x="3059" y="-298" font-family="sans" font-size="10.00">sample: 26</text>
</g>
<!-- 91&#45;&gt;61 -->
<g id="edge91" class="edge"><title>91&#45;&gt;61</title>
<path fill="none" stroke="grey" stroke-width="2" d="M3057.52,-287.697C3056.86,-279.983 3056.06,-270.712 3055.32,-262.112"/>
<polygon fill="grey" stroke="grey" stroke-width="2" points="3058.81,-261.769 3054.47,-252.104 3051.83,-262.367 3058.81,-261.769"/>
</g>
<!-- 92 -->
<g id="node93" class="node"><title>92</title>
<path fill="none" stroke="#59d856" stroke-width="2" stroke-dasharray="5,2" d="M1582,-396C1582,-396 1520,-396 1520,-396 1514,-396 1508,-390 1508,-384 1508,-384 1508,-372 1508,-372 1508,-366 1514,-360 1520,-360 1520,-360 1582,-360 1582,-360 1588,-360 1594,-366 1594,-372 1594,-372 1594,-384 1594,-384 1594,-390 1588,-396 1582,-396"/>
<text text-anchor="middle" x="1551" y="-375.5" font-family="sans" font-size="10.00">normal_infercnv</text>
</g>
<!-- 92&#45;&gt;62 -->
<g id="edge92" class="edge"><title>92&#45;&gt;62</title>
<path fill="none" stroke="grey" stroke-width="2" d="M1507.99,-377.051C1300.1,-377.054 397.312,-374.217 96.2046,-323.851"/>
<polygon fill="grey" stroke="grey" stroke-width="2" points="96.6297,-320.373 86.1794,-322.117 95.4362,-327.27 96.6297,-320.373"/>
</g>
<!-- 92&#45;&gt;63 -->
<g id="edge93" class="edge"><title>92&#45;&gt;63</title>
<path fill="none" stroke="grey" stroke-width="2" d="M1507.77,-376.91C1308.84,-376.255 479.699,-370.816 200.286,-323.867"/>
<polygon fill="grey" stroke="grey" stroke-width="2" points="200.633,-320.375 190.181,-322.107 199.432,-327.271 200.633,-320.375"/>
</g>
<!-- 92&#45;&gt;64 -->
<g id="edge94" class="edge"><title>92&#45;&gt;64</title>
<path fill="none" stroke="grey" stroke-width="2" d="M1507.94,-376.748C1319.04,-375.401 562.057,-367.459 304.246,-323.863"/>
<polygon fill="grey" stroke="grey" stroke-width="2" points="304.638,-320.378 294.183,-322.096 303.427,-327.273 304.638,-320.378"/>
</g>
<!-- 92&#45;&gt;65 -->
<g id="edge95" class="edge"><title>92&#45;&gt;65</title>
<path fill="none" stroke="grey" stroke-width="2" d="M1507.92,-376.555C1329.11,-374.471 644.111,-364.101 408.076,-323.837"/>
<polygon fill="grey" stroke="grey" stroke-width="2" points="408.643,-320.383 398.185,-322.083 407.421,-327.275 408.643,-320.383"/>
</g>
<!-- 92&#45;&gt;66 -->
<g id="edge96" class="edge"><title>92&#45;&gt;66</title>
<path fill="none" stroke="grey" stroke-width="2" d="M1507.86,-376.323C1339.59,-373.45 726.55,-360.765 512.096,-323.844"/>
<polygon fill="grey" stroke="grey" stroke-width="2" points="512.649,-320.388 502.188,-322.068 511.414,-327.278 512.649,-320.388"/>
</g>
<!-- 92&#45;&gt;67 -->
<g id="edge97" class="edge"><title>92&#45;&gt;67</title>
<path fill="none" stroke="grey" stroke-width="2" d="M1507.88,-376.041C1350.87,-372.324 809.245,-357.465 616.214,-323.87"/>
<polygon fill="grey" stroke="grey" stroke-width="2" points="616.656,-320.393 606.192,-322.049 615.405,-327.281 616.656,-320.393"/>
</g>
<!-- 92&#45;&gt;68 -->
<g id="edge98" class="edge"><title>92&#45;&gt;68</title>
<path fill="none" stroke="grey" stroke-width="2" d="M1507.91,-375.691C1362.74,-371.06 891.502,-354.184 720.079,-323.854"/>
<polygon fill="grey" stroke="grey" stroke-width="2" points="720.666,-320.403 710.196,-322.025 719.393,-327.286 720.666,-320.403"/>
</g>
<!-- 92&#45;&gt;69 -->
<g id="edge99" class="edge"><title>92&#45;&gt;69</title>
<path fill="none" stroke="grey" stroke-width="2" d="M1507.85,-377.493C1395.89,-378.003 1087.11,-374.5 824.316,-323.968"/>
<polygon fill="grey" stroke="grey" stroke-width="2" points="824.687,-320.474 814.202,-321.995 823.347,-327.345 824.687,-320.474"/>
</g>
<!-- 92&#45;&gt;70 -->
<g id="edge100" class="edge"><title>92&#45;&gt;70</title>
<path fill="none" stroke="grey" stroke-width="2" d="M1507.77,-376.75C1407.16,-375.438 1149.65,-367.88 928.068,-323.939"/>
<polygon fill="grey" stroke="grey" stroke-width="2" points="928.704,-320.496 918.21,-321.955 927.323,-327.359 928.704,-320.496"/>
</g>
<!-- 92&#45;&gt;71 -->
<g id="edge101" class="edge"><title>92&#45;&gt;71</title>
<path fill="none" stroke="grey" stroke-width="2" d="M1507.71,-375.718C1419.54,-372.437 1212.87,-361.322 1032.17,-323.986"/>
<polygon fill="grey" stroke="grey" stroke-width="2" points="1032.73,-320.527 1022.22,-321.898 1031.29,-327.378 1032.73,-320.527"/>
</g>
<!-- 92&#45;&gt;72 -->
<g id="edge102" class="edge"><title>92&#45;&gt;72</title>
<path fill="none" stroke="grey" stroke-width="2" d="M1507.72,-374.195C1433.37,-368.792 1276.64,-354.844 1136.31,-324.06"/>
<polygon fill="grey" stroke="grey" stroke-width="2" points="1136.76,-320.574 1126.24,-321.815 1135.24,-327.407 1136.76,-320.574"/>
</g>
<!-- 92&#45;&gt;73 -->
<g id="edge103" class="edge"><title>92&#45;&gt;73</title>
<path fill="none" stroke="grey" stroke-width="2" d="M1507.94,-371.735C1449.27,-364.112 1340.86,-348.435 1240.01,-324.062"/>
<polygon fill="grey" stroke="grey" stroke-width="2" points="1240.82,-320.658 1230.27,-321.677 1239.15,-327.456 1240.82,-320.658"/>
</g>
<!-- 92&#45;&gt;74 -->
<g id="edge104" class="edge"><title>92&#45;&gt;74</title>
<path fill="none" stroke="grey" stroke-width="2" d="M1507.75,-366.867C1467.67,-357.278 1406.18,-342.069 1344.04,-324.211"/>
<polygon fill="grey" stroke="grey" stroke-width="2" points="1344.64,-320.741 1334.06,-321.322 1342.69,-327.465 1344.64,-320.741"/>
</g>
<!-- 92&#45;&gt;75 -->
<g id="edge105" class="edge"><title>92&#45;&gt;75</title>
<path fill="none" stroke="grey" stroke-width="2" d="M1512.84,-359.876C1491.61,-350.349 1464.99,-338.407 1442.43,-328.283"/>
<polygon fill="grey" stroke="grey" stroke-width="2" points="1443.59,-324.969 1433.04,-324.068 1440.73,-331.356 1443.59,-324.969"/>
</g>
<!-- 92&#45;&gt;76 -->
<g id="edge106" class="edge"><title>92&#45;&gt;76</title>
<path fill="none" stroke="grey" stroke-width="2" d="M1538.15,-359.697C1531.97,-351.389 1524.46,-341.277 1517.68,-332.141"/>
<polygon fill="grey" stroke="grey" stroke-width="2" points="1520.48,-330.045 1511.71,-324.104 1514.86,-334.219 1520.48,-330.045"/>
</g>
<!-- 92&#45;&gt;77 -->
<g id="edge107" class="edge"><title>92&#45;&gt;77</title>
<path fill="none" stroke="grey" stroke-width="2" d="M1563.85,-359.697C1570.03,-351.389 1577.54,-341.277 1584.32,-332.141"/>
<polygon fill="grey" stroke="grey" stroke-width="2" points="1587.14,-334.219 1590.29,-324.104 1581.52,-330.045 1587.14,-334.219"/>
</g>
<!-- 92&#45;&gt;78 -->
<g id="edge108" class="edge"><title>92&#45;&gt;78</title>
<path fill="none" stroke="grey" stroke-width="2" d="M1589.16,-359.876C1610.39,-350.349 1637.01,-338.407 1659.57,-328.283"/>
<polygon fill="grey" stroke="grey" stroke-width="2" points="1661.27,-331.356 1668.96,-324.068 1658.41,-324.969 1661.27,-331.356"/>
</g>
<!-- 92&#45;&gt;79 -->
<g id="edge109" class="edge"><title>92&#45;&gt;79</title>
<path fill="none" stroke="grey" stroke-width="2" d="M1594.25,-366.867C1634.33,-357.278 1695.82,-342.069 1757.96,-324.211"/>
<polygon fill="grey" stroke="grey" stroke-width="2" points="1759.31,-327.465 1767.94,-321.322 1757.36,-320.741 1759.31,-327.465"/>
</g>
<!-- 92&#45;&gt;80 -->
<g id="edge110" class="edge"><title>92&#45;&gt;80</title>
<path fill="none" stroke="grey" stroke-width="2" d="M1594.06,-371.735C1652.73,-364.112 1761.14,-348.435 1861.99,-324.062"/>
<polygon fill="grey" stroke="grey" stroke-width="2" points="1862.85,-327.456 1871.73,-321.677 1861.18,-320.658 1862.85,-327.456"/>
</g>
<!-- 92&#45;&gt;81 -->
<g id="edge111" class="edge"><title>92&#45;&gt;81</title>
<path fill="none" stroke="grey" stroke-width="2" d="M1594.28,-374.195C1668.63,-368.792 1825.36,-354.844 1965.69,-324.06"/>
<polygon fill="grey" stroke="grey" stroke-width="2" points="1966.76,-327.407 1975.76,-321.815 1965.24,-320.574 1966.76,-327.407"/>
</g>
<!-- 92&#45;&gt;82 -->
<g id="edge112" class="edge"><title>92&#45;&gt;82</title>
<path fill="none" stroke="grey" stroke-width="2" d="M1594.29,-375.718C1682.46,-372.437 1889.13,-361.322 2069.83,-323.986"/>
<polygon fill="grey" stroke="grey" stroke-width="2" points="2070.71,-327.378 2079.78,-321.898 2069.27,-320.527 2070.71,-327.378"/>
</g>
<!-- 92&#45;&gt;83 -->
<g id="edge113" class="edge"><title>92&#45;&gt;83</title>
<path fill="none" stroke="grey" stroke-width="2" d="M1594.23,-376.75C1694.84,-375.438 1952.35,-367.88 2173.93,-323.939"/>
<polygon fill="grey" stroke="grey" stroke-width="2" points="2174.68,-327.359 2183.79,-321.955 2173.3,-320.496 2174.68,-327.359"/>
</g>
<!-- 92&#45;&gt;84 -->
<g id="edge114" class="edge"><title>92&#45;&gt;84</title>
<path fill="none" stroke="grey" stroke-width="2" d="M1594.15,-377.493C1706.11,-378.003 2014.89,-374.5 2277.68,-323.968"/>
<polygon fill="grey" stroke="grey" stroke-width="2" points="2278.65,-327.345 2287.8,-321.995 2277.31,-320.474 2278.65,-327.345"/>
</g>
<!-- 92&#45;&gt;85 -->
<g id="edge115" class="edge"><title>92&#45;&gt;85</title>
<path fill="none" stroke="grey" stroke-width="2" d="M1594.09,-375.691C1739.26,-371.06 2210.5,-354.184 2381.92,-323.854"/>
<polygon fill="grey" stroke="grey" stroke-width="2" points="2382.61,-327.286 2391.8,-322.025 2381.33,-320.403 2382.61,-327.286"/>
</g>
<!-- 92&#45;&gt;86 -->
<g id="edge116" class="edge"><title>92&#45;&gt;86</title>
<path fill="none" stroke="grey" stroke-width="2" d="M1594.12,-376.041C1751.13,-372.324 2292.75,-357.465 2485.79,-323.87"/>
<polygon fill="grey" stroke="grey" stroke-width="2" points="2486.6,-327.281 2495.81,-322.049 2485.34,-320.393 2486.6,-327.281"/>
</g>
<!-- 92&#45;&gt;87 -->
<g id="edge117" class="edge"><title>92&#45;&gt;87</title>
<path fill="none" stroke="grey" stroke-width="2" d="M1594.14,-376.323C1762.41,-373.45 2375.45,-360.765 2589.9,-323.844"/>
<polygon fill="grey" stroke="grey" stroke-width="2" points="2590.59,-327.278 2599.81,-322.068 2589.35,-320.388 2590.59,-327.278"/>
</g>
<!-- 92&#45;&gt;88 -->
<g id="edge118" class="edge"><title>92&#45;&gt;88</title>
<path fill="none" stroke="grey" stroke-width="2" d="M1594.08,-376.555C1772.89,-374.471 2457.89,-364.101 2693.92,-323.837"/>
<polygon fill="grey" stroke="grey" stroke-width="2" points="2694.58,-327.275 2703.81,-322.083 2693.36,-320.383 2694.58,-327.275"/>
</g>
<!-- 92&#45;&gt;89 -->
<g id="edge119" class="edge"><title>92&#45;&gt;89</title>
<path fill="none" stroke="grey" stroke-width="2" d="M1594.06,-376.748C1782.96,-375.401 2539.94,-367.459 2797.75,-323.863"/>
<polygon fill="grey" stroke="grey" stroke-width="2" points="2798.57,-327.273 2807.82,-322.096 2797.36,-320.378 2798.57,-327.273"/>
</g>
<!-- 92&#45;&gt;90 -->
<g id="edge120" class="edge"><title>92&#45;&gt;90</title>
<path fill="none" stroke="grey" stroke-width="2" d="M1594.23,-376.91C1793.16,-376.255 2622.3,-370.816 2901.71,-323.867"/>
<polygon fill="grey" stroke="grey" stroke-width="2" points="2902.57,-327.271 2911.82,-322.107 2901.37,-320.375 2902.57,-327.271"/>
</g>
<!-- 92&#45;&gt;91 -->
<g id="edge121" class="edge"><title>92&#45;&gt;91</title>
<path fill="none" stroke="grey" stroke-width="2" d="M1594.01,-377.051C1801.9,-377.054 2704.69,-374.217 3005.8,-323.851"/>
<polygon fill="grey" stroke="grey" stroke-width="2" points="3006.56,-327.27 3015.82,-322.117 3005.37,-320.373 3006.56,-327.27"/>
</g>
</g>
</svg>
