<?xml version="1.0" encoding="UTF-8" standalone="no"?>
<!DOCTYPE svg PUBLIC "-//W3C//DTD SVG 1.1//EN"
 "http://www.w3.org/Graphics/SVG/1.1/DTD/svg11.dtd">
<!-- Generated by graphviz version 2.38.0 (20140413.2041)
 -->
<!-- Title: snakemake_dag Pages: 1 -->
<svg width="2630pt" height="409pt"
 viewBox="0.00 0.00 2630.00 409.00" xmlns="http://www.w3.org/2000/svg" xmlns:xlink="http://www.w3.org/1999/xlink">
<g id="graph0" class="graph" transform="scale(1 1) rotate(0) translate(4 405)">
<title>snakemake_dag</title>
<polygon fill="white" stroke="none" points="-4,4 -4,-405 2626,-405 2626,4 -4,4"/>
<!-- 0 -->
<g id="node1" class="node"><title>0</title>
<path fill="none" stroke="#56d8d8" stroke-width="2" d="M1237,-36C1237,-36 1207,-36 1207,-36 1201,-36 1195,-30 1195,-24 1195,-24 1195,-12 1195,-12 1195,-6 1201,-0 1207,-0 1207,-0 1237,-0 1237,-0 1243,-0 1249,-6 1249,-12 1249,-12 1249,-24 1249,-24 1249,-30 1243,-36 1237,-36"/>
<text text-anchor="middle" x="1222" y="-15.5" font-family="sans" font-size="10.00">all</text>
</g>
<!-- 1 -->
<g id="node2" class="node"><title>1</title>
<path fill="none" stroke="#56d89a" stroke-width="2" d="M1238,-108C1238,-108 1206,-108 1206,-108 1200,-108 1194,-102 1194,-96 1194,-96 1194,-84 1194,-84 1194,-78 1200,-72 1206,-72 1206,-72 1238,-72 1238,-72 1244,-72 1250,-78 1250,-84 1250,-84 1250,-96 1250,-96 1250,-102 1244,-108 1238,-108"/>
<text text-anchor="middle" x="1222" y="-87.5" font-family="sans" font-size="10.00">final_plot</text>
</g>
<!-- 1&#45;&gt;0 -->
<g id="edge1" class="edge"><title>1&#45;&gt;0</title>
<path fill="none" stroke="grey" stroke-width="2" d="M1222,-71.6966C1222,-63.9827 1222,-54.7125 1222,-46.1124"/>
<polygon fill="grey" stroke="grey" stroke-width="2" points="1225.5,-46.1043 1222,-36.1043 1218.5,-46.1044 1225.5,-46.1043"/>
</g>
<!-- 2 -->
<g id="node3" class="node"><title>2</title>
<path fill="none" stroke="#d89556" stroke-width="2" stroke-dasharray="5,2" d="M130,-180C130,-180 100,-180 100,-180 94,-180 88,-174 88,-168 88,-168 88,-156 88,-156 88,-150 94,-144 100,-144 100,-144 130,-144 130,-144 136,-144 142,-150 142,-156 142,-156 142,-168 142,-168 142,-174 136,-180 130,-180"/>
<text text-anchor="middle" x="115" y="-159.5" font-family="sans" font-size="10.00">plot</text>
</g>
<!-- 2&#45;&gt;1 -->
<g id="edge2" class="edge"><title>2&#45;&gt;1</title>
<path fill="none" stroke="grey" stroke-width="2" d="M142.186,-151.895C152.365,-148.859 164.104,-145.796 175,-144 374.885,-111.058 1018.85,-95.3304 1183.42,-91.7884"/>
<polygon fill="grey" stroke="grey" stroke-width="2" points="1183.63,-95.2847 1193.56,-91.5726 1183.48,-88.2863 1183.63,-95.2847"/>
</g>
<!-- 3 -->
<g id="node4" class="node"><title>3</title>
<path fill="none" stroke="#d89556" stroke-width="2" stroke-dasharray="5,2" d="M949,-180C949,-180 919,-180 919,-180 913,-180 907,-174 907,-168 907,-168 907,-156 907,-156 907,-150 913,-144 919,-144 919,-144 949,-144 949,-144 955,-144 961,-150 961,-156 961,-156 961,-168 961,-168 961,-174 955,-180 949,-180"/>
<text text-anchor="middle" x="934" y="-159.5" font-family="sans" font-size="10.00">plot</text>
</g>
<!-- 3&#45;&gt;1 -->
<g id="edge3" class="edge"><title>3&#45;&gt;1</title>
<path fill="none" stroke="grey" stroke-width="2" d="M961.244,-147.327C964.162,-146.107 967.117,-144.969 970,-144 1043.79,-119.201 1133.77,-103.618 1183.79,-96.1869"/>
<polygon fill="grey" stroke="grey" stroke-width="2" points="1184.45,-99.6285 1193.84,-94.7244 1183.44,-92.7015 1184.45,-99.6285"/>
</g>
<!-- 4 -->
<g id="node5" class="node"><title>4</title>
<path fill="none" stroke="#569ad8" stroke-width="2" stroke-dasharray="5,2" d="M294,-180C294,-180 196,-180 196,-180 190,-180 184,-174 184,-168 184,-168 184,-156 184,-156 184,-150 190,-144 196,-144 196,-144 294,-144 294,-144 300,-144 306,-150 306,-156 306,-156 306,-168 306,-168 306,-174 300,-180 294,-180"/>
<text text-anchor="middle" x="245" y="-159.5" font-family="sans" font-size="10.00">normal_plot_no_denoise</text>
</g>
<!-- 4&#45;&gt;1 -->
<g id="edge4" class="edge"><title>4&#45;&gt;1</title>
<path fill="none" stroke="grey" stroke-width="2" d="M306.334,-154.7C340.63,-151.289 384.167,-147.142 423,-144 715.26,-120.356 1068.3,-99.6959 1183.58,-93.1524"/>
<polygon fill="grey" stroke="grey" stroke-width="2" points="1183.89,-96.6408 1193.67,-92.5812 1183.49,-89.652 1183.89,-96.6408"/>
</g>
<!-- 5 -->
<g id="node6" class="node"><title>5</title>
<path fill="none" stroke="#d89556" stroke-width="2" stroke-dasharray="5,2" d="M1021,-180C1021,-180 991,-180 991,-180 985,-180 979,-174 979,-168 979,-168 979,-156 979,-156 979,-150 985,-144 991,-144 991,-144 1021,-144 1021,-144 1027,-144 1033,-150 1033,-156 1033,-156 1033,-168 1033,-168 1033,-174 1027,-180 1021,-180"/>
<text text-anchor="middle" x="1006" y="-159.5" font-family="sans" font-size="10.00">plot</text>
</g>
<!-- 5&#45;&gt;1 -->
<g id="edge5" class="edge"><title>5&#45;&gt;1</title>
<path fill="none" stroke="grey" stroke-width="2" d="M1033.33,-147.56C1036.23,-146.294 1039.16,-145.082 1042,-144 1090,-125.724 1147.16,-109.855 1183.98,-100.362"/>
<polygon fill="grey" stroke="grey" stroke-width="2" points="1184.98,-103.719 1193.8,-97.8561 1183.25,-96.9364 1184.98,-103.719"/>
</g>
<!-- 6 -->
<g id="node7" class="node"><title>6</title>
<path fill="none" stroke="#d89556" stroke-width="2" stroke-dasharray="5,2" d="M1730,-180C1730,-180 1700,-180 1700,-180 1694,-180 1688,-174 1688,-168 1688,-168 1688,-156 1688,-156 1688,-150 1694,-144 1700,-144 1700,-144 1730,-144 1730,-144 1736,-144 1742,-150 1742,-156 1742,-156 1742,-168 1742,-168 1742,-174 1736,-180 1730,-180"/>
<text text-anchor="middle" x="1715" y="-159.5" font-family="sans" font-size="10.00">plot</text>
</g>
<!-- 6&#45;&gt;1 -->
<g id="edge6" class="edge"><title>6&#45;&gt;1</title>
<path fill="none" stroke="grey" stroke-width="2" d="M1687.96,-153.559C1675.29,-150.274 1659.95,-146.581 1646,-144 1505.04,-117.917 1335.28,-101.012 1260.53,-94.291"/>
<polygon fill="grey" stroke="grey" stroke-width="2" points="1260.48,-90.7725 1250.21,-93.3734 1259.86,-97.745 1260.48,-90.7725"/>
</g>
<!-- 7 -->
<g id="node8" class="node"><title>7</title>
<path fill="none" stroke="#d89556" stroke-width="2" stroke-dasharray="5,2" d="M474,-180C474,-180 444,-180 444,-180 438,-180 432,-174 432,-168 432,-168 432,-156 432,-156 432,-150 438,-144 444,-144 444,-144 474,-144 474,-144 480,-144 486,-150 486,-156 486,-156 486,-168 486,-168 486,-174 480,-180 474,-180"/>
<text text-anchor="middle" x="459" y="-159.5" font-family="sans" font-size="10.00">plot</text>
</g>
<!-- 7&#45;&gt;1 -->
<g id="edge7" class="edge"><title>7&#45;&gt;1</title>
<path fill="none" stroke="grey" stroke-width="2" d="M486.051,-155.099C503.857,-151.411 527.722,-146.839 549,-144 789.392,-111.926 1080.88,-97.0752 1183.79,-92.5602"/>
<polygon fill="grey" stroke="grey" stroke-width="2" points="1184.16,-96.0477 1194,-92.1194 1183.86,-89.0542 1184.16,-96.0477"/>
</g>
<!-- 8 -->
<g id="node9" class="node"><title>8</title>
<path fill="none" stroke="#d89556" stroke-width="2" stroke-dasharray="5,2" d="M600,-180C600,-180 570,-180 570,-180 564,-180 558,-174 558,-168 558,-168 558,-156 558,-156 558,-150 564,-144 570,-144 570,-144 600,-144 600,-144 606,-144 612,-150 612,-156 612,-156 612,-168 612,-168 612,-174 606,-180 600,-180"/>
<text text-anchor="middle" x="585" y="-159.5" font-family="sans" font-size="10.00">plot</text>
</g>
<!-- 8&#45;&gt;1 -->
<g id="edge8" class="edge"><title>8&#45;&gt;1</title>
<path fill="none" stroke="grey" stroke-width="2" d="M612.058,-152.606C623.106,-149.466 636.069,-146.144 648,-144 847.883,-108.078 1091.55,-95.8029 1183.99,-92.2574"/>
<polygon fill="grey" stroke="grey" stroke-width="2" points="1184.13,-95.7548 1194,-91.8855 1183.87,-88.7596 1184.13,-95.7548"/>
</g>
<!-- 9 -->
<g id="node10" class="node"><title>9</title>
<path fill="none" stroke="#d89556" stroke-width="2" stroke-dasharray="5,2" d="M1835,-180C1835,-180 1805,-180 1805,-180 1799,-180 1793,-174 1793,-168 1793,-168 1793,-156 1793,-156 1793,-150 1799,-144 1805,-144 1805,-144 1835,-144 1835,-144 1841,-144 1847,-150 1847,-156 1847,-156 1847,-168 1847,-168 1847,-174 1841,-180 1835,-180"/>
<text text-anchor="middle" x="1820" y="-159.5" font-family="sans" font-size="10.00">plot</text>
</g>
<!-- 9&#45;&gt;1 -->
<g id="edge9" class="edge"><title>9&#45;&gt;1</title>
<path fill="none" stroke="grey" stroke-width="2" d="M1792.99,-153.403C1780.33,-150.086 1764.98,-146.41 1751,-144 1568.73,-112.578 1347.67,-97.8736 1260.24,-92.968"/>
<polygon fill="grey" stroke="grey" stroke-width="2" points="1260.18,-89.4599 1250.01,-92.4048 1259.8,-96.4493 1260.18,-89.4599"/>
</g>
<!-- 10 -->
<g id="node11" class="node"><title>10</title>
<path fill="none" stroke="#d89556" stroke-width="2" stroke-dasharray="5,2" d="M699,-180C699,-180 669,-180 669,-180 663,-180 657,-174 657,-168 657,-168 657,-156 657,-156 657,-150 663,-144 669,-144 669,-144 699,-144 699,-144 705,-144 711,-150 711,-156 711,-156 711,-168 711,-168 711,-174 705,-180 699,-180"/>
<text text-anchor="middle" x="684" y="-159.5" font-family="sans" font-size="10.00">plot</text>
</g>
<!-- 10&#45;&gt;1 -->
<g id="edge10" class="edge"><title>10&#45;&gt;1</title>
<path fill="none" stroke="grey" stroke-width="2" d="M711.195,-151.297C719.688,-148.577 729.151,-145.859 738,-144 901.654,-109.626 1101.41,-96.7283 1183.73,-92.6415"/>
<polygon fill="grey" stroke="grey" stroke-width="2" points="1184.05,-96.1305 1193.87,-92.1539 1183.71,-89.1386 1184.05,-96.1305"/>
</g>
<!-- 11 -->
<g id="node12" class="node"><title>11</title>
<path fill="none" stroke="#d89556" stroke-width="2" stroke-dasharray="5,2" d="M1093,-180C1093,-180 1063,-180 1063,-180 1057,-180 1051,-174 1051,-168 1051,-168 1051,-156 1051,-156 1051,-150 1057,-144 1063,-144 1063,-144 1093,-144 1093,-144 1099,-144 1105,-150 1105,-156 1105,-156 1105,-168 1105,-168 1105,-174 1099,-180 1093,-180"/>
<text text-anchor="middle" x="1078" y="-159.5" font-family="sans" font-size="10.00">plot</text>
</g>
<!-- 11&#45;&gt;1 -->
<g id="edge11" class="edge"><title>11&#45;&gt;1</title>
<path fill="none" stroke="grey" stroke-width="2" d="M1105.09,-147.834C1127.48,-136.947 1159.53,-121.368 1184.41,-109.274"/>
<polygon fill="grey" stroke="grey" stroke-width="2" points="1186.09,-112.346 1193.56,-104.826 1183.03,-106.05 1186.09,-112.346"/>
</g>
<!-- 12 -->
<g id="node13" class="node"><title>12</title>
<path fill="none" stroke="#d89556" stroke-width="2" stroke-dasharray="5,2" d="M522,-252C522,-252 492,-252 492,-252 486,-252 480,-246 480,-240 480,-240 480,-228 480,-228 480,-222 486,-216 492,-216 492,-216 522,-216 522,-216 528,-216 534,-222 534,-228 534,-228 534,-240 534,-240 534,-246 528,-252 522,-252"/>
<text text-anchor="middle" x="507" y="-231.5" font-family="sans" font-size="10.00">plot</text>
</g>
<!-- 12&#45;&gt;1 -->
<g id="edge12" class="edge"><title>12&#45;&gt;1</title>
<path fill="none" stroke="grey" stroke-width="2" d="M534.238,-219.308C537.157,-218.091 540.114,-216.959 543,-216 619.179,-190.678 647.11,-213.637 720,-180 743.572,-169.122 741.987,-153.867 766,-144 841.496,-112.978 1088.09,-97.6692 1183.67,-92.7882"/>
<polygon fill="grey" stroke="grey" stroke-width="2" points="1183.95,-96.2785 1193.76,-92.2829 1183.6,-89.2873 1183.95,-96.2785"/>
</g>
<!-- 13 -->
<g id="node14" class="node"><title>13</title>
<path fill="none" stroke="#d89556" stroke-width="2" stroke-dasharray="5,2" d="M594,-252C594,-252 564,-252 564,-252 558,-252 552,-246 552,-240 552,-240 552,-228 552,-228 552,-222 558,-216 564,-216 564,-216 594,-216 594,-216 600,-216 606,-222 606,-228 606,-228 606,-240 606,-240 606,-246 600,-252 594,-252"/>
<text text-anchor="middle" x="579" y="-231.5" font-family="sans" font-size="10.00">plot</text>
</g>
<!-- 13&#45;&gt;1 -->
<g id="edge13" class="edge"><title>13&#45;&gt;1</title>
<path fill="none" stroke="grey" stroke-width="2" d="M606.271,-219.406C609.184,-218.171 612.13,-217.007 615,-216 680.097,-193.148 704.009,-210.282 766,-180 789.014,-168.758 787.424,-154.009 811,-144 877.898,-115.598 1095.19,-99.0152 1183.83,-93.2861"/>
<polygon fill="grey" stroke="grey" stroke-width="2" points="1184.22,-96.7682 1193.98,-92.6412 1183.78,-89.7823 1184.22,-96.7682"/>
</g>
<!-- 14 -->
<g id="node15" class="node"><title>14</title>
<path fill="none" stroke="#d89556" stroke-width="2" stroke-dasharray="5,2" d="M1939,-180C1939,-180 1909,-180 1909,-180 1903,-180 1897,-174 1897,-168 1897,-168 1897,-156 1897,-156 1897,-150 1903,-144 1909,-144 1909,-144 1939,-144 1939,-144 1945,-144 1951,-150 1951,-156 1951,-156 1951,-168 1951,-168 1951,-174 1945,-180 1939,-180"/>
<text text-anchor="middle" x="1924" y="-159.5" font-family="sans" font-size="10.00">plot</text>
</g>
<!-- 14&#45;&gt;1 -->
<g id="edge14" class="edge"><title>14&#45;&gt;1</title>
<path fill="none" stroke="grey" stroke-width="2" d="M1896.75,-153.117C1884.4,-149.823 1869.57,-146.248 1856,-144 1632.06,-106.897 1359.08,-95.2089 1260.12,-92.0418"/>
<polygon fill="grey" stroke="grey" stroke-width="2" points="1260.11,-88.5399 1250.01,-91.7288 1259.89,-95.5366 1260.11,-88.5399"/>
</g>
<!-- 15 -->
<g id="node16" class="node"><title>15</title>
<path fill="none" stroke="#d89556" stroke-width="2" stroke-dasharray="5,2" d="M2040,-180C2040,-180 2010,-180 2010,-180 2004,-180 1998,-174 1998,-168 1998,-168 1998,-156 1998,-156 1998,-150 2004,-144 2010,-144 2010,-144 2040,-144 2040,-144 2046,-144 2052,-150 2052,-156 2052,-156 2052,-168 2052,-168 2052,-174 2046,-180 2040,-180"/>
<text text-anchor="middle" x="2025" y="-159.5" font-family="sans" font-size="10.00">plot</text>
</g>
<!-- 15&#45;&gt;1 -->
<g id="edge15" class="edge"><title>15&#45;&gt;1</title>
<path fill="none" stroke="grey" stroke-width="2" d="M1997.73,-152.672C1986.19,-149.462 1972.54,-146.073 1960,-144 1694.76,-100.175 1369.98,-92.5837 1260.26,-91.2725"/>
<polygon fill="grey" stroke="grey" stroke-width="2" points="1260.07,-87.7702 1250.03,-91.1613 1259.99,-94.7698 1260.07,-87.7702"/>
</g>
<!-- 16 -->
<g id="node17" class="node"><title>16</title>
<path fill="none" stroke="#d89556" stroke-width="2" stroke-dasharray="5,2" d="M666,-252C666,-252 636,-252 636,-252 630,-252 624,-246 624,-240 624,-240 624,-228 624,-228 624,-222 630,-216 636,-216 636,-216 666,-216 666,-216 672,-216 678,-222 678,-228 678,-228 678,-240 678,-240 678,-246 672,-252 666,-252"/>
<text text-anchor="middle" x="651" y="-231.5" font-family="sans" font-size="10.00">plot</text>
</g>
<!-- 16&#45;&gt;1 -->
<g id="edge16" class="edge"><title>16&#45;&gt;1</title>
<path fill="none" stroke="grey" stroke-width="2" d="M678.323,-219.549C681.226,-218.285 684.156,-217.077 687,-216 740.67,-195.684 760.681,-207.591 811,-180 832.263,-168.341 829.972,-154.14 852,-144 910.588,-117.03 1101.29,-99.9875 1183.6,-93.7171"/>
<polygon fill="grey" stroke="grey" stroke-width="2" points="1184.07,-97.1919 1193.78,-92.9547 1183.54,-90.2115 1184.07,-97.1919"/>
</g>
<!-- 17 -->
<g id="node18" class="node"><title>17</title>
<path fill="none" stroke="#d89556" stroke-width="2" stroke-dasharray="5,2" d="M2141,-180C2141,-180 2111,-180 2111,-180 2105,-180 2099,-174 2099,-168 2099,-168 2099,-156 2099,-156 2099,-150 2105,-144 2111,-144 2111,-144 2141,-144 2141,-144 2147,-144 2153,-150 2153,-156 2153,-156 2153,-168 2153,-168 2153,-174 2147,-180 2141,-180"/>
<text text-anchor="middle" x="2126" y="-159.5" font-family="sans" font-size="10.00">plot</text>
</g>
<!-- 17&#45;&gt;1 -->
<g id="edge17" class="edge"><title>17&#45;&gt;1</title>
<path fill="none" stroke="grey" stroke-width="2" d="M2098.73,-152.618C2087.2,-149.4 2073.55,-146.019 2061,-144 1755.02,-94.7944 1379.4,-90.7527 1260.18,-90.8053"/>
<polygon fill="grey" stroke="grey" stroke-width="2" points="1260.09,-87.3053 1250.1,-90.8201 1260.11,-94.3053 1260.09,-87.3053"/>
</g>
<!-- 18 -->
<g id="node19" class="node"><title>18</title>
<path fill="none" stroke="#d89556" stroke-width="2" stroke-dasharray="5,2" d="M1165,-180C1165,-180 1135,-180 1135,-180 1129,-180 1123,-174 1123,-168 1123,-168 1123,-156 1123,-156 1123,-150 1129,-144 1135,-144 1135,-144 1165,-144 1165,-144 1171,-144 1177,-150 1177,-156 1177,-156 1177,-168 1177,-168 1177,-174 1171,-180 1165,-180"/>
<text text-anchor="middle" x="1150" y="-159.5" font-family="sans" font-size="10.00">plot</text>
</g>
<!-- 18&#45;&gt;1 -->
<g id="edge18" class="edge"><title>18&#45;&gt;1</title>
<path fill="none" stroke="grey" stroke-width="2" d="M1167.8,-143.697C1176.6,-135.135 1187.38,-124.656 1197,-115.304"/>
<polygon fill="grey" stroke="grey" stroke-width="2" points="1199.68,-117.585 1204.41,-108.104 1194.8,-112.566 1199.68,-117.585"/>
</g>
<!-- 19 -->
<g id="node20" class="node"><title>19</title>
<path fill="none" stroke="#d89556" stroke-width="2" stroke-dasharray="5,2" d="M1237,-180C1237,-180 1207,-180 1207,-180 1201,-180 1195,-174 1195,-168 1195,-168 1195,-156 1195,-156 1195,-150 1201,-144 1207,-144 1207,-144 1237,-144 1237,-144 1243,-144 1249,-150 1249,-156 1249,-156 1249,-168 1249,-168 1249,-174 1243,-180 1237,-180"/>
<text text-anchor="middle" x="1222" y="-159.5" font-family="sans" font-size="10.00">plot</text>
</g>
<!-- 19&#45;&gt;1 -->
<g id="edge19" class="edge"><title>19&#45;&gt;1</title>
<path fill="none" stroke="grey" stroke-width="2" d="M1222,-143.697C1222,-135.983 1222,-126.712 1222,-118.112"/>
<polygon fill="grey" stroke="grey" stroke-width="2" points="1225.5,-118.104 1222,-108.104 1218.5,-118.104 1225.5,-118.104"/>
</g>
<!-- 20 -->
<g id="node21" class="node"><title>20</title>
<path fill="none" stroke="#d89556" stroke-width="2" stroke-dasharray="5,2" d="M1324,-180C1324,-180 1294,-180 1294,-180 1288,-180 1282,-174 1282,-168 1282,-168 1282,-156 1282,-156 1282,-150 1288,-144 1294,-144 1294,-144 1324,-144 1324,-144 1330,-144 1336,-150 1336,-156 1336,-156 1336,-168 1336,-168 1336,-174 1330,-180 1324,-180"/>
<text text-anchor="middle" x="1309" y="-159.5" font-family="sans" font-size="10.00">plot</text>
</g>
<!-- 20&#45;&gt;1 -->
<g id="edge20" class="edge"><title>20&#45;&gt;1</title>
<path fill="none" stroke="grey" stroke-width="2" d="M1287.49,-143.697C1276.54,-134.881 1263.05,-124.032 1251.18,-114.474"/>
<polygon fill="grey" stroke="grey" stroke-width="2" points="1253.24,-111.646 1243.26,-108.104 1248.86,-117.1 1253.24,-111.646"/>
</g>
<!-- 21 -->
<g id="node22" class="node"><title>21</title>
<path fill="none" stroke="#d89556" stroke-width="2" stroke-dasharray="5,2" d="M1420,-180C1420,-180 1390,-180 1390,-180 1384,-180 1378,-174 1378,-168 1378,-168 1378,-156 1378,-156 1378,-150 1384,-144 1390,-144 1390,-144 1420,-144 1420,-144 1426,-144 1432,-150 1432,-156 1432,-156 1432,-168 1432,-168 1432,-174 1426,-180 1420,-180"/>
<text text-anchor="middle" x="1405" y="-159.5" font-family="sans" font-size="10.00">plot</text>
</g>
<!-- 21&#45;&gt;1 -->
<g id="edge21" class="edge"><title>21&#45;&gt;1</title>
<path fill="none" stroke="grey" stroke-width="2" d="M1378,-150.671C1346.64,-138.678 1294.73,-118.822 1259.48,-105.338"/>
<polygon fill="grey" stroke="grey" stroke-width="2" points="1260.61,-102.02 1250.01,-101.716 1258.1,-108.558 1260.61,-102.02"/>
</g>
<!-- 22 -->
<g id="node23" class="node"><title>22</title>
<path fill="none" stroke="#d89556" stroke-width="2" stroke-dasharray="5,2" d="M2245,-180C2245,-180 2215,-180 2215,-180 2209,-180 2203,-174 2203,-168 2203,-168 2203,-156 2203,-156 2203,-150 2209,-144 2215,-144 2215,-144 2245,-144 2245,-144 2251,-144 2257,-150 2257,-156 2257,-156 2257,-168 2257,-168 2257,-174 2251,-180 2245,-180"/>
<text text-anchor="middle" x="2230" y="-159.5" font-family="sans" font-size="10.00">plot</text>
</g>
<!-- 22&#45;&gt;1 -->
<g id="edge22" class="edge"><title>22&#45;&gt;1</title>
<path fill="none" stroke="grey" stroke-width="2" d="M2202.78,-152.945C2190.44,-149.618 2175.6,-146.064 2162,-144 1815.02,-91.3276 1388.83,-89.7272 1260.39,-90.5809"/>
<polygon fill="grey" stroke="grey" stroke-width="2" points="1260.24,-87.0818 1250.27,-90.6577 1260.29,-94.0816 1260.24,-87.0818"/>
</g>
<!-- 23 -->
<g id="node24" class="node"><title>23</title>
<path fill="none" stroke="#d89556" stroke-width="2" stroke-dasharray="5,2" d="M1521,-180C1521,-180 1491,-180 1491,-180 1485,-180 1479,-174 1479,-168 1479,-168 1479,-156 1479,-156 1479,-150 1485,-144 1491,-144 1491,-144 1521,-144 1521,-144 1527,-144 1533,-150 1533,-156 1533,-156 1533,-168 1533,-168 1533,-174 1527,-180 1521,-180"/>
<text text-anchor="middle" x="1506" y="-159.5" font-family="sans" font-size="10.00">plot</text>
</g>
<!-- 23&#45;&gt;1 -->
<g id="edge23" class="edge"><title>23&#45;&gt;1</title>
<path fill="none" stroke="grey" stroke-width="2" d="M1478.83,-153.775C1467.19,-150.712 1453.44,-147.132 1441,-144 1377.61,-128.041 1303.66,-110.334 1259.95,-99.9613"/>
<polygon fill="grey" stroke="grey" stroke-width="2" points="1260.58,-96.5133 1250.04,-97.6125 1258.97,-103.325 1260.58,-96.5133"/>
</g>
<!-- 24 -->
<g id="node25" class="node"><title>24</title>
<path fill="none" stroke="#d89556" stroke-width="2" stroke-dasharray="5,2" d="M738,-252C738,-252 708,-252 708,-252 702,-252 696,-246 696,-240 696,-240 696,-228 696,-228 696,-222 702,-216 708,-216 708,-216 738,-216 738,-216 744,-216 750,-222 750,-228 750,-228 750,-240 750,-240 750,-246 744,-252 738,-252"/>
<text text-anchor="middle" x="723" y="-231.5" font-family="sans" font-size="10.00">plot</text>
</g>
<!-- 24&#45;&gt;1 -->
<g id="edge24" class="edge"><title>24&#45;&gt;1</title>
<path fill="none" stroke="grey" stroke-width="2" d="M750.032,-219.98C753.044,-218.605 756.078,-217.254 759,-216 799.732,-198.526 813.464,-201.895 852,-180 874.572,-167.175 874.223,-154.422 898,-144 994.723,-101.605 1121.16,-92.8146 1183.63,-91.1933"/>
<polygon fill="grey" stroke="grey" stroke-width="2" points="1183.89,-94.6887 1193.81,-90.9788 1183.74,-87.6903 1183.89,-94.6887"/>
</g>
<!-- 25 -->
<g id="node26" class="node"><title>25</title>
<path fill="none" stroke="#d89556" stroke-width="2" stroke-dasharray="5,2" d="M2350,-180C2350,-180 2320,-180 2320,-180 2314,-180 2308,-174 2308,-168 2308,-168 2308,-156 2308,-156 2308,-150 2314,-144 2320,-144 2320,-144 2350,-144 2350,-144 2356,-144 2362,-150 2362,-156 2362,-156 2362,-168 2362,-168 2362,-174 2356,-180 2350,-180"/>
<text text-anchor="middle" x="2335" y="-159.5" font-family="sans" font-size="10.00">plot</text>
</g>
<!-- 25&#45;&gt;1 -->
<g id="edge25" class="edge"><title>25&#45;&gt;1</title>
<path fill="none" stroke="grey" stroke-width="2" d="M2307.71,-153.002C2295.12,-149.643 2279.91,-146.048 2266,-144 2066.15,-114.584 1424.43,-96.2501 1260.44,-91.9683"/>
<polygon fill="grey" stroke="grey" stroke-width="2" points="1260.43,-88.4669 1250.34,-91.7066 1260.25,-95.4645 1260.43,-88.4669"/>
</g>
<!-- 26 -->
<g id="node27" class="node"><title>26</title>
<path fill="none" stroke="#d89556" stroke-width="2" stroke-dasharray="5,2" d="M1625,-180C1625,-180 1595,-180 1595,-180 1589,-180 1583,-174 1583,-168 1583,-168 1583,-156 1583,-156 1583,-150 1589,-144 1595,-144 1595,-144 1625,-144 1625,-144 1631,-144 1637,-150 1637,-156 1637,-156 1637,-168 1637,-168 1637,-174 1631,-180 1625,-180"/>
<text text-anchor="middle" x="1610" y="-159.5" font-family="sans" font-size="10.00">plot</text>
</g>
<!-- 26&#45;&gt;1 -->
<g id="edge26" class="edge"><title>26&#45;&gt;1</title>
<path fill="none" stroke="grey" stroke-width="2" d="M1582.98,-153.712C1570.55,-150.497 1555.58,-146.818 1542,-144 1441.09,-123.065 1320.92,-104.976 1260.6,-96.3629"/>
<polygon fill="grey" stroke="grey" stroke-width="2" points="1260.79,-92.8551 1250.39,-94.9154 1259.8,-99.7857 1260.79,-92.8551"/>
</g>
<!-- 27 -->
<g id="node28" class="node"><title>27</title>
<path fill="none" stroke="#d89556" stroke-width="2" stroke-dasharray="5,2" d="M2455,-180C2455,-180 2425,-180 2425,-180 2419,-180 2413,-174 2413,-168 2413,-168 2413,-156 2413,-156 2413,-150 2419,-144 2425,-144 2425,-144 2455,-144 2455,-144 2461,-144 2467,-150 2467,-156 2467,-156 2467,-168 2467,-168 2467,-174 2461,-180 2455,-180"/>
<text text-anchor="middle" x="2440" y="-159.5" font-family="sans" font-size="10.00">plot</text>
</g>
<!-- 27&#45;&gt;1 -->
<g id="edge27" class="edge"><title>27&#45;&gt;1</title>
<path fill="none" stroke="grey" stroke-width="2" d="M2412.71,-152.972C2400.12,-149.608 2384.92,-146.016 2371,-144 2149.36,-111.899 1434.02,-95.3627 1260.29,-91.7599"/>
<polygon fill="grey" stroke="grey" stroke-width="2" points="1260.17,-88.2568 1250.1,-91.5506 1260.02,-95.2553 1260.17,-88.2568"/>
</g>
<!-- 28 -->
<g id="node29" class="node"><title>28</title>
<path fill="none" stroke="#d89556" stroke-width="2" stroke-dasharray="5,2" d="M2560,-180C2560,-180 2530,-180 2530,-180 2524,-180 2518,-174 2518,-168 2518,-168 2518,-156 2518,-156 2518,-150 2524,-144 2530,-144 2530,-144 2560,-144 2560,-144 2566,-144 2572,-150 2572,-156 2572,-156 2572,-168 2572,-168 2572,-174 2566,-180 2560,-180"/>
<text text-anchor="middle" x="2545" y="-159.5" font-family="sans" font-size="10.00">plot</text>
</g>
<!-- 28&#45;&gt;1 -->
<g id="edge28" class="edge"><title>28&#45;&gt;1</title>
<path fill="none" stroke="grey" stroke-width="2" d="M2517.71,-152.947C2505.13,-149.578 2489.92,-145.989 2476,-144 2232.64,-109.233 1444.14,-94.5802 1260.48,-91.5928"/>
<polygon fill="grey" stroke="grey" stroke-width="2" points="1260.29,-88.0894 1250.24,-91.4281 1260.18,-95.0885 1260.29,-88.0894"/>
</g>
<!-- 29 -->
<g id="node30" class="node"><title>29</title>
<path fill="none" stroke="#97d856" stroke-width="2" stroke-dasharray="5,2" d="M76,-329C76,-329 12,-329 12,-329 6,-329 0,-323 0,-317 0,-317 0,-300 0,-300 0,-294 6,-288 12,-288 12,-288 76,-288 76,-288 82,-288 88,-294 88,-300 88,-300 88,-317 88,-317 88,-323 82,-329 76,-329"/>
<text text-anchor="middle" x="44" y="-317" font-family="sans" font-size="10.00">infercnv</text>
<text text-anchor="middle" x="44" y="-306" font-family="sans" font-size="10.00">denoise_val: 1.2</text>
<text text-anchor="middle" x="44" y="-295" font-family="sans" font-size="10.00">sample: normal</text>
</g>
<!-- 29&#45;&gt;2 -->
<g id="edge29" class="edge"><title>29&#45;&gt;2</title>
<path fill="none" stroke="grey" stroke-width="2" d="M53.7234,-287.711C66.2255,-262.266 87.9817,-217.988 101.924,-189.612"/>
<polygon fill="grey" stroke="grey" stroke-width="2" points="105.233,-190.814 106.502,-180.296 98.9506,-187.727 105.233,-190.814"/>
</g>
<!-- 30 -->
<g id="node31" class="node"><title>30</title>
<path fill="none" stroke="#97d856" stroke-width="2" stroke-dasharray="5,2" d="M841.5,-252C841.5,-252 780.5,-252 780.5,-252 774.5,-252 768.5,-246 768.5,-240 768.5,-240 768.5,-228 768.5,-228 768.5,-222 774.5,-216 780.5,-216 780.5,-216 841.5,-216 841.5,-216 847.5,-216 853.5,-222 853.5,-228 853.5,-228 853.5,-240 853.5,-240 853.5,-246 847.5,-252 841.5,-252"/>
<text text-anchor="middle" x="811" y="-237" font-family="sans" font-size="10.00">infercnv</text>
<text text-anchor="middle" x="811" y="-226" font-family="sans" font-size="10.00">denoise_val: no</text>
</g>
<!-- 30&#45;&gt;3 -->
<g id="edge30" class="edge"><title>30&#45;&gt;3</title>
<path fill="none" stroke="grey" stroke-width="2" d="M841.089,-215.876C858.168,-206.156 879.665,-193.922 897.679,-183.671"/>
<polygon fill="grey" stroke="grey" stroke-width="2" points="899.779,-186.502 906.739,-178.514 896.317,-180.419 899.779,-186.502"/>
</g>
<!-- 31 -->
<g id="node32" class="node"><title>31</title>
<path fill="none" stroke="#d85656" stroke-width="2" stroke-dasharray="5,2" d="M234,-326.5C234,-326.5 118,-326.5 118,-326.5 112,-326.5 106,-320.5 106,-314.5 106,-314.5 106,-302.5 106,-302.5 106,-296.5 112,-290.5 118,-290.5 118,-290.5 234,-290.5 234,-290.5 240,-290.5 246,-296.5 246,-302.5 246,-302.5 246,-314.5 246,-314.5 246,-320.5 240,-326.5 234,-326.5"/>
<text text-anchor="middle" x="176" y="-306" font-family="sans" font-size="10.00">normal_infercnv_no_denoise</text>
</g>
<!-- 31&#45;&gt;4 -->
<g id="edge31" class="edge"><title>31&#45;&gt;4</title>
<path fill="none" stroke="grey" stroke-width="2" d="M184.186,-290.357C196.117,-265.371 218.385,-218.737 232.411,-189.364"/>
<polygon fill="grey" stroke="grey" stroke-width="2" points="235.674,-190.653 236.824,-180.121 229.357,-187.637 235.674,-190.653"/>
</g>
<!-- 32 -->
<g id="node33" class="node"><title>32</title>
<path fill="none" stroke="#97d856" stroke-width="2" stroke-dasharray="5,2" d="M940,-252C940,-252 884,-252 884,-252 878,-252 872,-246 872,-240 872,-240 872,-228 872,-228 872,-222 878,-216 884,-216 884,-216 940,-216 940,-216 946,-216 952,-222 952,-228 952,-228 952,-240 952,-240 952,-246 946,-252 940,-252"/>
<text text-anchor="middle" x="912" y="-237" font-family="sans" font-size="10.00">infercnv</text>
<text text-anchor="middle" x="912" y="-226" font-family="sans" font-size="10.00">denoise_val: 2</text>
</g>
<!-- 32&#45;&gt;5 -->
<g id="edge32" class="edge"><title>32&#45;&gt;5</title>
<path fill="none" stroke="grey" stroke-width="2" d="M935.236,-215.697C947.188,-206.796 961.923,-195.823 974.847,-186.199"/>
<polygon fill="grey" stroke="grey" stroke-width="2" points="977.101,-188.884 983.031,-180.104 972.92,-183.27 977.101,-188.884"/>
</g>
<!-- 33 -->
<g id="node34" class="node"><title>33</title>
<path fill="none" stroke="#97d856" stroke-width="2" stroke-dasharray="5,2" d="M1780,-252C1780,-252 1716,-252 1716,-252 1710,-252 1704,-246 1704,-240 1704,-240 1704,-228 1704,-228 1704,-222 1710,-216 1716,-216 1716,-216 1780,-216 1780,-216 1786,-216 1792,-222 1792,-228 1792,-228 1792,-240 1792,-240 1792,-246 1786,-252 1780,-252"/>
<text text-anchor="middle" x="1748" y="-237" font-family="sans" font-size="10.00">infercnv</text>
<text text-anchor="middle" x="1748" y="-226" font-family="sans" font-size="10.00">denoise_val: 0.5</text>
</g>
<!-- 33&#45;&gt;6 -->
<g id="edge33" class="edge"><title>33&#45;&gt;6</title>
<path fill="none" stroke="grey" stroke-width="2" d="M1739.84,-215.697C1736.09,-207.728 1731.55,-198.1 1727.38,-189.264"/>
<polygon fill="grey" stroke="grey" stroke-width="2" points="1730.49,-187.657 1723.06,-180.104 1724.16,-190.642 1730.49,-187.657"/>
</g>
<!-- 34 -->
<g id="node35" class="node"><title>34</title>
<path fill="none" stroke="#97d856" stroke-width="2" stroke-dasharray="5,2" d="M340,-329C340,-329 276,-329 276,-329 270,-329 264,-323 264,-317 264,-317 264,-300 264,-300 264,-294 270,-288 276,-288 276,-288 340,-288 340,-288 346,-288 352,-294 352,-300 352,-300 352,-317 352,-317 352,-323 346,-329 340,-329"/>
<text text-anchor="middle" x="308" y="-317" font-family="sans" font-size="10.00">infercnv</text>
<text text-anchor="middle" x="308" y="-306" font-family="sans" font-size="10.00">denoise_val: 0.5</text>
<text text-anchor="middle" x="308" y="-295" font-family="sans" font-size="10.00">sample: normal</text>
</g>
<!-- 34&#45;&gt;7 -->
<g id="edge34" class="edge"><title>34&#45;&gt;7</title>
<path fill="none" stroke="grey" stroke-width="2" d="M327.104,-287.932C345.519,-269.205 374.298,-240.295 400,-216 410.185,-206.372 421.598,-196.022 431.653,-187.045"/>
<polygon fill="grey" stroke="grey" stroke-width="2" points="434.227,-189.44 439.376,-180.181 429.576,-184.208 434.227,-189.44"/>
</g>
<!-- 35 -->
<g id="node36" class="node"><title>35</title>
<path fill="none" stroke="#97d856" stroke-width="2" stroke-dasharray="5,2" d="M446,-329C446,-329 382,-329 382,-329 376,-329 370,-323 370,-317 370,-317 370,-300 370,-300 370,-294 376,-288 382,-288 382,-288 446,-288 446,-288 452,-288 458,-294 458,-300 458,-300 458,-317 458,-317 458,-323 452,-329 446,-329"/>
<text text-anchor="middle" x="414" y="-317" font-family="sans" font-size="10.00">infercnv</text>
<text text-anchor="middle" x="414" y="-306" font-family="sans" font-size="10.00">denoise_val: 1.5</text>
<text text-anchor="middle" x="414" y="-295" font-family="sans" font-size="10.00">sample: normal</text>
</g>
<!-- 35&#45;&gt;8 -->
<g id="edge35" class="edge"><title>35&#45;&gt;8</title>
<path fill="none" stroke="grey" stroke-width="2" d="M419.67,-287.904C426.472,-267.513 439.703,-235.844 461,-216 485.453,-193.215 521.195,-179.36 548.031,-171.562"/>
<polygon fill="grey" stroke="grey" stroke-width="2" points="549.125,-174.891 557.838,-168.863 547.268,-168.142 549.125,-174.891"/>
</g>
<!-- 36 -->
<g id="node37" class="node"><title>36</title>
<path fill="none" stroke="#97d856" stroke-width="2" stroke-dasharray="5,2" d="M1886,-252C1886,-252 1822,-252 1822,-252 1816,-252 1810,-246 1810,-240 1810,-240 1810,-228 1810,-228 1810,-222 1816,-216 1822,-216 1822,-216 1886,-216 1886,-216 1892,-216 1898,-222 1898,-228 1898,-228 1898,-240 1898,-240 1898,-246 1892,-252 1886,-252"/>
<text text-anchor="middle" x="1854" y="-237" font-family="sans" font-size="10.00">infercnv</text>
<text text-anchor="middle" x="1854" y="-226" font-family="sans" font-size="10.00">denoise_val: 1.4</text>
</g>
<!-- 36&#45;&gt;9 -->
<g id="edge36" class="edge"><title>36&#45;&gt;9</title>
<path fill="none" stroke="grey" stroke-width="2" d="M1845.6,-215.697C1841.73,-207.728 1837.05,-198.1 1832.76,-189.264"/>
<polygon fill="grey" stroke="grey" stroke-width="2" points="1835.83,-187.57 1828.31,-180.104 1829.53,-190.629 1835.83,-187.57"/>
</g>
<!-- 37 -->
<g id="node38" class="node"><title>37</title>
<path fill="none" stroke="#97d856" stroke-width="2" stroke-dasharray="5,2" d="M552,-329C552,-329 488,-329 488,-329 482,-329 476,-323 476,-317 476,-317 476,-300 476,-300 476,-294 482,-288 488,-288 488,-288 552,-288 552,-288 558,-288 564,-294 564,-300 564,-300 564,-317 564,-317 564,-323 558,-329 552,-329"/>
<text text-anchor="middle" x="520" y="-317" font-family="sans" font-size="10.00">infercnv</text>
<text text-anchor="middle" x="520" y="-306" font-family="sans" font-size="10.00">denoise_val: 1.1</text>
<text text-anchor="middle" x="520" y="-295" font-family="sans" font-size="10.00">sample: normal</text>
</g>
<!-- 37&#45;&gt;10 -->
<g id="edge37" class="edge"><title>37&#45;&gt;10</title>
<path fill="none" stroke="grey" stroke-width="2" d="M496.586,-287.736C476.459,-268.347 453.261,-238.5 471,-216 513.447,-162.16 554.564,-196.932 621,-180 629.443,-177.848 638.498,-175.455 647.037,-173.16"/>
<polygon fill="grey" stroke="grey" stroke-width="2" points="648.016,-176.521 656.755,-170.531 646.188,-169.764 648.016,-176.521"/>
</g>
<!-- 38 -->
<g id="node39" class="node"><title>38</title>
<path fill="none" stroke="#97d856" stroke-width="2" stroke-dasharray="5,2" d="M1046,-252C1046,-252 982,-252 982,-252 976,-252 970,-246 970,-240 970,-240 970,-228 970,-228 970,-222 976,-216 982,-216 982,-216 1046,-216 1046,-216 1052,-216 1058,-222 1058,-228 1058,-228 1058,-240 1058,-240 1058,-246 1052,-252 1046,-252"/>
<text text-anchor="middle" x="1014" y="-237" font-family="sans" font-size="10.00">infercnv</text>
<text text-anchor="middle" x="1014" y="-226" font-family="sans" font-size="10.00">denoise_val: 1.3</text>
</g>
<!-- 38&#45;&gt;11 -->
<g id="edge38" class="edge"><title>38&#45;&gt;11</title>
<path fill="none" stroke="grey" stroke-width="2" d="M1029.82,-215.697C1037.57,-207.22 1047.04,-196.864 1055.52,-187.583"/>
<polygon fill="grey" stroke="grey" stroke-width="2" points="1058.2,-189.846 1062.36,-180.104 1053.03,-185.123 1058.2,-189.846"/>
</g>
<!-- 39 -->
<g id="node40" class="node"><title>39</title>
<path fill="none" stroke="#97d856" stroke-width="2" stroke-dasharray="5,2" d="M658,-329C658,-329 594,-329 594,-329 588,-329 582,-323 582,-317 582,-317 582,-300 582,-300 582,-294 588,-288 594,-288 594,-288 658,-288 658,-288 664,-288 670,-294 670,-300 670,-300 670,-317 670,-317 670,-323 664,-329 658,-329"/>
<text text-anchor="middle" x="626" y="-317" font-family="sans" font-size="10.00">infercnv</text>
<text text-anchor="middle" x="626" y="-306" font-family="sans" font-size="10.00">denoise_val: 1.4</text>
<text text-anchor="middle" x="626" y="-295" font-family="sans" font-size="10.00">sample: normal</text>
</g>
<!-- 39&#45;&gt;12 -->
<g id="edge39" class="edge"><title>39&#45;&gt;12</title>
<path fill="none" stroke="grey" stroke-width="2" d="M593.797,-287.88C578.116,-278.327 559.206,-266.806 543.044,-256.96"/>
<polygon fill="grey" stroke="grey" stroke-width="2" points="544.747,-253.899 534.386,-251.685 541.105,-259.877 544.747,-253.899"/>
</g>
<!-- 40 -->
<g id="node41" class="node"><title>40</title>
<path fill="none" stroke="#97d856" stroke-width="2" stroke-dasharray="5,2" d="M759.5,-329C759.5,-329 700.5,-329 700.5,-329 694.5,-329 688.5,-323 688.5,-317 688.5,-317 688.5,-300 688.5,-300 688.5,-294 694.5,-288 700.5,-288 700.5,-288 759.5,-288 759.5,-288 765.5,-288 771.5,-294 771.5,-300 771.5,-300 771.5,-317 771.5,-317 771.5,-323 765.5,-329 759.5,-329"/>
<text text-anchor="middle" x="730" y="-317" font-family="sans" font-size="10.00">infercnv</text>
<text text-anchor="middle" x="730" y="-306" font-family="sans" font-size="10.00">denoise_val: 1</text>
<text text-anchor="middle" x="730" y="-295" font-family="sans" font-size="10.00">sample: normal</text>
</g>
<!-- 40&#45;&gt;13 -->
<g id="edge40" class="edge"><title>40&#45;&gt;13</title>
<path fill="none" stroke="grey" stroke-width="2" d="M689.137,-287.88C666.057,-276.799 637.463,-263.07 615.195,-252.378"/>
<polygon fill="grey" stroke="grey" stroke-width="2" points="616.603,-249.172 606.073,-247.999 613.573,-255.482 616.603,-249.172"/>
</g>
<!-- 41 -->
<g id="node42" class="node"><title>41</title>
<path fill="none" stroke="#97d856" stroke-width="2" stroke-dasharray="5,2" d="M1984,-252C1984,-252 1928,-252 1928,-252 1922,-252 1916,-246 1916,-240 1916,-240 1916,-228 1916,-228 1916,-222 1922,-216 1928,-216 1928,-216 1984,-216 1984,-216 1990,-216 1996,-222 1996,-228 1996,-228 1996,-240 1996,-240 1996,-246 1990,-252 1984,-252"/>
<text text-anchor="middle" x="1956" y="-237" font-family="sans" font-size="10.00">infercnv</text>
<text text-anchor="middle" x="1956" y="-226" font-family="sans" font-size="10.00">denoise_val: 1</text>
</g>
<!-- 41&#45;&gt;14 -->
<g id="edge41" class="edge"><title>41&#45;&gt;14</title>
<path fill="none" stroke="grey" stroke-width="2" d="M1948.09,-215.697C1944.45,-207.728 1940.05,-198.1 1936.01,-189.264"/>
<polygon fill="grey" stroke="grey" stroke-width="2" points="1939.16,-187.744 1931.82,-180.104 1932.79,-190.654 1939.16,-187.744"/>
</g>
<!-- 42 -->
<g id="node43" class="node"><title>42</title>
<path fill="none" stroke="#97d856" stroke-width="2" stroke-dasharray="5,2" d="M2082,-252C2082,-252 2026,-252 2026,-252 2020,-252 2014,-246 2014,-240 2014,-240 2014,-228 2014,-228 2014,-222 2020,-216 2026,-216 2026,-216 2082,-216 2082,-216 2088,-216 2094,-222 2094,-228 2094,-228 2094,-240 2094,-240 2094,-246 2088,-252 2082,-252"/>
<text text-anchor="middle" x="2054" y="-237" font-family="sans" font-size="10.00">infercnv</text>
<text text-anchor="middle" x="2054" y="-226" font-family="sans" font-size="10.00">denoise_val: 2</text>
</g>
<!-- 42&#45;&gt;15 -->
<g id="edge42" class="edge"><title>42&#45;&gt;15</title>
<path fill="none" stroke="grey" stroke-width="2" d="M2046.83,-215.697C2043.57,-207.813 2039.63,-198.304 2036,-189.546"/>
<polygon fill="grey" stroke="grey" stroke-width="2" points="2039.15,-188.003 2032.09,-180.104 2032.68,-190.683 2039.15,-188.003"/>
</g>
<!-- 43 -->
<g id="node44" class="node"><title>43</title>
<path fill="none" stroke="#97d856" stroke-width="2" stroke-dasharray="5,2" d="M866,-329C866,-329 802,-329 802,-329 796,-329 790,-323 790,-317 790,-317 790,-300 790,-300 790,-294 796,-288 802,-288 802,-288 866,-288 866,-288 872,-288 878,-294 878,-300 878,-300 878,-317 878,-317 878,-323 872,-329 866,-329"/>
<text text-anchor="middle" x="834" y="-317" font-family="sans" font-size="10.00">infercnv</text>
<text text-anchor="middle" x="834" y="-306" font-family="sans" font-size="10.00">denoise_val: 1.3</text>
<text text-anchor="middle" x="834" y="-295" font-family="sans" font-size="10.00">sample: normal</text>
</g>
<!-- 43&#45;&gt;16 -->
<g id="edge43" class="edge"><title>43&#45;&gt;16</title>
<path fill="none" stroke="grey" stroke-width="2" d="M789.667,-291.207C757.491,-279.308 715.9,-263.759 687.485,-252.024"/>
<polygon fill="grey" stroke="grey" stroke-width="2" points="688.597,-248.694 678.022,-248.045 685.883,-255.147 688.597,-248.694"/>
</g>
<!-- 44 -->
<g id="node45" class="node"><title>44</title>
<path fill="none" stroke="#97d856" stroke-width="2" stroke-dasharray="5,2" d="M2188,-252C2188,-252 2124,-252 2124,-252 2118,-252 2112,-246 2112,-240 2112,-240 2112,-228 2112,-228 2112,-222 2118,-216 2124,-216 2124,-216 2188,-216 2188,-216 2194,-216 2200,-222 2200,-228 2200,-228 2200,-240 2200,-240 2200,-246 2194,-252 2188,-252"/>
<text text-anchor="middle" x="2156" y="-237" font-family="sans" font-size="10.00">infercnv</text>
<text text-anchor="middle" x="2156" y="-226" font-family="sans" font-size="10.00">denoise_val: 1.1</text>
</g>
<!-- 44&#45;&gt;17 -->
<g id="edge44" class="edge"><title>44&#45;&gt;17</title>
<path fill="none" stroke="grey" stroke-width="2" d="M2148.58,-215.697C2145.21,-207.813 2141.13,-198.304 2137.38,-189.546"/>
<polygon fill="grey" stroke="grey" stroke-width="2" points="2140.49,-187.917 2133.33,-180.104 2134.05,-190.675 2140.49,-187.917"/>
</g>
<!-- 45 -->
<g id="node46" class="node"><title>45</title>
<path fill="none" stroke="#97d856" stroke-width="2" stroke-dasharray="5,2" d="M1152,-252C1152,-252 1088,-252 1088,-252 1082,-252 1076,-246 1076,-240 1076,-240 1076,-228 1076,-228 1076,-222 1082,-216 1088,-216 1088,-216 1152,-216 1152,-216 1158,-216 1164,-222 1164,-228 1164,-228 1164,-240 1164,-240 1164,-246 1158,-252 1152,-252"/>
<text text-anchor="middle" x="1120" y="-237" font-family="sans" font-size="10.00">infercnv</text>
<text text-anchor="middle" x="1120" y="-226" font-family="sans" font-size="10.00">denoise_val: 0.5</text>
</g>
<!-- 45&#45;&gt;18 -->
<g id="edge45" class="edge"><title>45&#45;&gt;18</title>
<path fill="none" stroke="grey" stroke-width="2" d="M1127.42,-215.697C1130.79,-207.813 1134.87,-198.304 1138.62,-189.546"/>
<polygon fill="grey" stroke="grey" stroke-width="2" points="1141.95,-190.675 1142.67,-180.104 1135.51,-187.917 1141.95,-190.675"/>
</g>
<!-- 46 -->
<g id="node47" class="node"><title>46</title>
<path fill="none" stroke="#97d856" stroke-width="2" stroke-dasharray="5,2" d="M1250,-252C1250,-252 1194,-252 1194,-252 1188,-252 1182,-246 1182,-240 1182,-240 1182,-228 1182,-228 1182,-222 1188,-216 1194,-216 1194,-216 1250,-216 1250,-216 1256,-216 1262,-222 1262,-228 1262,-228 1262,-240 1262,-240 1262,-246 1256,-252 1250,-252"/>
<text text-anchor="middle" x="1222" y="-237" font-family="sans" font-size="10.00">infercnv</text>
<text text-anchor="middle" x="1222" y="-226" font-family="sans" font-size="10.00">denoise_val: 1</text>
</g>
<!-- 46&#45;&gt;19 -->
<g id="edge46" class="edge"><title>46&#45;&gt;19</title>
<path fill="none" stroke="grey" stroke-width="2" d="M1222,-215.697C1222,-207.983 1222,-198.712 1222,-190.112"/>
<polygon fill="grey" stroke="grey" stroke-width="2" points="1225.5,-190.104 1222,-180.104 1218.5,-190.104 1225.5,-190.104"/>
</g>
<!-- 47 -->
<g id="node48" class="node"><title>47</title>
<path fill="none" stroke="#97d856" stroke-width="2" stroke-dasharray="5,2" d="M1356,-252C1356,-252 1292,-252 1292,-252 1286,-252 1280,-246 1280,-240 1280,-240 1280,-228 1280,-228 1280,-222 1286,-216 1292,-216 1292,-216 1356,-216 1356,-216 1362,-216 1368,-222 1368,-228 1368,-228 1368,-240 1368,-240 1368,-246 1362,-252 1356,-252"/>
<text text-anchor="middle" x="1324" y="-237" font-family="sans" font-size="10.00">infercnv</text>
<text text-anchor="middle" x="1324" y="-226" font-family="sans" font-size="10.00">denoise_val: 1.2</text>
</g>
<!-- 47&#45;&gt;20 -->
<g id="edge47" class="edge"><title>47&#45;&gt;20</title>
<path fill="none" stroke="grey" stroke-width="2" d="M1320.29,-215.697C1318.64,-207.983 1316.65,-198.712 1314.81,-190.112"/>
<polygon fill="grey" stroke="grey" stroke-width="2" points="1318.18,-189.149 1312.67,-180.104 1311.34,-190.616 1318.18,-189.149"/>
</g>
<!-- 48 -->
<g id="node49" class="node"><title>48</title>
<path fill="none" stroke="#97d856" stroke-width="2" stroke-dasharray="5,2" d="M1462,-252C1462,-252 1398,-252 1398,-252 1392,-252 1386,-246 1386,-240 1386,-240 1386,-228 1386,-228 1386,-222 1392,-216 1398,-216 1398,-216 1462,-216 1462,-216 1468,-216 1474,-222 1474,-228 1474,-228 1474,-240 1474,-240 1474,-246 1468,-252 1462,-252"/>
<text text-anchor="middle" x="1430" y="-237" font-family="sans" font-size="10.00">infercnv</text>
<text text-anchor="middle" x="1430" y="-226" font-family="sans" font-size="10.00">denoise_val: 1.4</text>
</g>
<!-- 48&#45;&gt;21 -->
<g id="edge48" class="edge"><title>48&#45;&gt;21</title>
<path fill="none" stroke="grey" stroke-width="2" d="M1423.82,-215.697C1421,-207.813 1417.61,-198.304 1414.48,-189.546"/>
<polygon fill="grey" stroke="grey" stroke-width="2" points="1417.77,-188.345 1411.11,-180.104 1411.18,-190.699 1417.77,-188.345"/>
</g>
<!-- 49 -->
<g id="node50" class="node"><title>49</title>
<path fill="none" stroke="#97d856" stroke-width="2" stroke-dasharray="5,2" d="M2294,-252C2294,-252 2230,-252 2230,-252 2224,-252 2218,-246 2218,-240 2218,-240 2218,-228 2218,-228 2218,-222 2224,-216 2230,-216 2230,-216 2294,-216 2294,-216 2300,-216 2306,-222 2306,-228 2306,-228 2306,-240 2306,-240 2306,-246 2300,-252 2294,-252"/>
<text text-anchor="middle" x="2262" y="-237" font-family="sans" font-size="10.00">infercnv</text>
<text text-anchor="middle" x="2262" y="-226" font-family="sans" font-size="10.00">denoise_val: 1.5</text>
</g>
<!-- 49&#45;&gt;22 -->
<g id="edge49" class="edge"><title>49&#45;&gt;22</title>
<path fill="none" stroke="grey" stroke-width="2" d="M2254.09,-215.697C2250.45,-207.728 2246.05,-198.1 2242.01,-189.264"/>
<polygon fill="grey" stroke="grey" stroke-width="2" points="2245.16,-187.744 2237.82,-180.104 2238.79,-190.654 2245.16,-187.744"/>
</g>
<!-- 50 -->
<g id="node51" class="node"><title>50</title>
<path fill="none" stroke="#97d856" stroke-width="2" stroke-dasharray="5,2" d="M1568,-252C1568,-252 1504,-252 1504,-252 1498,-252 1492,-246 1492,-240 1492,-240 1492,-228 1492,-228 1492,-222 1498,-216 1504,-216 1504,-216 1568,-216 1568,-216 1574,-216 1580,-222 1580,-228 1580,-228 1580,-240 1580,-240 1580,-246 1574,-252 1568,-252"/>
<text text-anchor="middle" x="1536" y="-237" font-family="sans" font-size="10.00">infercnv</text>
<text text-anchor="middle" x="1536" y="-226" font-family="sans" font-size="10.00">denoise_val: 1.5</text>
</g>
<!-- 50&#45;&gt;23 -->
<g id="edge50" class="edge"><title>50&#45;&gt;23</title>
<path fill="none" stroke="grey" stroke-width="2" d="M1528.58,-215.697C1525.21,-207.813 1521.13,-198.304 1517.38,-189.546"/>
<polygon fill="grey" stroke="grey" stroke-width="2" points="1520.49,-187.917 1513.33,-180.104 1514.05,-190.675 1520.49,-187.917"/>
</g>
<!-- 51 -->
<g id="node52" class="node"><title>51</title>
<path fill="none" stroke="#97d856" stroke-width="2" stroke-dasharray="5,2" d="M967.5,-329C967.5,-329 908.5,-329 908.5,-329 902.5,-329 896.5,-323 896.5,-317 896.5,-317 896.5,-300 896.5,-300 896.5,-294 902.5,-288 908.5,-288 908.5,-288 967.5,-288 967.5,-288 973.5,-288 979.5,-294 979.5,-300 979.5,-300 979.5,-317 979.5,-317 979.5,-323 973.5,-329 967.5,-329"/>
<text text-anchor="middle" x="938" y="-317" font-family="sans" font-size="10.00">infercnv</text>
<text text-anchor="middle" x="938" y="-306" font-family="sans" font-size="10.00">denoise_val: 2</text>
<text text-anchor="middle" x="938" y="-295" font-family="sans" font-size="10.00">sample: normal</text>
</g>
<!-- 51&#45;&gt;24 -->
<g id="edge51" class="edge"><title>51&#45;&gt;24</title>
<path fill="none" stroke="grey" stroke-width="2" d="M896.363,-291.226C893.206,-290.101 890.06,-289.013 887,-288 833.747,-270.371 816.138,-272.414 759.715,-251.958"/>
<polygon fill="grey" stroke="grey" stroke-width="2" points="760.907,-248.668 750.314,-248.476 758.475,-255.232 760.907,-248.668"/>
</g>
<!-- 52 -->
<g id="node53" class="node"><title>52</title>
<path fill="none" stroke="#97d856" stroke-width="2" stroke-dasharray="5,2" d="M2400,-252C2400,-252 2336,-252 2336,-252 2330,-252 2324,-246 2324,-240 2324,-240 2324,-228 2324,-228 2324,-222 2330,-216 2336,-216 2336,-216 2400,-216 2400,-216 2406,-216 2412,-222 2412,-228 2412,-228 2412,-240 2412,-240 2412,-246 2406,-252 2400,-252"/>
<text text-anchor="middle" x="2368" y="-237" font-family="sans" font-size="10.00">infercnv</text>
<text text-anchor="middle" x="2368" y="-226" font-family="sans" font-size="10.00">denoise_val: 1.3</text>
</g>
<!-- 52&#45;&gt;25 -->
<g id="edge52" class="edge"><title>52&#45;&gt;25</title>
<path fill="none" stroke="grey" stroke-width="2" d="M2359.84,-215.697C2356.09,-207.728 2351.55,-198.1 2347.38,-189.264"/>
<polygon fill="grey" stroke="grey" stroke-width="2" points="2350.49,-187.657 2343.06,-180.104 2344.16,-190.642 2350.49,-187.657"/>
</g>
<!-- 53 -->
<g id="node54" class="node"><title>53</title>
<path fill="none" stroke="#97d856" stroke-width="2" stroke-dasharray="5,2" d="M1674,-252C1674,-252 1610,-252 1610,-252 1604,-252 1598,-246 1598,-240 1598,-240 1598,-228 1598,-228 1598,-222 1604,-216 1610,-216 1610,-216 1674,-216 1674,-216 1680,-216 1686,-222 1686,-228 1686,-228 1686,-240 1686,-240 1686,-246 1680,-252 1674,-252"/>
<text text-anchor="middle" x="1642" y="-237" font-family="sans" font-size="10.00">infercnv</text>
<text text-anchor="middle" x="1642" y="-226" font-family="sans" font-size="10.00">denoise_val: 1.1</text>
</g>
<!-- 53&#45;&gt;26 -->
<g id="edge53" class="edge"><title>53&#45;&gt;26</title>
<path fill="none" stroke="grey" stroke-width="2" d="M1634.09,-215.697C1630.45,-207.728 1626.05,-198.1 1622.01,-189.264"/>
<polygon fill="grey" stroke="grey" stroke-width="2" points="1625.16,-187.744 1617.82,-180.104 1618.79,-190.654 1625.16,-187.744"/>
</g>
<!-- 54 -->
<g id="node55" class="node"><title>54</title>
<path fill="none" stroke="#97d856" stroke-width="2" stroke-dasharray="5,2" d="M2503.5,-252C2503.5,-252 2442.5,-252 2442.5,-252 2436.5,-252 2430.5,-246 2430.5,-240 2430.5,-240 2430.5,-228 2430.5,-228 2430.5,-222 2436.5,-216 2442.5,-216 2442.5,-216 2503.5,-216 2503.5,-216 2509.5,-216 2515.5,-222 2515.5,-228 2515.5,-228 2515.5,-240 2515.5,-240 2515.5,-246 2509.5,-252 2503.5,-252"/>
<text text-anchor="middle" x="2473" y="-237" font-family="sans" font-size="10.00">infercnv</text>
<text text-anchor="middle" x="2473" y="-226" font-family="sans" font-size="10.00">denoise_val: no</text>
</g>
<!-- 54&#45;&gt;27 -->
<g id="edge54" class="edge"><title>54&#45;&gt;27</title>
<path fill="none" stroke="grey" stroke-width="2" d="M2464.84,-215.697C2461.09,-207.728 2456.55,-198.1 2452.38,-189.264"/>
<polygon fill="grey" stroke="grey" stroke-width="2" points="2455.49,-187.657 2448.06,-180.104 2449.16,-190.642 2455.49,-187.657"/>
</g>
<!-- 55 -->
<g id="node56" class="node"><title>55</title>
<path fill="none" stroke="#97d856" stroke-width="2" stroke-dasharray="5,2" d="M2610,-252C2610,-252 2546,-252 2546,-252 2540,-252 2534,-246 2534,-240 2534,-240 2534,-228 2534,-228 2534,-222 2540,-216 2546,-216 2546,-216 2610,-216 2610,-216 2616,-216 2622,-222 2622,-228 2622,-228 2622,-240 2622,-240 2622,-246 2616,-252 2610,-252"/>
<text text-anchor="middle" x="2578" y="-237" font-family="sans" font-size="10.00">infercnv</text>
<text text-anchor="middle" x="2578" y="-226" font-family="sans" font-size="10.00">denoise_val: 1.2</text>
</g>
<!-- 55&#45;&gt;28 -->
<g id="edge55" class="edge"><title>55&#45;&gt;28</title>
<path fill="none" stroke="grey" stroke-width="2" d="M2569.84,-215.697C2566.09,-207.728 2561.55,-198.1 2557.38,-189.264"/>
<polygon fill="grey" stroke="grey" stroke-width="2" points="2560.49,-187.657 2553.06,-180.104 2554.16,-190.642 2560.49,-187.657"/>
</g>
<!-- 56 -->
<g id="node57" class="node"><title>56</title>
<path fill="none" stroke="#59d856" stroke-width="2" stroke-dasharray="5,2" d="M655.5,-401C655.5,-401 596.5,-401 596.5,-401 590.5,-401 584.5,-395 584.5,-389 584.5,-389 584.5,-377 584.5,-377 584.5,-371 590.5,-365 596.5,-365 596.5,-365 655.5,-365 655.5,-365 661.5,-365 667.5,-371 667.5,-377 667.5,-377 667.5,-389 667.5,-389 667.5,-395 661.5,-401 655.5,-401"/>
<text text-anchor="middle" x="626" y="-380.5" font-family="sans" font-size="10.00">prepare_normal</text>
</g>
<!-- 56&#45;&gt;29 -->
<g id="edge56" class="edge"><title>56&#45;&gt;29</title>
<path fill="none" stroke="grey" stroke-width="2" d="M584.268,-381.383C495.736,-379.315 282.76,-370.313 98.1657,-328.968"/>
<polygon fill="grey" stroke="grey" stroke-width="2" points="98.8128,-325.525 88.2852,-326.717 97.2582,-332.351 98.8128,-325.525"/>
</g>
<!-- 56&#45;&gt;31 -->
<g id="edge58" class="edge"><title>56&#45;&gt;31</title>
<path fill="none" stroke="grey" stroke-width="2" d="M584.322,-377.426C515.433,-369.557 373.636,-352.056 255,-329 254.393,-328.882 253.784,-328.763 253.173,-328.641"/>
<polygon fill="grey" stroke="grey" stroke-width="2" points="253.635,-325.163 243.132,-326.556 252.211,-332.016 253.635,-325.163"/>
</g>
<!-- 56&#45;&gt;34 -->
<g id="edge61" class="edge"><title>56&#45;&gt;34</title>
<path fill="none" stroke="grey" stroke-width="2" d="M584.216,-375.703C533.547,-367.616 445.509,-352.117 361.741,-329.005"/>
<polygon fill="grey" stroke="grey" stroke-width="2" points="362.651,-325.625 352.078,-326.299 360.764,-332.366 362.651,-325.625"/>
</g>
<!-- 56&#45;&gt;35 -->
<g id="edge62" class="edge"><title>56&#45;&gt;35</title>
<path fill="none" stroke="grey" stroke-width="2" d="M584.368,-368.511C554.357,-358.7 512.668,-344.893 467.824,-329.247"/>
<polygon fill="grey" stroke="grey" stroke-width="2" points="468.805,-325.882 458.21,-325.881 466.492,-332.489 468.805,-325.882"/>
</g>
<!-- 56&#45;&gt;37 -->
<g id="edge64" class="edge"><title>56&#45;&gt;37</title>
<path fill="none" stroke="grey" stroke-width="2" d="M600.879,-364.819C587.778,-355.858 571.499,-344.723 556.988,-334.798"/>
<polygon fill="grey" stroke="grey" stroke-width="2" points="558.915,-331.876 548.685,-329.12 554.963,-337.654 558.915,-331.876"/>
</g>
<!-- 56&#45;&gt;39 -->
<g id="edge66" class="edge"><title>56&#45;&gt;39</title>
<path fill="none" stroke="grey" stroke-width="2" d="M626,-364.819C626,-357.198 626,-348.005 626,-339.32"/>
<polygon fill="grey" stroke="grey" stroke-width="2" points="629.5,-339.12 626,-329.12 622.5,-339.12 629.5,-339.12"/>
</g>
<!-- 56&#45;&gt;40 -->
<g id="edge67" class="edge"><title>56&#45;&gt;40</title>
<path fill="none" stroke="grey" stroke-width="2" d="M650.647,-364.819C663.381,-355.941 679.174,-344.931 693.311,-335.077"/>
<polygon fill="grey" stroke="grey" stroke-width="2" points="695.654,-337.71 701.856,-329.12 691.651,-331.967 695.654,-337.71"/>
</g>
<!-- 56&#45;&gt;43 -->
<g id="edge70" class="edge"><title>56&#45;&gt;43</title>
<path fill="none" stroke="grey" stroke-width="2" d="M667.564,-367.885C698.589,-357.303 742.001,-342.399 780,-329 780.1,-328.965 780.2,-328.93 780.3,-328.894"/>
<polygon fill="grey" stroke="grey" stroke-width="2" points="781.562,-332.16 789.815,-325.517 779.22,-325.564 781.562,-332.16"/>
</g>
<!-- 56&#45;&gt;51 -->
<g id="edge78" class="edge"><title>56&#45;&gt;51</title>
<path fill="none" stroke="grey" stroke-width="2" d="M667.647,-375.72C717.617,-367.709 803.958,-352.353 886.641,-328.86"/>
<polygon fill="grey" stroke="grey" stroke-width="2" points="887.805,-332.167 896.442,-326.031 885.864,-325.441 887.805,-332.167"/>
</g>
<!-- 57 -->
<g id="node58" class="node"><title>57</title>
<path fill="none" stroke="#d6d856" stroke-width="2" stroke-dasharray="5,2" d="M1218,-326.5C1218,-326.5 1124,-326.5 1124,-326.5 1118,-326.5 1112,-320.5 1112,-314.5 1112,-314.5 1112,-302.5 1112,-302.5 1112,-296.5 1118,-290.5 1124,-290.5 1124,-290.5 1218,-290.5 1218,-290.5 1224,-290.5 1230,-296.5 1230,-302.5 1230,-302.5 1230,-314.5 1230,-314.5 1230,-320.5 1224,-326.5 1218,-326.5"/>
<text text-anchor="middle" x="1171" y="-311.5" font-family="sans" font-size="10.00">cancer_sim</text>
<text text-anchor="middle" x="1171" y="-300.5" font-family="sans" font-size="10.00">sample: filtered_normal</text>
</g>
<!-- 56&#45;&gt;57 -->
<g id="edge83" class="edge"><title>56&#45;&gt;57</title>
<path fill="none" stroke="grey" stroke-width="2" d="M667.86,-376.431C761.133,-364.024 986.829,-334 1101.56,-318.738"/>
<polygon fill="grey" stroke="grey" stroke-width="2" points="1102.18,-322.186 1111.63,-317.397 1101.26,-315.247 1102.18,-322.186"/>
</g>
<!-- 58 -->
<g id="node59" class="node"><title>58</title>
<path fill="none" stroke="#d6d856" stroke-width="2" stroke-dasharray="5,2" d="M2130.5,-326.5C2130.5,-326.5 2079.5,-326.5 2079.5,-326.5 2073.5,-326.5 2067.5,-320.5 2067.5,-314.5 2067.5,-314.5 2067.5,-302.5 2067.5,-302.5 2067.5,-296.5 2073.5,-290.5 2079.5,-290.5 2079.5,-290.5 2130.5,-290.5 2130.5,-290.5 2136.5,-290.5 2142.5,-296.5 2142.5,-302.5 2142.5,-302.5 2142.5,-314.5 2142.5,-314.5 2142.5,-320.5 2136.5,-326.5 2130.5,-326.5"/>
<text text-anchor="middle" x="2105" y="-311.5" font-family="sans" font-size="10.00">cancer_sim</text>
<text text-anchor="middle" x="2105" y="-300.5" font-family="sans" font-size="10.00">sample: sim1</text>
</g>
<!-- 56&#45;&gt;58 -->
<g id="edge84" class="edge"><title>56&#45;&gt;58</title>
<path fill="none" stroke="grey" stroke-width="2" d="M667.881,-379.947C879.704,-369.564 1831.78,-322.893 2057.09,-311.849"/>
<polygon fill="grey" stroke="grey" stroke-width="2" points="2057.45,-315.335 2067.26,-311.35 2057.1,-308.344 2057.45,-315.335"/>
</g>
<!-- 57&#45;&gt;30 -->
<g id="edge57" class="edge"><title>57&#45;&gt;30</title>
<path fill="none" stroke="grey" stroke-width="2" d="M1111.73,-299.298C1051.46,-290.403 955.327,-274.686 863.449,-251.923"/>
<polygon fill="grey" stroke="grey" stroke-width="2" points="864.263,-248.519 853.712,-249.48 862.56,-255.309 864.263,-248.519"/>
</g>
<!-- 57&#45;&gt;32 -->
<g id="edge59" class="edge"><title>57&#45;&gt;32</title>
<path fill="none" stroke="grey" stroke-width="2" d="M1111.83,-293.132C1071.88,-283.14 1017.8,-269.052 961.772,-252.129"/>
<polygon fill="grey" stroke="grey" stroke-width="2" points="962.616,-248.728 952.03,-249.164 960.578,-255.425 962.616,-248.728"/>
</g>
<!-- 57&#45;&gt;38 -->
<g id="edge65" class="edge"><title>57&#45;&gt;38</title>
<path fill="none" stroke="grey" stroke-width="2" d="M1133.79,-290.319C1111.8,-280.161 1083.75,-267.211 1060.33,-256.395"/>
<polygon fill="grey" stroke="grey" stroke-width="2" points="1061.49,-253.073 1050.94,-252.058 1058.55,-259.428 1061.49,-253.073"/>
</g>
<!-- 57&#45;&gt;45 -->
<g id="edge72" class="edge"><title>57&#45;&gt;45</title>
<path fill="none" stroke="grey" stroke-width="2" d="M1158.91,-290.319C1152.63,-281.38 1144.82,-270.279 1137.85,-260.372"/>
<polygon fill="grey" stroke="grey" stroke-width="2" points="1140.62,-258.223 1132,-252.058 1134.89,-262.251 1140.62,-258.223"/>
</g>
<!-- 57&#45;&gt;46 -->
<g id="edge73" class="edge"><title>57&#45;&gt;46</title>
<path fill="none" stroke="grey" stroke-width="2" d="M1183.09,-290.319C1189.37,-281.38 1197.18,-270.279 1204.15,-260.372"/>
<polygon fill="grey" stroke="grey" stroke-width="2" points="1207.11,-262.251 1210,-252.058 1201.38,-258.223 1207.11,-262.251"/>
</g>
<!-- 57&#45;&gt;47 -->
<g id="edge74" class="edge"><title>57&#45;&gt;47</title>
<path fill="none" stroke="grey" stroke-width="2" d="M1207.26,-290.319C1228.69,-280.161 1256.02,-267.211 1278.85,-256.395"/>
<polygon fill="grey" stroke="grey" stroke-width="2" points="1280.46,-259.503 1288,-252.058 1277.47,-253.177 1280.46,-259.503"/>
</g>
<!-- 57&#45;&gt;48 -->
<g id="edge75" class="edge"><title>57&#45;&gt;48</title>
<path fill="none" stroke="grey" stroke-width="2" d="M1230.26,-292.328C1269.2,-282.175 1321.47,-268.202 1375.96,-252.244"/>
<polygon fill="grey" stroke="grey" stroke-width="2" points="1377.2,-255.53 1385.8,-249.349 1375.22,-248.815 1377.2,-255.53"/>
</g>
<!-- 57&#45;&gt;50 -->
<g id="edge77" class="edge"><title>57&#45;&gt;50</title>
<path fill="none" stroke="grey" stroke-width="2" d="M1230.15,-299.399C1291.12,-290.506 1388.99,-274.722 1482.02,-252.071"/>
<polygon fill="grey" stroke="grey" stroke-width="2" points="1483.01,-255.433 1491.88,-249.641 1481.33,-248.637 1483.01,-255.433"/>
</g>
<!-- 57&#45;&gt;53 -->
<g id="edge80" class="edge"><title>57&#45;&gt;53</title>
<path fill="none" stroke="grey" stroke-width="2" d="M1230.08,-302.998C1309.59,-296.203 1455.42,-281.147 1587.99,-252.004"/>
<polygon fill="grey" stroke="grey" stroke-width="2" points="1588.92,-255.383 1597.92,-249.789 1587.39,-248.551 1588.92,-255.383"/>
</g>
<!-- 58&#45;&gt;33 -->
<g id="edge60" class="edge"><title>58&#45;&gt;33</title>
<path fill="none" stroke="grey" stroke-width="2" d="M2067.22,-302.217C2011.22,-294.034 1902.77,-276.848 1801.86,-252.049"/>
<polygon fill="grey" stroke="grey" stroke-width="2" points="1802.67,-248.644 1792.12,-249.625 1800.98,-255.437 1802.67,-248.644"/>
</g>
<!-- 58&#45;&gt;36 -->
<g id="edge63" class="edge"><title>58&#45;&gt;36</title>
<path fill="none" stroke="grey" stroke-width="2" d="M2067.29,-297.377C2029.39,-287.104 1969.08,-270.487 1908.01,-252.255"/>
<polygon fill="grey" stroke="grey" stroke-width="2" points="1908.79,-248.835 1898.21,-249.315 1906.78,-255.54 1908.79,-248.835"/>
</g>
<!-- 58&#45;&gt;41 -->
<g id="edge68" class="edge"><title>58&#45;&gt;41</title>
<path fill="none" stroke="grey" stroke-width="2" d="M2069.69,-290.319C2048.91,-280.206 2022.44,-267.326 2000.27,-256.539"/>
<polygon fill="grey" stroke="grey" stroke-width="2" points="2001.58,-253.286 1991.06,-252.058 1998.52,-259.581 2001.58,-253.286"/>
</g>
<!-- 58&#45;&gt;42 -->
<g id="edge69" class="edge"><title>58&#45;&gt;42</title>
<path fill="none" stroke="grey" stroke-width="2" d="M2092.91,-290.319C2086.63,-281.38 2078.82,-270.279 2071.85,-260.372"/>
<polygon fill="grey" stroke="grey" stroke-width="2" points="2074.62,-258.223 2066,-252.058 2068.89,-262.251 2074.62,-258.223"/>
</g>
<!-- 58&#45;&gt;44 -->
<g id="edge71" class="edge"><title>58&#45;&gt;44</title>
<path fill="none" stroke="grey" stroke-width="2" d="M2117.09,-290.319C2123.37,-281.38 2131.18,-270.279 2138.15,-260.372"/>
<polygon fill="grey" stroke="grey" stroke-width="2" points="2141.11,-262.251 2144,-252.058 2135.38,-258.223 2141.11,-262.251"/>
</g>
<!-- 58&#45;&gt;49 -->
<g id="edge76" class="edge"><title>58&#45;&gt;49</title>
<path fill="none" stroke="grey" stroke-width="2" d="M2142.21,-290.319C2164.2,-280.161 2192.25,-267.211 2215.67,-256.395"/>
<polygon fill="grey" stroke="grey" stroke-width="2" points="2217.45,-259.428 2225.06,-252.058 2214.51,-253.073 2217.45,-259.428"/>
</g>
<!-- 58&#45;&gt;52 -->
<g id="edge79" class="edge"><title>58&#45;&gt;52</title>
<path fill="none" stroke="grey" stroke-width="2" d="M2142.72,-298.161C2182.9,-288.072 2248.58,-271.187 2314.14,-252.184"/>
<polygon fill="grey" stroke="grey" stroke-width="2" points="2315.19,-255.524 2323.81,-249.365 2313.23,-248.803 2315.19,-255.524"/>
</g>
<!-- 58&#45;&gt;54 -->
<g id="edge81" class="edge"><title>58&#45;&gt;54</title>
<path fill="none" stroke="grey" stroke-width="2" d="M2142.82,-302.63C2200.67,-294.798 2314.67,-277.851 2420.41,-251.947"/>
<polygon fill="grey" stroke="grey" stroke-width="2" points="2421.43,-255.302 2430.29,-249.495 2419.74,-248.508 2421.43,-255.302"/>
</g>
<!-- 58&#45;&gt;55 -->
<g id="edge82" class="edge"><title>58&#45;&gt;55</title>
<path fill="none" stroke="grey" stroke-width="2" d="M2142.66,-304.714C2216.5,-298.767 2385.2,-282.796 2524,-252 2524.1,-251.977 2524.2,-251.955 2524.31,-251.932"/>
<polygon fill="grey" stroke="grey" stroke-width="2" points="2525.1,-255.342 2533.96,-249.547 2523.42,-248.546 2525.1,-255.342"/>
</g>
</g>
</svg>
