<?xml version="1.0" encoding="UTF-8" standalone="no"?>
<!DOCTYPE svg PUBLIC "-//W3C//DTD SVG 1.1//EN"
 "http://www.w3.org/Graphics/SVG/1.1/DTD/svg11.dtd">
<!-- Generated by graphviz version 2.38.0 (20140413.2041)
 -->
<!-- Title: snakemake_dag Pages: 1 -->
<svg width="498pt" height="281pt"
 viewBox="0.00 0.00 498.00 281.00" xmlns="http://www.w3.org/2000/svg" xmlns:xlink="http://www.w3.org/1999/xlink">
<g id="graph0" class="graph" transform="scale(1 1) rotate(0) translate(4 277)">
<title>snakemake_dag</title>
<polygon fill="white" stroke="none" points="-4,4 -4,-277 494,-277 494,4 -4,4"/>
<!-- 0 -->
<g id="node1" class="node"><title>0</title>
<path fill="none" stroke="#56d8d8" stroke-width="2" d="M236,-36C236,-36 206,-36 206,-36 200,-36 194,-30 194,-24 194,-24 194,-12 194,-12 194,-6 200,-0 206,-0 206,-0 236,-0 236,-0 242,-0 248,-6 248,-12 248,-12 248,-24 248,-24 248,-30 242,-36 236,-36"/>
<text text-anchor="middle" x="221" y="-15.5" font-family="sans" font-size="10.00">all</text>
</g>
<!-- 1 -->
<g id="node2" class="node"><title>1</title>
<path fill="none" stroke="#59d856" stroke-width="2" d="M200,-108C200,-108 84,-108 84,-108 78,-108 72,-102 72,-96 72,-96 72,-84 72,-84 72,-78 78,-72 84,-72 84,-72 200,-72 200,-72 206,-72 212,-78 212,-84 212,-84 212,-96 212,-96 212,-102 206,-108 200,-108"/>
<text text-anchor="middle" x="142" y="-93" font-family="sans" font-size="10.00">permutated_normal_infercnv</text>
<text text-anchor="middle" x="142" y="-82" font-family="sans" font-size="10.00">analysis_mode: samples</text>
</g>
<!-- 1&#45;&gt;0 -->
<g id="edge1" class="edge"><title>1&#45;&gt;0</title>
<path fill="none" stroke="grey" stroke-width="2" d="M161.528,-71.6966C171.382,-62.9655 183.486,-52.2405 194.196,-42.7503"/>
<polygon fill="grey" stroke="grey" stroke-width="2" points="196.533,-45.3558 201.697,-36.1043 191.891,-40.1166 196.533,-45.3558"/>
</g>
<!-- 2 -->
<g id="node3" class="node"><title>2</title>
<path fill="none" stroke="#59d856" stroke-width="2" d="M406,-108C406,-108 290,-108 290,-108 284,-108 278,-102 278,-96 278,-96 278,-84 278,-84 278,-78 284,-72 290,-72 290,-72 406,-72 406,-72 412,-72 418,-78 418,-84 418,-84 418,-96 418,-96 418,-102 412,-108 406,-108"/>
<text text-anchor="middle" x="348" y="-93" font-family="sans" font-size="10.00">permutated_normal_infercnv</text>
<text text-anchor="middle" x="348" y="-82" font-family="sans" font-size="10.00">analysis_mode: samples</text>
</g>
<!-- 2&#45;&gt;0 -->
<g id="edge2" class="edge"><title>2&#45;&gt;0</title>
<path fill="none" stroke="grey" stroke-width="2" d="M316.932,-71.8761C298.884,-61.928 276.057,-49.3461 257.198,-38.9516"/>
<polygon fill="grey" stroke="grey" stroke-width="2" points="258.744,-35.8076 248.297,-34.0456 255.365,-41.938 258.744,-35.8076"/>
</g>
<!-- 3 -->
<g id="node4" class="node"><title>3</title>
<path fill="none" stroke="#d6d856" stroke-width="2" d="M224,-196C224,-196 12,-196 12,-196 6,-196 0,-190 0,-184 0,-184 0,-156 0,-156 0,-150 6,-144 12,-144 12,-144 224,-144 224,-144 230,-144 236,-150 236,-156 236,-156 236,-184 236,-184 236,-190 230,-196 224,-196"/>
<text text-anchor="middle" x="118" y="-184" font-family="sans" font-size="10.00">permutate_normal</text>
<text text-anchor="middle" x="118" y="-173" font-family="sans" font-size="10.00">permutated_normal_name: permutated_CID4520N</text>
<text text-anchor="middle" x="118" y="-162" font-family="sans" font-size="10.00">permutation_proportion: 0.01</text>
<text text-anchor="middle" x="118" y="-151" font-family="sans" font-size="10.00">sample: 1</text>
</g>
<!-- 3&#45;&gt;1 -->
<g id="edge3" class="edge"><title>3&#45;&gt;1</title>
<path fill="none" stroke="grey" stroke-width="2" d="M125.726,-143.891C128.259,-135.659 131.084,-126.477 133.66,-118.104"/>
<polygon fill="grey" stroke="grey" stroke-width="2" points="137.047,-118.998 136.643,-108.411 130.357,-116.939 137.047,-118.998"/>
</g>
<!-- 4 -->
<g id="node5" class="node"><title>4</title>
<path fill="none" stroke="#d6d856" stroke-width="2" d="M478,-196C478,-196 266,-196 266,-196 260,-196 254,-190 254,-184 254,-184 254,-156 254,-156 254,-150 260,-144 266,-144 266,-144 478,-144 478,-144 484,-144 490,-150 490,-156 490,-156 490,-184 490,-184 490,-190 484,-196 478,-196"/>
<text text-anchor="middle" x="372" y="-184" font-family="sans" font-size="10.00">permutate_normal</text>
<text text-anchor="middle" x="372" y="-173" font-family="sans" font-size="10.00">permutated_normal_name: permutated_CID4520N</text>
<text text-anchor="middle" x="372" y="-162" font-family="sans" font-size="10.00">permutation_proportion: 0.01</text>
<text text-anchor="middle" x="372" y="-151" font-family="sans" font-size="10.00">sample: 2</text>
</g>
<!-- 4&#45;&gt;2 -->
<g id="edge4" class="edge"><title>4&#45;&gt;2</title>
<path fill="none" stroke="grey" stroke-width="2" d="M364.274,-143.891C361.741,-135.659 358.916,-126.477 356.34,-118.104"/>
<polygon fill="grey" stroke="grey" stroke-width="2" points="359.643,-116.939 353.357,-108.411 352.953,-118.998 359.643,-116.939"/>
</g>
<!-- 5 -->
<g id="node6" class="node"><title>5</title>
<path fill="none" stroke="#d85656" stroke-width="2" stroke-dasharray="5,2" d="M297,-273C297,-273 193,-273 193,-273 187,-273 181,-267 181,-261 181,-261 181,-244 181,-244 181,-238 187,-232 193,-232 193,-232 297,-232 297,-232 303,-232 309,-238 309,-244 309,-244 309,-261 309,-261 309,-267 303,-273 297,-273"/>
<text text-anchor="middle" x="245" y="-261" font-family="sans" font-size="10.00">normal_infercnv</text>
<text text-anchor="middle" x="245" y="-250" font-family="sans" font-size="10.00">analysis_mode: samples</text>
<text text-anchor="middle" x="245" y="-239" font-family="sans" font-size="10.00">normal_name: CID4520N</text>
</g>
<!-- 5&#45;&gt;3 -->
<g id="edge5" class="edge"><title>5&#45;&gt;3</title>
<path fill="none" stroke="grey" stroke-width="2" d="M213.932,-231.807C199.682,-222.775 182.452,-211.853 166.549,-201.773"/>
<polygon fill="grey" stroke="grey" stroke-width="2" points="168.197,-198.674 157.877,-196.277 164.45,-204.586 168.197,-198.674"/>
</g>
<!-- 5&#45;&gt;4 -->
<g id="edge6" class="edge"><title>5&#45;&gt;4</title>
<path fill="none" stroke="grey" stroke-width="2" d="M276.068,-231.807C290.318,-222.775 307.548,-211.853 323.451,-201.773"/>
<polygon fill="grey" stroke="grey" stroke-width="2" points="325.55,-204.586 332.123,-196.277 321.803,-198.674 325.55,-204.586"/>
</g>
</g>
</svg>
