<?xml version="1.0" encoding="UTF-8" standalone="no"?>
<!DOCTYPE svg PUBLIC "-//W3C//DTD SVG 1.1//EN"
 "http://www.w3.org/Graphics/SVG/1.1/DTD/svg11.dtd">
<!-- Generated by graphviz version 2.38.0 (20140413.2041)
 -->
<!-- Title: snakemake_dag Pages: 1 -->
<svg width="354pt" height="132pt"
 viewBox="0.00 0.00 353.50 132.00" xmlns="http://www.w3.org/2000/svg" xmlns:xlink="http://www.w3.org/1999/xlink">
<g id="graph0" class="graph" transform="scale(1 1) rotate(0) translate(4 128)">
<title>snakemake_dag</title>
<polygon fill="white" stroke="none" points="-4,4 -4,-128 349.5,-128 349.5,4 -4,4"/>
<!-- 0 -->
<g id="node1" class="node"><title>0</title>
<path fill="none" stroke="#d85656" stroke-width="2" d="M187,-36C187,-36 157,-36 157,-36 151,-36 145,-30 145,-24 145,-24 145,-12 145,-12 145,-6 151,-0 157,-0 157,-0 187,-0 187,-0 193,-0 199,-6 199,-12 199,-12 199,-24 199,-24 199,-30 193,-36 187,-36"/>
<text text-anchor="middle" x="172" y="-15.5" font-family="sans" font-size="10.00">all</text>
</g>
<!-- 1 -->
<g id="node2" class="node"><title>1</title>
<path fill="none" stroke="#59d856" stroke-width="2" stroke-dasharray="5,2" d="M150,-124C150,-124 12,-124 12,-124 6,-124 0,-118 0,-112 0,-112 0,-84 0,-84 0,-78 6,-72 12,-72 12,-72 150,-72 150,-72 156,-72 162,-78 162,-84 162,-84 162,-112 162,-112 162,-118 156,-124 150,-124"/>
<text text-anchor="middle" x="81" y="-112" font-family="sans" font-size="10.00">normal_infercnv</text>
<text text-anchor="middle" x="81" y="-101" font-family="sans" font-size="10.00">analysis_mode: samples</text>
<text text-anchor="middle" x="81" y="-90" font-family="sans" font-size="10.00">sample_name: CID4520N</text>
<text text-anchor="middle" x="81" y="-79" font-family="sans" font-size="10.00">t_cells_included: t_cells_included</text>
</g>
<!-- 1&#45;&gt;0 -->
<g id="edge1" class="edge"><title>1&#45;&gt;0</title>
<path fill="none" stroke="grey" stroke-width="2" d="M110.294,-71.891C121.142,-62.5929 133.403,-52.0831 144.121,-42.8959"/>
<polygon fill="grey" stroke="grey" stroke-width="2" points="146.653,-45.3356 151.968,-36.1702 142.098,-40.0208 146.653,-45.3356"/>
</g>
<!-- 2 -->
<g id="node3" class="node"><title>2</title>
<path fill="none" stroke="#59d856" stroke-width="2" d="M333.5,-124C333.5,-124 192.5,-124 192.5,-124 186.5,-124 180.5,-118 180.5,-112 180.5,-112 180.5,-84 180.5,-84 180.5,-78 186.5,-72 192.5,-72 192.5,-72 333.5,-72 333.5,-72 339.5,-72 345.5,-78 345.5,-84 345.5,-84 345.5,-112 345.5,-112 345.5,-118 339.5,-124 333.5,-124"/>
<text text-anchor="middle" x="263" y="-112" font-family="sans" font-size="10.00">normal_infercnv</text>
<text text-anchor="middle" x="263" y="-101" font-family="sans" font-size="10.00">analysis_mode: samples</text>
<text text-anchor="middle" x="263" y="-90" font-family="sans" font-size="10.00">sample_name: CID4520N</text>
<text text-anchor="middle" x="263" y="-79" font-family="sans" font-size="10.00">t_cells_included: t_cells_excluded</text>
</g>
<!-- 2&#45;&gt;0 -->
<g id="edge2" class="edge"><title>2&#45;&gt;0</title>
<path fill="none" stroke="grey" stroke-width="2" d="M233.706,-71.891C222.858,-62.5929 210.597,-52.0831 199.879,-42.8959"/>
<polygon fill="grey" stroke="grey" stroke-width="2" points="201.902,-40.0208 192.032,-36.1702 197.347,-45.3356 201.902,-40.0208"/>
</g>
</g>
</svg>
