<?xml version="1.0" encoding="UTF-8" standalone="no"?>
<!DOCTYPE svg PUBLIC "-//W3C//DTD SVG 1.1//EN"
 "http://www.w3.org/Graphics/SVG/1.1/DTD/svg11.dtd">
<!-- Generated by graphviz version 2.38.0 (20140413.2041)
 -->
<!-- Title: snakemake_dag Pages: 1 -->
<svg width="1288pt" height="132pt"
 viewBox="0.00 0.00 1288.00 132.00" xmlns="http://www.w3.org/2000/svg" xmlns:xlink="http://www.w3.org/1999/xlink">
<g id="graph0" class="graph" transform="scale(1 1) rotate(0) translate(4 128)">
<title>snakemake_dag</title>
<polygon fill="white" stroke="none" points="-4,4 -4,-128 1284,-128 1284,4 -4,4"/>
<!-- 0 -->
<g id="node1" class="node"><title>0</title>
<path fill="none" stroke="#59d856" stroke-width="2" d="M762,-36C762,-36 732,-36 732,-36 726,-36 720,-30 720,-24 720,-24 720,-12 720,-12 720,-6 726,-0 732,-0 732,-0 762,-0 762,-0 768,-0 774,-6 774,-12 774,-12 774,-24 774,-24 774,-30 768,-36 762,-36"/>
<text text-anchor="middle" x="747" y="-15.5" font-family="sans" font-size="10.00">all</text>
</g>
<!-- 1 -->
<g id="node2" class="node"><title>1</title>
<path fill="none" stroke="#d85656" stroke-width="2" d="M212,-124C212,-124 12,-124 12,-124 6,-124 -1.42109e-14,-118 -1.42109e-14,-112 -1.42109e-14,-112 -1.42109e-14,-84 -1.42109e-14,-84 -1.42109e-14,-78 6,-72 12,-72 12,-72 212,-72 212,-72 218,-72 224,-78 224,-84 224,-84 224,-112 224,-112 224,-118 218,-124 212,-124"/>
<text text-anchor="middle" x="112" y="-112" font-family="sans" font-size="10.00">normal_infercnv</text>
<text text-anchor="middle" x="112" y="-101" font-family="sans" font-size="10.00">analysis_mode: samples</text>
<text text-anchor="middle" x="112" y="-90" font-family="sans" font-size="10.00">cells_to_remove: T_cells.B_cells.Plasma_Cells</text>
<text text-anchor="middle" x="112" y="-79" font-family="sans" font-size="10.00">sample_name: CID4520N</text>
</g>
<!-- 1&#45;&gt;0 -->
<g id="edge1" class="edge"><title>1&#45;&gt;0</title>
<path fill="none" stroke="grey" stroke-width="2" d="M224.322,-73.3912C227.242,-72.907 230.138,-72.442 233,-72 410.482,-44.5864 624.699,-27.6373 709.668,-21.55"/>
<polygon fill="grey" stroke="grey" stroke-width="2" points="710.12,-25.0268 719.848,-20.8286 709.625,-18.0443 710.12,-25.0268"/>
</g>
<!-- 2 -->
<g id="node3" class="node"><title>2</title>
<path fill="none" stroke="#d85656" stroke-width="2" d="M418,-124C418,-124 254,-124 254,-124 248,-124 242,-118 242,-112 242,-112 242,-84 242,-84 242,-78 248,-72 254,-72 254,-72 418,-72 418,-72 424,-72 430,-78 430,-84 430,-84 430,-112 430,-112 430,-118 424,-124 418,-124"/>
<text text-anchor="middle" x="336" y="-112" font-family="sans" font-size="10.00">normal_infercnv</text>
<text text-anchor="middle" x="336" y="-101" font-family="sans" font-size="10.00">analysis_mode: samples</text>
<text text-anchor="middle" x="336" y="-90" font-family="sans" font-size="10.00">cells_to_remove: B_cells.Plasma_cells</text>
<text text-anchor="middle" x="336" y="-79" font-family="sans" font-size="10.00">sample_name: CID4520N</text>
</g>
<!-- 2&#45;&gt;0 -->
<g id="edge2" class="edge"><title>2&#45;&gt;0</title>
<path fill="none" stroke="grey" stroke-width="2" d="M430.242,-73.8554C433.192,-73.2174 436.117,-72.5972 439,-72 536.033,-51.8996 651.375,-33.5043 709.517,-24.6114"/>
<polygon fill="grey" stroke="grey" stroke-width="2" points="710.331,-28.0279 719.691,-23.0632 709.278,-21.1076 710.331,-28.0279"/>
</g>
<!-- 3 -->
<g id="node4" class="node"><title>3</title>
<path fill="none" stroke="#d85656" stroke-width="2" d="M640,-124C640,-124 460,-124 460,-124 454,-124 448,-118 448,-112 448,-112 448,-84 448,-84 448,-78 454,-72 460,-72 460,-72 640,-72 640,-72 646,-72 652,-78 652,-84 652,-84 652,-112 652,-112 652,-118 646,-124 640,-124"/>
<text text-anchor="middle" x="550" y="-112" font-family="sans" font-size="10.00">normal_infercnv</text>
<text text-anchor="middle" x="550" y="-101" font-family="sans" font-size="10.00">analysis_mode: samples</text>
<text text-anchor="middle" x="550" y="-90" font-family="sans" font-size="10.00">cells_to_remove: Endothelial.Myeloid_cells</text>
<text text-anchor="middle" x="550" y="-79" font-family="sans" font-size="10.00">sample_name: CID4520N</text>
</g>
<!-- 3&#45;&gt;0 -->
<g id="edge3" class="edge"><title>3&#45;&gt;0</title>
<path fill="none" stroke="grey" stroke-width="2" d="M613.145,-71.9985C645.219,-59.2989 683.061,-44.316 710.311,-33.5267"/>
<polygon fill="grey" stroke="grey" stroke-width="2" points="711.831,-36.6891 719.841,-29.7535 709.254,-30.1806 711.831,-36.6891"/>
</g>
<!-- 4 -->
<g id="node5" class="node"><title>4</title>
<path fill="none" stroke="#d85656" stroke-width="2" d="M811.5,-124C811.5,-124 682.5,-124 682.5,-124 676.5,-124 670.5,-118 670.5,-112 670.5,-112 670.5,-84 670.5,-84 670.5,-78 676.5,-72 682.5,-72 682.5,-72 811.5,-72 811.5,-72 817.5,-72 823.5,-78 823.5,-84 823.5,-84 823.5,-112 823.5,-112 823.5,-118 817.5,-124 811.5,-124"/>
<text text-anchor="middle" x="747" y="-112" font-family="sans" font-size="10.00">normal_infercnv</text>
<text text-anchor="middle" x="747" y="-101" font-family="sans" font-size="10.00">analysis_mode: samples</text>
<text text-anchor="middle" x="747" y="-90" font-family="sans" font-size="10.00">cells_to_remove: Myeloid_cells</text>
<text text-anchor="middle" x="747" y="-79" font-family="sans" font-size="10.00">sample_name: CID4520N</text>
</g>
<!-- 4&#45;&gt;0 -->
<g id="edge4" class="edge"><title>4&#45;&gt;0</title>
<path fill="none" stroke="grey" stroke-width="2" d="M747,-71.891C747,-63.8399 747,-54.8803 747,-46.6575"/>
<polygon fill="grey" stroke="grey" stroke-width="2" points="750.5,-46.4106 747,-36.4107 743.5,-46.4107 750.5,-46.4106"/>
</g>
<!-- 5 -->
<g id="node6" class="node"><title>5</title>
<path fill="none" stroke="#d85656" stroke-width="2" d="M972,-124C972,-124 854,-124 854,-124 848,-124 842,-118 842,-112 842,-112 842,-84 842,-84 842,-78 848,-72 854,-72 854,-72 972,-72 972,-72 978,-72 984,-78 984,-84 984,-84 984,-112 984,-112 984,-118 978,-124 972,-124"/>
<text text-anchor="middle" x="913" y="-112" font-family="sans" font-size="10.00">normal_infercnv</text>
<text text-anchor="middle" x="913" y="-101" font-family="sans" font-size="10.00">analysis_mode: samples</text>
<text text-anchor="middle" x="913" y="-90" font-family="sans" font-size="10.00">cells_to_remove: Endothelial</text>
<text text-anchor="middle" x="913" y="-79" font-family="sans" font-size="10.00">sample_name: CID4520N</text>
</g>
<!-- 5&#45;&gt;0 -->
<g id="edge5" class="edge"><title>5&#45;&gt;0</title>
<path fill="none" stroke="grey" stroke-width="2" d="M859.563,-71.891C834.683,-60.2005 805.727,-46.5946 783.414,-36.1103"/>
<polygon fill="grey" stroke="grey" stroke-width="2" points="784.829,-32.9078 774.289,-31.8228 781.852,-39.2433 784.829,-32.9078"/>
</g>
<!-- 6 -->
<g id="node7" class="node"><title>6</title>
<path fill="none" stroke="#d85656" stroke-width="2" d="M1120,-124C1120,-124 1014,-124 1014,-124 1008,-124 1002,-118 1002,-112 1002,-112 1002,-84 1002,-84 1002,-78 1008,-72 1014,-72 1014,-72 1120,-72 1120,-72 1126,-72 1132,-78 1132,-84 1132,-84 1132,-112 1132,-112 1132,-118 1126,-124 1120,-124"/>
<text text-anchor="middle" x="1067" y="-112" font-family="sans" font-size="10.00">normal_infercnv</text>
<text text-anchor="middle" x="1067" y="-101" font-family="sans" font-size="10.00">analysis_mode: samples</text>
<text text-anchor="middle" x="1067" y="-90" font-family="sans" font-size="10.00">cells_to_remove: T_cells</text>
<text text-anchor="middle" x="1067" y="-79" font-family="sans" font-size="10.00">sample_name: CID4520N</text>
</g>
<!-- 6&#45;&gt;0 -->
<g id="edge6" class="edge"><title>6&#45;&gt;0</title>
<path fill="none" stroke="grey" stroke-width="2" d="M1001.75,-74.5095C998.804,-73.6341 995.876,-72.7929 993,-72 919.821,-51.8258 832.657,-34.622 784.201,-25.6498"/>
<polygon fill="grey" stroke="grey" stroke-width="2" points="784.649,-22.1735 774.181,-23.8098 783.384,-29.0584 784.649,-22.1735"/>
</g>
<!-- 7 -->
<g id="node8" class="node"><title>7</title>
<path fill="none" stroke="#d85656" stroke-width="2" d="M1268,-124C1268,-124 1162,-124 1162,-124 1156,-124 1150,-118 1150,-112 1150,-112 1150,-84 1150,-84 1150,-78 1156,-72 1162,-72 1162,-72 1268,-72 1268,-72 1274,-72 1280,-78 1280,-84 1280,-84 1280,-112 1280,-112 1280,-118 1274,-124 1268,-124"/>
<text text-anchor="middle" x="1215" y="-112" font-family="sans" font-size="10.00">normal_infercnv</text>
<text text-anchor="middle" x="1215" y="-101" font-family="sans" font-size="10.00">analysis_mode: samples</text>
<text text-anchor="middle" x="1215" y="-90" font-family="sans" font-size="10.00">cells_to_remove: No</text>
<text text-anchor="middle" x="1215" y="-79" font-family="sans" font-size="10.00">sample_name: CID4520N</text>
</g>
<!-- 7&#45;&gt;0 -->
<g id="edge7" class="edge"><title>7&#45;&gt;0</title>
<path fill="none" stroke="grey" stroke-width="2" d="M1149.83,-74.2252C1146.86,-73.4267 1143.9,-72.6794 1141,-72 1011.87,-41.7991 854.634,-27.0768 784.218,-21.6109"/>
<polygon fill="grey" stroke="grey" stroke-width="2" points="784.312,-18.1081 774.076,-20.8415 783.782,-25.088 784.312,-18.1081"/>
</g>
</g>
</svg>
